<svg width="784" height="742" viewBox="0 0 784 742" fill="none" xmlns="http://www.w3.org/2000/svg">
<line x1="403.02" y1="184.566" x2="403.02" y2="47.009" stroke="#B5B5B5" stroke-linecap="round" stroke-dasharray="2 2"/>
<line x1="621.217" y1="328.634" x2="742.494" y2="284.641" stroke="#B5B5B5" stroke-linecap="round" stroke-dasharray="2 2"/>
<line x1="557.477" y1="566.073" x2="636.486" y2="645.083" stroke="#B5B5B5" stroke-linecap="round" stroke-dasharray="2 2"/>
<line x1="322.41" y1="556.749" x2="194.197" y2="650.172" stroke="#B5B5B5" stroke-linecap="round" stroke-dasharray="2 2"/>
<line x1="207.785" y1="346.518" x2="66.1041" y2="329.83" stroke="#B5B5B5" stroke-linecap="round" stroke-dasharray="2 2"/>
<path d="M400.934 13.5352L402.012 14.793L400.934 15.8711C399.616 17.1888 398.658 18.0872 398.059 18.5664C397.999 19.5247 397.909 20.4531 397.789 21.3516C399.107 22.4297 400.484 23.6875 401.922 25.125L400.844 26.3828C399.826 24.8255 398.747 23.3581 397.609 21.9805C397.13 25.0951 395.783 27.7904 393.566 30.0664L393.117 29.707C394.734 27.6706 395.812 25.4544 396.352 23.0586C397.01 20.7227 397.28 17.5482 397.16 13.5352C397.16 12.5768 397.13 11.5586 397.07 10.4805L398.688 11.0195C398.508 11.8581 398.388 12.7266 398.328 13.625C398.328 15.1224 398.268 16.5 398.148 17.7578C398.208 17.6979 398.328 17.5482 398.508 17.3086C399.286 16.3503 399.826 15.6016 400.125 15.0625C400.424 14.5833 400.694 14.0742 400.934 13.5352ZM399.496 29.707C403.689 27.8503 406.893 25.2148 409.109 21.8008C409.589 21.0221 409.978 20.3034 410.277 19.6445L411.535 20.9023C411.116 21.3815 410.637 21.9805 410.098 22.6992C407.283 26.3529 403.809 28.8685 399.676 30.2461L399.496 29.707ZM407.852 10.8398C407.612 11.7383 407.492 12.5469 407.492 13.2656C407.492 13.9844 407.462 15.1224 407.402 16.6797C407.402 17.9375 407.402 18.806 407.402 19.2852C407.402 20.3034 407.402 21.3216 407.402 22.3398C406.684 22.1003 406.145 21.8307 405.785 21.5312C406.145 20.4531 406.324 19.5547 406.324 18.8359C406.324 18.4167 406.324 17.6081 406.324 16.4102C406.384 14.9128 406.414 13.8047 406.414 13.0859C406.414 12.0677 406.354 11.1094 406.234 10.2109L407.852 10.8398ZM400.664 21.1719C401.622 20.0339 402.491 18.5964 403.27 16.8594C403.389 16.5599 403.569 16.0508 403.809 15.332C403.868 15.1523 403.928 15.0026 403.988 14.8828L405.246 15.9609C405.126 16.1406 404.947 16.3802 404.707 16.6797C404.467 17.0391 404.288 17.3086 404.168 17.4883C403.09 19.1654 402.072 20.513 401.113 21.5312L400.664 21.1719ZM409.289 14.5234C410.727 15.7214 412.164 17.099 413.602 18.6562L412.613 19.8242C411.415 18.0872 410.188 16.4401 408.93 14.8828L409.289 14.5234ZM394.195 14.8828C394.794 15.8411 395.483 17.2786 396.262 19.1953L395.004 19.8242C394.824 19.1654 394.615 18.2969 394.375 17.2188C394.135 16.2604 393.956 15.5417 393.836 15.0625L394.195 14.8828Z" fill="black"/>
<path d="M763.562 271.555C766.797 269.758 769.283 267.931 771.02 266.074C771.379 265.715 771.858 265.086 772.457 264.188L773.355 265.625C772.936 265.924 772.427 266.344 771.828 266.883C771.589 267.182 771.289 267.422 770.93 267.602C771.589 267.602 772.247 267.602 772.906 267.602L776.23 267.332C776.889 267.332 777.428 267.033 777.848 266.434L778.836 267.781C778.297 268.021 777.818 268.35 777.398 268.77C775.661 270.507 773.775 271.974 771.738 273.172L773.086 273.891C773.026 274.01 772.966 274.22 772.906 274.52C772.846 274.699 772.697 275.208 772.457 276.047C772.457 276.107 772.427 276.167 772.367 276.227C772.487 276.406 772.697 276.646 772.996 276.945C773.236 277.185 773.685 277.694 774.344 278.473C775.302 277.634 776.141 276.796 776.859 275.957C777.219 275.538 777.548 275.029 777.848 274.43L778.926 275.867C778.866 275.927 778.716 276.047 778.477 276.227C778.057 276.466 777.758 276.676 777.578 276.855C777.339 277.035 776.949 277.305 776.41 277.664C775.632 278.203 775.092 278.592 774.793 278.832C775.332 279.491 776.051 280.24 776.949 281.078C777.848 281.977 779.435 282.576 781.711 282.875L781.621 283.414L777.039 283.504C776.919 283.324 776.71 283.025 776.41 282.605C774.493 280.03 773.086 278.173 772.188 277.035C771.169 280.868 768.294 283.294 763.562 284.312L763.383 283.863C768.115 282.306 770.78 279.491 771.379 275.418C771.499 274.639 771.559 273.891 771.559 273.172C769.283 274.49 766.408 275.628 762.934 276.586L762.844 276.047C768.714 274.19 773.236 271.585 776.41 268.23L773.176 268.41C773.116 268.41 772.996 268.44 772.816 268.5C772.158 268.56 771.648 268.65 771.289 268.77L770.75 267.871C770.57 267.991 770.331 268.171 770.031 268.41C769.672 268.65 769.402 268.829 769.223 268.949C769.882 269.368 770.72 269.967 771.738 270.746L770.84 272.004C770.301 271.165 769.612 270.267 768.773 269.309C768.174 269.668 767.546 270.027 766.887 270.387C767.665 270.986 768.444 271.674 769.223 272.453L768.145 273.531C767.605 272.513 767.036 271.585 766.438 270.746C766.198 270.866 765.839 271.046 765.359 271.285C764.641 271.585 764.132 271.824 763.832 272.004L763.562 271.555ZM766.887 275.508C767.665 276.107 768.504 276.915 769.402 277.934L768.324 279.012C768.085 278.533 767.695 277.844 767.156 276.945C766.857 276.406 766.647 276.017 766.527 275.777L766.887 275.508Z" fill="black"/>
<path d="M672.773 676.75L673.043 677.11C671.725 677.948 670.497 678.607 669.359 679.086V681.332C669.359 682.77 669.389 683.788 669.449 684.387C669.03 684.327 668.521 684.058 667.922 683.578C668.161 682.92 668.281 682.051 668.281 680.973C668.281 680.853 668.281 680.673 668.281 680.434C668.341 680.134 668.371 679.895 668.371 679.715C668.012 679.895 667.712 680.134 667.473 680.434L666.395 679.266C666.634 679.146 667.053 678.996 667.652 678.817C668.012 678.697 668.251 678.607 668.371 678.547C668.371 674.953 668.371 671.689 668.371 668.754C668.371 668.155 668.311 667.317 668.191 666.239C668.191 666.298 668.191 666.239 668.191 666.059L669.359 666.688C669.479 666.628 669.629 666.508 669.809 666.328C669.988 666.209 670.318 665.939 670.797 665.52C671.096 665.22 671.456 664.861 671.875 664.442L673.133 665.43C672.833 665.55 672.414 665.759 671.875 666.059C671.755 666.179 671.665 666.239 671.605 666.239C671.426 666.358 671.126 666.508 670.707 666.688C670.168 667.047 669.749 667.287 669.449 667.406C669.389 667.886 669.359 668.365 669.359 668.844V670.192H670.258C670.318 670.192 670.467 670.162 670.707 670.102C671.246 669.982 671.605 669.892 671.785 669.832L672.414 670.821C672.115 670.821 671.725 670.851 671.246 670.91C670.887 670.91 670.617 670.91 670.438 670.91L669.359 671C669.359 671.839 669.359 672.737 669.359 673.696L670.348 673.606C670.827 673.606 671.276 673.516 671.695 673.336L672.414 674.324C671.516 674.324 670.887 674.354 670.527 674.414L669.359 674.504V678.098C669.719 677.978 670.228 677.768 670.887 677.469C671.785 677.11 672.414 676.87 672.773 676.75ZM667.023 668.125L668.102 669.383C667.682 669.802 667.353 670.192 667.113 670.551C666.275 671.509 665.406 672.378 664.508 673.156C664.508 673.336 664.508 673.636 664.508 674.055C664.448 674.474 664.418 674.804 664.418 675.043C665.436 675.762 666.484 676.66 667.562 677.739L666.484 678.906C665.945 678.008 665.227 676.96 664.328 675.762C664.029 679.116 662.891 681.961 660.914 684.297L660.465 683.938C661.783 681.841 662.651 679.625 663.07 677.289C663.49 674.953 663.639 671.659 663.52 667.406C663.52 666.808 663.46 665.939 663.34 664.801C663.46 665.58 663.46 665.49 663.34 664.531L664.957 665.16C664.777 665.879 664.688 666.718 664.688 667.676C664.688 668.335 664.658 669.233 664.598 670.371C664.598 671.27 664.598 671.899 664.598 672.258C665.137 671.539 665.676 670.671 666.215 669.653C666.514 669.173 666.784 668.664 667.023 668.125ZM681.398 682.86L681.309 683.309L677.535 683.399C676.936 682.321 676.307 681.183 675.648 679.985C674.51 681.722 672.983 683.189 671.066 684.387L670.707 684.028C672.564 682.53 674.031 680.853 675.109 678.996C674.93 678.697 674.69 678.218 674.391 677.559C674.091 677.08 673.882 676.72 673.762 676.481C673.522 676.002 673.193 675.552 672.773 675.133H673.852C673.971 675.433 674.151 675.852 674.391 676.391C674.57 676.69 674.96 677.319 675.559 678.278C676.337 676.9 676.876 675.462 677.176 673.965L674.93 674.145C674.87 674.145 674.78 674.145 674.66 674.145C674.301 674.205 673.792 674.324 673.133 674.504L672.504 673.516C672.743 673.516 673.073 673.486 673.492 673.426C673.911 673.426 674.211 673.426 674.391 673.426L676.816 673.156C677.236 673.216 677.595 672.947 677.895 672.348L678.973 673.156C678.613 673.456 678.374 673.875 678.254 674.414C677.775 676.151 677.086 677.739 676.188 679.176C676.667 679.895 677.116 680.584 677.535 681.242C678.254 682.141 679.542 682.68 681.398 682.86ZM671.875 672.797C673.013 671.3 673.582 669.413 673.582 667.137C673.582 667.017 673.582 666.748 673.582 666.328C673.522 665.849 673.492 665.52 673.492 665.34L674.57 665.879L676.277 665.699C676.697 665.64 676.966 665.43 677.086 665.071L678.074 665.61C677.775 665.969 677.625 666.358 677.625 666.778C677.625 667.856 677.625 668.994 677.625 670.192C677.625 670.91 677.924 671.24 678.523 671.18C679.122 671.12 679.602 670.97 679.961 670.731L680.949 671.719C680.171 671.959 679.302 672.078 678.344 672.078C677.086 672.138 676.487 671.569 676.547 670.371C676.547 670.012 676.577 669.293 676.637 668.215C676.637 667.317 676.637 666.718 676.637 666.418L674.57 666.598V667.227C674.51 669.922 673.732 671.869 672.234 673.067L671.875 672.797ZM660.914 668.485C661.513 669.503 662.202 670.91 662.98 672.707L661.633 673.426C661.393 672.168 661.004 670.581 660.465 668.664L660.914 668.485Z" fill="black"/>
<path d="M172.781 670.733L174.039 671.362L180.777 671.002C181.077 671.062 181.346 670.823 181.586 670.283L182.484 670.912C182.245 671.212 182.125 671.541 182.125 671.901L181.945 676.932L182.574 677.83C182.155 677.77 181.586 677.77 180.867 677.83C180.628 677.83 180.448 677.83 180.328 677.83L173.949 678.19C173.949 678.609 173.979 678.998 174.039 679.358C173.56 679.238 173.111 678.998 172.691 678.639C172.871 677.92 172.961 677.381 172.961 677.022V672.979C172.961 672.2 172.901 671.451 172.781 670.733ZM181.137 679.537C181.197 679.537 181.316 679.507 181.496 679.448C181.915 679.448 182.634 679.328 183.652 679.088L184.461 680.256C184.042 680.256 183.383 680.286 182.484 680.346C181.945 680.346 181.616 680.346 181.496 680.346L177.094 680.615C177.214 680.795 177.393 681.095 177.633 681.514C178.292 682.532 178.801 683.311 179.16 683.85C179.52 683.55 180.029 683.071 180.688 682.412C180.867 682.233 181.017 682.083 181.137 681.963C181.496 681.484 181.826 681.035 182.125 680.615L183.023 682.053C182.904 682.113 182.694 682.263 182.395 682.502C182.155 682.622 181.975 682.712 181.855 682.772C181.616 682.892 181.286 683.101 180.867 683.401C180.208 683.82 179.759 684.119 179.52 684.299C179.879 684.898 180.238 685.437 180.598 685.916C181.316 687.174 182.964 687.923 185.539 688.162L185.449 688.612L180.957 688.881C180.059 687.264 178.771 684.958 177.094 681.963C176.734 681.364 176.495 680.945 176.375 680.705L174.309 680.795C174.309 684.329 174.279 686.515 174.219 687.354L177.363 685.377L177.723 685.737C176.405 686.934 175.327 687.863 174.488 688.522C174.129 688.881 173.77 689.3 173.41 689.78L172.242 688.701C172.961 688.342 173.29 687.863 173.23 687.264C173.23 685.108 173.23 682.981 173.23 680.885C173.171 680.885 173.081 680.885 172.961 680.885C172.542 680.945 171.913 681.065 171.074 681.244L170.355 680.166C170.775 680.166 171.344 680.136 172.062 680.076C172.542 680.076 172.871 680.076 173.051 680.076L181.137 679.537ZM171.434 674.326L172.512 675.674C172.092 676.093 171.733 676.453 171.434 676.752C170.715 677.591 169.996 678.28 169.277 678.819C169.277 679.118 169.247 679.507 169.188 679.987C169.188 680.586 169.158 681.005 169.098 681.244C169.757 681.724 170.625 682.472 171.703 683.49C172.062 683.79 172.302 684 172.422 684.119L171.434 685.467C171.314 685.347 171.164 685.138 170.984 684.838C170.385 684 169.697 683.071 168.918 682.053C168.918 682.173 168.888 682.293 168.828 682.412C168.349 685.347 167.061 687.863 164.965 689.959L164.516 689.51C166.253 687.234 167.361 684.778 167.84 682.143C168.139 680.406 168.289 677.351 168.289 672.979C168.289 672.799 168.259 672.47 168.199 671.99C168.139 671.152 168.079 670.523 168.02 670.104L169.637 670.733C169.517 671.571 169.457 672.35 169.457 673.069C169.457 674.806 169.427 676.453 169.367 678.01C169.846 677.291 170.296 676.573 170.715 675.854C171.074 675.135 171.314 674.626 171.434 674.326ZM180.148 677.022C180.448 677.022 180.717 677.022 180.957 677.022L181.137 671.721L177.902 671.901V674.057H178.441C179.04 674.057 179.549 673.967 179.969 673.787L180.598 674.776C179.879 674.776 179.25 674.776 178.711 674.776L177.902 674.865V677.201L180.148 677.022ZM174.309 674.237C175.027 674.237 175.596 674.237 176.016 674.237L177.004 674.147V671.99L173.949 672.08V672.979V677.201V677.381L176.914 677.291L177.004 674.955H176.285C176.105 674.955 175.716 674.985 175.117 675.045C175.536 674.985 175.417 675.015 174.758 675.135L174.309 674.237ZM165.414 675.045C166.253 676.423 166.911 677.8 167.391 679.178L165.953 679.987C165.773 678.369 165.444 676.782 164.965 675.225L165.414 675.045Z" fill="black"/>
<path d="M18.8672 326.299C18.987 326.299 19.1367 326.269 19.3164 326.209C20.2148 326.089 20.8737 325.969 21.293 325.849L22.1914 327.107C20.3945 327.107 19.3464 327.137 19.0469 327.197L10.8711 327.736C10.7513 327.736 10.5716 327.766 10.332 327.826C9.55339 327.946 8.92448 328.066 8.44531 328.185L7.72656 327.017C8.14583 327.017 8.80469 326.987 9.70312 326.927C10.2422 326.868 10.5716 326.838 10.6914 326.838L11.8594 326.748C11.8594 325.25 11.8294 323.693 11.7695 322.076C11.5299 322.136 11.0807 322.226 10.4219 322.345C9.94271 322.405 9.58333 322.465 9.34375 322.525L8.625 321.357C10.2422 321.357 11.2305 321.327 11.5898 321.267H11.7695C11.7695 320.908 11.7396 320.399 11.6797 319.74C11.6797 319.201 11.6797 318.812 11.6797 318.572C11.6797 318.392 11.6497 318.153 11.5898 317.853C11.5898 316.895 11.5 316.146 11.3203 315.607L12.9375 316.236C12.8177 317.194 12.7578 318.003 12.7578 318.662C12.7578 318.901 12.7578 319.261 12.7578 319.74C12.8177 320.399 12.8477 320.878 12.8477 321.177L16.3516 320.908C16.3516 320.429 16.3815 319.74 16.4414 318.842C16.4414 318.183 16.4414 317.704 16.4414 317.404C16.4414 316.446 16.4115 315.487 16.3516 314.529L17.8789 315.248C17.7591 315.667 17.6393 316.416 17.5195 317.494C17.5195 317.554 17.5195 317.614 17.5195 317.674C17.5195 317.973 17.5195 318.422 17.5195 319.021C17.4596 319.8 17.4297 320.399 17.4297 320.818H17.6992C17.7591 320.818 17.8789 320.788 18.0586 320.728C18.4779 320.728 19.1966 320.608 20.2148 320.369L20.9336 321.537C20.5143 321.537 19.8854 321.567 19.0469 321.627C18.5078 321.627 18.1484 321.627 17.9688 321.627L17.3398 321.717C17.3398 323.334 17.2799 324.891 17.1602 326.388L18.8672 326.299ZM1.25781 334.474C2.75521 332.198 3.74349 329.982 4.22266 327.826C4.70182 325.61 4.91146 322.345 4.85156 318.033C4.79167 317.614 4.73177 316.895 4.67188 315.877C4.61198 315.398 4.58203 315.038 4.58203 314.799L6.19922 315.338C6.07943 316.296 6.01953 317.284 6.01953 318.302C6.01953 318.842 5.98958 319.62 5.92969 320.638C5.92969 321.717 5.89974 322.495 5.83984 322.974C6.55859 322.076 7.09766 321.267 7.45703 320.549C7.81641 320.01 8.11589 319.441 8.35547 318.842L9.43359 320.189C9.19401 320.489 8.83464 320.878 8.35547 321.357C7.51693 322.375 6.64844 323.244 5.75 323.963C5.75 324.142 5.72005 324.382 5.66016 324.681C5.66016 325.4 5.60026 325.939 5.48047 326.299C6.55859 327.017 7.81641 328.155 9.25391 329.713L8.26562 330.97C7.90625 330.431 7.2474 329.503 6.28906 328.185C5.86979 327.646 5.57031 327.257 5.39062 327.017C5.09115 329.773 3.86328 332.348 1.70703 334.744L1.25781 334.474ZM12.8477 322.076C12.8477 322.615 12.8776 323.394 12.9375 324.412C12.9375 325.43 12.9375 326.179 12.9375 326.658L16.1719 326.478C16.1719 325.4 16.2318 323.843 16.3516 321.806L12.8477 322.076ZM15.9922 328.365C17.7891 329.802 19.4062 331.36 20.8438 333.037L19.5859 334.385C18.2682 332.408 16.9206 330.521 15.543 328.724L15.9922 328.365ZM7.81641 334.834L7.45703 334.474C8.95443 333.097 10.2422 331.599 11.3203 329.982C11.6797 329.563 12.0091 328.994 12.3086 328.275L13.4766 329.623C13.3568 329.743 13.1471 329.952 12.8477 330.252C12.5482 330.551 12.3385 330.791 12.2188 330.97C10.9609 332.408 9.49349 333.696 7.81641 334.834ZM1.88672 319.83C2.72526 321.088 3.44401 322.495 4.04297 324.052L2.60547 324.771C2.24609 322.855 1.85677 321.267 1.4375 320.01L1.88672 319.83ZM33.7812 326.658L34.9492 327.197L40.7891 326.838C41.4479 326.898 41.8372 326.658 41.957 326.119L43.0352 326.838C42.6758 327.197 42.4961 327.586 42.4961 328.006L42.3164 331.599L43.125 332.677C42.1667 332.558 41.3581 332.558 40.6992 332.677L34.9492 332.947V334.654C34.4102 334.534 33.9609 334.325 33.6016 334.025C33.6016 333.905 33.6315 333.726 33.6914 333.486C33.8112 333.007 33.8711 332.618 33.8711 332.318C33.931 331.48 33.9609 330.312 33.9609 328.814C33.9609 328.575 33.931 328.215 33.8711 327.736C33.8711 327.257 33.8411 326.898 33.7812 326.658ZM24.6172 334.115C26.2344 331.599 27.2526 329.293 27.6719 327.197C28.151 325.101 28.3307 322.046 28.2109 318.033C28.2109 317.194 28.151 316.206 28.0312 315.068C28.0312 315.188 28.0312 315.098 28.0312 314.799L29.7383 315.427C29.5586 316.266 29.4688 317.224 29.4688 318.302C29.4688 320.099 29.4089 321.657 29.2891 322.974C29.349 322.855 29.4688 322.705 29.6484 322.525C30.1875 321.806 30.6068 321.177 30.9062 320.638C31.2656 320.099 31.5651 319.56 31.8047 319.021L32.9727 320.369C32.5534 320.788 32.1641 321.177 31.8047 321.537C31.026 322.375 30.1576 323.184 29.1992 323.963C29.1393 324.262 29.0794 324.741 29.0195 325.4C28.8997 325.939 28.8398 326.329 28.8398 326.568C30.2773 327.646 31.5052 328.754 32.5234 329.892L31.4453 331.24C30.487 329.743 29.5586 328.395 28.6602 327.197C28.1211 329.952 26.9232 332.348 25.0664 334.385L24.6172 334.115ZM40.25 331.779C40.5495 331.779 40.8789 331.779 41.2383 331.779L41.418 327.736L35.0391 328.095C35.0391 328.155 35.0391 328.275 35.0391 328.455C34.9792 328.694 34.9492 328.874 34.9492 328.994C34.9492 329.952 34.9492 330.97 34.9492 332.049L40.25 331.779ZM41.8672 323.603C41.987 323.603 42.1667 323.573 42.4062 323.513C43.2448 323.394 43.8737 323.274 44.293 323.154L45.1016 324.322C43.724 324.322 42.7956 324.352 42.3164 324.412L34.6797 324.861C33.6615 324.921 32.793 325.071 32.0742 325.31L31.3555 324.142C31.7747 324.142 32.4336 324.112 33.332 324.052C33.8112 324.052 34.1107 324.052 34.2305 324.052L39.2617 323.693C39.3216 323.513 39.4115 323.244 39.5312 322.885C39.8307 322.046 40.0404 321.417 40.1602 320.998C40.2201 320.818 40.2799 320.549 40.3398 320.189C40.4596 319.77 40.5195 319.5 40.5195 319.381L41.957 320.369C41.7174 320.728 41.4479 321.118 41.1484 321.537C40.7292 322.435 40.3398 323.154 39.9805 323.693L41.8672 323.603ZM40.25 318.302C40.9688 318.302 41.7474 318.183 42.5859 317.943L43.3945 319.021C43.0951 319.021 42.6159 319.051 41.957 319.111C41.418 319.111 41.0286 319.111 40.7891 319.111L35.5781 319.47C35.5182 319.47 35.3685 319.5 35.1289 319.56C34.7695 319.56 34.1706 319.65 33.332 319.83L32.7031 318.752C33.1224 318.752 33.6914 318.722 34.4102 318.662C34.8294 318.662 35.099 318.662 35.2188 318.662L40.25 318.302ZM25.2461 319.47C26.0247 320.788 26.6836 322.226 27.2227 323.783L25.7852 324.502C25.4857 322.765 25.1562 321.148 24.7969 319.65L25.2461 319.47ZM36.3867 314.529C37.3451 315.248 38.2135 316.086 38.9922 317.045L37.6445 318.123C37.4049 317.584 37.0156 316.745 36.4766 315.607C36.237 315.248 36.0872 314.978 36.0273 314.799L36.3867 314.529ZM34.8594 320.01C35.7578 320.848 36.5365 321.806 37.1953 322.885L35.9375 323.783C35.6979 323.124 35.3385 322.226 34.8594 321.088C34.6797 320.668 34.5599 320.369 34.5 320.189L34.8594 320.01Z" fill="black"/>
<circle cx="412.953" cy="387.24" r="346.785" stroke="black"/>
<path d="M412.392 384.028C416.095 388.816 412.903 391.284 411.818 399.775L423.138 401.222C422.798 396.384 422.858 387.668 433.65 375.241C444.443 362.813 486.016 314.337 479.013 222.836L453.777 262.757L405.705 177.513L370.618 260.759C360.744 247.991 340.273 228.117 340.273 228.117C359.107 328.321 408.689 379.241 412.392 384.028Z" fill="url(#paint0_linear_2067_155)"/>
<path d="M400.038 396.256C405.676 394.053 407.144 397.811 414.984 401.246L419.564 390.792C414.826 389.755 406.481 387.24 397.6 373.382C388.719 359.524 353.929 305.971 264.165 286.895L295.352 322.362L200.014 344.453L269.992 401.585C254.959 407.459 230.12 421.497 230.12 421.497C331.569 431.675 394.401 398.459 400.038 396.256Z" fill="url(#paint1_linear_2067_155)"/>
<path d="M409.265 413.597C409.154 407.545 413.188 407.471 419.129 401.309L410.912 393.388C408.296 397.472 403.043 404.427 386.965 407.95C370.887 411.474 308.592 425.531 259.567 503.106L303.649 486.156L291.303 583.238L369.159 537.419C369.455 553.557 374.006 581.723 374.006 581.723C418.738 490.101 409.375 419.648 409.265 413.597Z" fill="url(#paint2_linear_2067_155)"/>
<path d="M429.173 409.322C423.305 407.838 424.295 403.926 419.911 396.575L410.109 402.42C413.361 406.017 418.69 412.914 417.862 429.353C417.034 445.792 414.218 509.591 476.175 577.287L471.411 530.299L561.832 567.735L538.095 480.572C553.742 484.53 582.114 487.543 582.114 487.543C505.476 420.297 435.041 410.806 429.173 409.322Z" fill="url(#paint3_linear_2067_155)"/>
<path d="M431.034 388.586C427.434 393.451 424.191 391.051 415.725 392.316L417.412 403.604C421.975 401.96 430.379 399.648 445.273 406.653C460.167 413.659 518.124 440.479 604.27 408.853L558.99 395.426L627.945 325.981L538.295 314.859C547.895 301.884 561.452 276.779 561.452 276.779C470.149 322.158 434.635 383.721 431.034 388.586Z" fill="url(#paint4_linear_2067_155)"/>
<defs>
<linearGradient id="paint0_linear_2067_155" x1="365.807" y1="208.369" x2="480.591" y2="356.789" gradientUnits="userSpaceOnUse">
<stop stop-color="#D9D9D9"/>
<stop offset="1" stop-color="#737373"/>
</linearGradient>
<linearGradient id="paint1_linear_2067_155" x1="218.371" y1="391.431" x2="393.13" y2="323.144" gradientUnits="userSpaceOnUse">
<stop stop-color="#D9D9D9"/>
<stop offset="1" stop-color="#737373"/>
</linearGradient>
<linearGradient id="paint2_linear_2067_155" x1="341.732" y1="582.314" x2="338.295" y2="394.719" gradientUnits="userSpaceOnUse">
<stop stop-color="#D9D9D9"/>
<stop offset="1" stop-color="#737373"/>
</linearGradient>
<linearGradient id="paint3_linear_2067_155" x1="574.199" y1="518.838" x2="392.3" y2="472.832" gradientUnits="userSpaceOnUse">
<stop stop-color="#D9D9D9"/>
<stop offset="1" stop-color="#737373"/>
</linearGradient>
<linearGradient id="paint4_linear_2067_155" x1="587.4" y1="295.98" x2="475.796" y2="446.805" gradientUnits="userSpaceOnUse">
<stop stop-color="#D9D9D9"/>
<stop offset="1" stop-color="#737373"/>
</linearGradient>
</defs>
</svg>
