<svg width="784" height="742" viewBox="0 0 784 742" fill="none" xmlns="http://www.w3.org/2000/svg">
<g clip-path="url(#clip0_2067_136)">
<line x1="386.574" y1="187.5" x2="386.574" y2="49.9434" stroke="#B5B5B5" stroke-linecap="round" stroke-dasharray="2 2"/>
<line x1="548.988" y1="259.247" x2="637.465" y2="162.576" stroke="#B5B5B5" stroke-linecap="round" stroke-dasharray="2 2"/>
<line x1="540.055" y1="525.863" x2="619.064" y2="604.873" stroke="#B5B5B5" stroke-linecap="round" stroke-dasharray="2 2"/>
<line x1="275.463" y1="527.685" x2="165.392" y2="605.699" stroke="#B5B5B5" stroke-linecap="round" stroke-dasharray="2 2"/>
<line x1="232.371" y1="266.769" x2="155.117" y2="170.104" stroke="#B5B5B5" stroke-linecap="round" stroke-dasharray="2 2"/>
<path d="M86.0195 127.563C86.9779 126.066 87.6667 124.718 88.0859 123.521C88.3255 122.922 88.5352 122.293 88.7148 121.634L89.8828 122.712C89.763 122.892 89.5833 123.161 89.3438 123.521C89.1641 123.76 89.0443 123.94 88.9844 124.06C88.8646 124.299 88.7148 124.569 88.5352 124.868C88.8346 124.868 89.224 124.838 89.7031 124.778C90.0026 124.778 90.2122 124.778 90.332 124.778L91.3203 124.688C91.3203 124.149 91.3203 123.64 91.3203 123.161C91.3203 122.323 91.2604 121.334 91.1406 120.196L92.668 120.825C92.4883 121.364 92.3984 122.173 92.3984 123.251C92.3984 123.371 92.3984 123.58 92.3984 123.88C92.3385 124.179 92.3086 124.419 92.3086 124.599L93.8359 124.509C94.4948 124.449 95.1237 124.329 95.7227 124.149L96.4414 125.138C95.6029 125.138 94.8542 125.168 94.1953 125.228L92.3086 125.407V127.833L95.0039 127.563C95.7227 127.504 96.4115 127.384 97.0703 127.204L97.8789 128.372C96.8607 128.372 96.0221 128.372 95.3633 128.372L92.3086 128.642V130.888L94.9141 130.708C95.3932 130.648 95.6927 130.409 95.8125 129.989L96.8008 130.618C96.5013 130.858 96.3516 131.247 96.3516 131.786C96.3516 132.804 96.2917 134.092 96.1719 135.649C96.1719 136.308 95.9323 136.817 95.4531 137.177C94.7943 136.458 93.9557 135.799 92.9375 135.2L93.207 134.751L95.2734 135.56C95.3333 134.781 95.3633 133.403 95.3633 131.427L92.3086 131.696C92.3086 133.972 92.3385 135.59 92.3984 136.548C92.3984 137.746 92.3984 138.884 92.3984 139.962C91.7995 139.782 91.2904 139.513 90.8711 139.153C91.1706 138.315 91.3203 137.416 91.3203 136.458C91.3203 135.979 91.3203 135.2 91.3203 134.122C91.3802 133.044 91.4102 132.235 91.4102 131.696L88.625 131.876V132.685V135.11C88.625 135.949 88.625 136.698 88.625 137.356C88.2057 137.177 87.7565 136.937 87.2773 136.638C87.3971 136.398 87.5169 135.889 87.6367 135.11C87.6367 135.05 87.6367 134.991 87.6367 134.931C87.6367 134.092 87.6367 133.313 87.6367 132.595C87.6367 132.355 87.6068 131.996 87.5469 131.517C87.5469 131.097 87.5169 130.768 87.457 130.528L88.625 131.067L91.4102 130.888V128.731L88.2656 129.001C87.7865 129.001 87.0078 129.121 85.9297 129.36L85.2109 128.282C85.5104 128.282 86.0195 128.252 86.7383 128.192C87.2773 128.192 87.6667 128.192 87.9062 128.192L91.4102 127.923C91.4102 127.024 91.3802 126.216 91.3203 125.497H90.6914C90.5716 125.497 90.362 125.527 90.0625 125.587C89.4635 125.707 89.0143 125.797 88.7148 125.856L88.3555 125.228C87.7565 126.246 87.1276 127.114 86.4688 127.833L86.0195 127.563ZM101.832 139.872C100.814 138.854 99.5859 137.806 98.1484 136.728L98.3281 136.278L101.742 137.626C101.742 136.368 101.742 134.212 101.742 131.157C101.802 127.563 101.832 124.928 101.832 123.251C101.832 122.532 101.772 121.514 101.652 120.196L103.359 120.915C103.12 121.634 103 122.502 103 123.521C102.88 127.953 102.82 132.265 102.82 136.458C102.88 138.375 102.551 139.513 101.832 139.872ZM99.5859 130.798C99.5859 132.056 99.5859 133.044 99.5859 133.763C99.0469 133.583 98.5977 133.343 98.2383 133.044C98.418 132.325 98.5378 131.517 98.5977 130.618C98.5977 129.241 98.5977 127.983 98.5977 126.845C98.5977 125.647 98.5378 124.718 98.418 124.06L99.8555 124.688C99.7357 125.228 99.6758 125.976 99.6758 126.935C99.6758 127.294 99.6758 127.863 99.6758 128.642C99.6159 129.6 99.5859 130.319 99.5859 130.798ZM123.844 139.423C123.904 139.363 123.934 139.273 123.934 139.153C123.993 139.034 124.023 138.944 124.023 138.884C123.305 138.884 122.646 138.914 122.047 138.974L119.352 139.063C119.352 139.483 119.352 139.872 119.352 140.231C118.753 139.992 118.333 139.752 118.094 139.513C118.094 139.393 118.124 139.213 118.184 138.974C118.243 138.494 118.303 138.015 118.363 137.536C118.363 137.177 118.363 136.578 118.363 135.739C118.423 133.882 118.423 132.625 118.363 131.966C118.363 131.067 118.333 130.349 118.273 129.81L119.441 130.349L123.754 130.079C124.173 130.079 124.503 129.84 124.742 129.36L125.73 129.989C125.431 130.349 125.281 130.768 125.281 131.247C125.281 133.343 125.281 135.5 125.281 137.716C125.281 138.494 125.221 139.423 125.102 140.501C124.622 140.261 124.203 139.902 123.844 139.423ZM111.355 123.161C111.355 123.401 111.355 123.67 111.355 123.97L117.645 123.61C117.645 122.951 117.645 122.353 117.645 121.813L115.668 121.993C114.77 122.113 113.931 122.233 113.152 122.353L112.613 121.274C113.751 121.274 114.68 121.244 115.398 121.185L121.148 120.825C121.268 120.825 121.448 120.795 121.688 120.735C122.466 120.675 123.065 120.586 123.484 120.466L124.203 121.544C122.885 121.544 121.987 121.574 121.508 121.634L118.633 121.813V123.521L125.371 123.071C125.85 123.131 126.299 122.922 126.719 122.442L127.797 123.61C127.497 123.73 127.168 123.97 126.809 124.329L125.461 126.036L125.012 125.856L125.73 123.88L118.633 124.329C118.633 125.347 118.633 126.246 118.633 127.024C118.633 127.264 118.633 127.653 118.633 128.192C118.693 128.791 118.723 129.241 118.723 129.54C118.243 129.42 117.794 129.211 117.375 128.911C117.555 128.192 117.645 127.563 117.645 127.024C117.645 126.425 117.645 125.557 117.645 124.419L111.266 124.778C111.146 125.677 110.846 126.545 110.367 127.384L109.379 126.216C110.098 125.317 110.607 124.269 110.906 123.071L111.355 123.161ZM124.203 130.888L119.441 131.157C119.441 131.397 119.441 131.696 119.441 132.056C119.441 132.116 119.441 132.265 119.441 132.505C119.382 132.685 119.352 132.834 119.352 132.954L121.418 132.774C121.957 132.774 122.466 132.685 122.945 132.505L123.574 133.493C123.335 133.493 122.945 133.523 122.406 133.583C122.047 133.583 121.807 133.583 121.688 133.583L119.352 133.763V135.38L121.238 135.2C121.598 135.2 122.137 135.11 122.855 134.931L123.574 135.919C122.616 135.919 121.927 135.949 121.508 136.009L119.352 136.099C119.352 136.638 119.352 137.177 119.352 137.716C119.352 137.896 119.352 138.075 119.352 138.255L121.867 138.165C121.987 138.165 122.167 138.135 122.406 138.075C122.885 138.015 123.245 137.955 123.484 137.896L124.023 138.704C124.143 138.225 124.203 137.776 124.203 137.356C124.203 135.2 124.203 133.044 124.203 130.888ZM114.77 129.36C114.71 129.6 114.65 130.019 114.59 130.618C114.53 130.918 114.5 131.127 114.5 131.247L115.129 131.157C115.788 131.097 116.417 130.978 117.016 130.798L117.734 131.876C116.536 131.876 115.758 131.906 115.398 131.966L114.5 132.056C114.5 132.415 114.5 132.804 114.5 133.224C114.68 133.284 114.919 133.403 115.219 133.583C115.758 133.763 116.536 134.122 117.555 134.661L117.016 135.919C116.477 135.38 115.608 134.691 114.41 133.853C114.41 135.23 114.41 136.488 114.41 137.626C114.35 138.105 114.35 138.824 114.41 139.782C114.41 140.201 114.41 140.531 114.41 140.771C113.751 140.591 113.242 140.291 112.883 139.872C113.122 139.273 113.272 138.494 113.332 137.536C113.332 137.057 113.362 136.308 113.422 135.29C113.422 134.332 113.422 133.643 113.422 133.224C112.224 135.14 110.607 136.847 108.57 138.345L108.211 137.985C110.247 136.069 111.805 134.122 112.883 132.146L112.074 132.235C111.775 132.235 111.266 132.325 110.547 132.505C110.367 132.565 110.217 132.595 110.098 132.595L109.469 131.606C109.768 131.606 110.158 131.576 110.637 131.517C111.236 131.517 111.625 131.487 111.805 131.427L113.512 131.337C113.512 130.438 113.452 129.6 113.332 128.821L114.77 129.36ZM123.934 127.204C124.413 127.204 124.892 127.144 125.371 127.024L126 128.013C125.641 127.953 125.132 127.953 124.473 128.013C124.293 128.013 124.173 128.013 124.113 128.013L121.688 128.192C121.029 128.192 120.46 128.282 119.98 128.462L119.441 127.474C120.22 127.474 120.879 127.474 121.418 127.474L123.934 127.204ZM114.5 127.743C115.099 127.743 115.578 127.653 115.938 127.474L116.566 128.462C116.267 128.402 115.878 128.402 115.398 128.462C115.099 128.462 114.889 128.462 114.77 128.462L112.703 128.642C112.583 128.642 112.404 128.672 112.164 128.731C111.745 128.791 111.355 128.851 110.996 128.911L110.547 128.013C110.786 128.013 111.146 127.983 111.625 127.923C112.044 127.923 112.344 127.923 112.523 127.923L114.5 127.743ZM114.949 125.856C115.069 125.856 115.189 125.826 115.309 125.767C115.668 125.707 115.967 125.647 116.207 125.587L116.746 126.485C116.147 126.485 115.638 126.515 115.219 126.575L113.062 126.755C112.523 126.755 112.134 126.815 111.895 126.935L111.355 126.036C112.014 126.036 112.553 126.036 112.973 126.036L114.949 125.856ZM122.945 125.317C123.365 125.317 123.754 125.257 124.113 125.138L124.652 126.036C124.113 126.036 123.634 126.036 123.215 126.036L121.328 126.216C120.969 126.216 120.549 126.276 120.07 126.396L119.621 125.497C120.1 125.497 120.609 125.497 121.148 125.497L122.945 125.317Z" fill="black"/>
<path d="M368.477 25.4258L368.207 24.9766C371.621 23.6589 374.257 21.9818 376.113 19.9453C375.934 19.7656 375.694 19.526 375.395 19.2266C375.215 18.987 374.766 18.5378 374.047 17.8789C373.867 17.6393 373.358 17.2201 372.52 16.6211L373.867 16.5312C374.047 16.8906 374.316 17.25 374.676 17.6094C374.915 17.7891 375.245 18.0885 375.664 18.5078C376.083 18.9271 376.413 19.2266 376.652 19.4062C377.79 17.9688 378.659 16.5312 379.258 15.0938L375.754 15.4531C374.915 15.5729 374.197 15.6927 373.598 15.8125L372.969 15.0039C371.052 19.1966 368.626 22.2513 365.691 24.168L365.422 23.8086C368.896 20.7539 371.352 16.8607 372.789 12.1289L370.004 12.3086C369.465 12.3086 368.986 12.4883 368.566 12.8477L367.578 11.6797C368.117 11.5599 368.447 11.2904 368.566 10.8711C368.866 10.332 369.105 9.64323 369.285 8.80469C369.285 8.74479 369.315 8.65495 369.375 8.53516C369.555 7.8763 369.674 7.30729 369.734 6.82812L370.992 7.72656C370.812 7.96615 370.633 8.32552 370.453 8.80469C370.333 9.04427 370.243 9.22396 370.184 9.34375C370.004 10.0625 369.764 10.7513 369.465 11.4102L373.059 11.1406C373.178 10.8411 373.298 10.362 373.418 9.70312C373.598 9.16406 373.717 8.77474 373.777 8.53516C374.077 7.21745 374.257 6.04948 374.316 5.03125L376.023 6.01953C375.544 7.09766 375.215 8.08594 375.035 8.98438C374.855 9.70312 374.646 10.3919 374.406 11.0508L380.066 10.6914C380.785 10.6315 381.714 10.5117 382.852 10.332C382.732 10.332 382.822 10.3021 383.121 10.2422L384.02 11.5C382.342 11.5 381.204 11.5299 380.605 11.5898L374.137 12.0391C373.777 12.9375 373.418 13.806 373.059 14.6445C374.017 14.6445 374.855 14.6146 375.574 14.5547L378.988 14.2852C379.467 14.2253 379.857 13.9557 380.156 13.4766L381.324 14.4648C380.905 14.8242 380.576 15.2435 380.336 15.7227C379.497 17.3997 378.539 18.8372 377.461 20.0352C377.88 20.4544 378.479 20.9935 379.258 21.6523C379.617 21.9518 379.887 22.1615 380.066 22.2812C381.145 23.1797 382.882 23.7487 385.277 23.9883L385.188 24.5273L380.516 24.7969C379.737 23.8984 378.599 22.6406 377.102 21.0234C376.982 20.9036 376.892 20.8138 376.832 20.7539C374.676 22.9701 371.891 24.5273 368.477 25.4258ZM378.629 6.37891L378.988 6.10938C380.186 6.82812 381.264 7.63672 382.223 8.53516L381.145 9.70312C380.845 9.16406 380.306 8.41536 379.527 7.45703C379.108 6.97786 378.809 6.61849 378.629 6.37891ZM402.707 8.44531C403.066 8.44531 403.546 8.35547 404.145 8.17578L404.863 9.16406C404.025 9.16406 403.396 9.19401 402.977 9.25391H402.348V11.6797L403.426 11.5898C404.204 10.5716 404.953 9.49349 405.672 8.35547C406.031 7.75651 406.391 7.09766 406.75 6.37891L407.828 7.63672C407.589 7.8763 407.259 8.26562 406.84 8.80469C406.72 8.98438 406.63 9.10417 406.57 9.16406C406.391 9.34375 406.181 9.64323 405.941 10.0625C405.762 10.3021 405.372 10.7812 404.773 11.5L406.211 11.3203C406.63 11.3203 407.319 11.2005 408.277 10.9609L409.176 12.0391C408.757 12.0391 408.158 12.069 407.379 12.1289C406.96 12.1289 406.69 12.1289 406.57 12.1289L404.055 12.3086C403.396 13.0872 402.707 13.806 401.988 14.4648L404.234 14.2852C404.773 14.2852 405.283 14.0755 405.762 13.6562L406.57 14.9141C406.51 14.974 406.391 15.0339 406.211 15.0938C405.911 15.2135 405.612 15.3932 405.312 15.6328L403.066 17.4297C403.246 17.7292 403.396 18.0586 403.516 18.418L405.762 18.2383C405.762 18.2383 405.792 18.2383 405.852 18.2383C406.51 18.1784 407.259 18.0286 408.098 17.7891L408.996 18.957C408.637 18.957 408.038 18.987 407.199 19.0469C406.66 19.0469 406.301 19.0469 406.121 19.0469L403.785 19.2266C404.025 20.5443 403.935 21.9818 403.516 23.5391C403.156 24.4375 402.707 25.0365 402.168 25.3359C401.509 24.4974 400.671 23.6289 399.652 22.7305L399.922 22.3711L402.348 23.4492C402.767 22.0716 402.887 20.694 402.707 19.3164L401 19.4062C400.281 19.4062 399.413 19.526 398.395 19.7656L397.766 18.6875C398.125 18.6875 398.634 18.6576 399.293 18.5977C400.072 18.5977 400.581 18.5677 400.82 18.5078L402.617 18.418C402.378 17.6992 402.078 17.0404 401.719 16.4414L402.168 16.1719C402.228 16.2318 402.348 16.3516 402.527 16.5312C402.647 16.651 402.737 16.7708 402.797 16.8906L404.414 15.0938L401.809 15.2734C401.749 15.2734 401.629 15.2734 401.449 15.2734C401.27 15.3333 401.12 15.3633 401 15.3633C400.042 16.2617 398.784 17.1901 397.227 18.1484L397.137 18.0586C397.137 19.2565 397.137 20.3646 397.137 21.3828C397.137 21.6224 397.107 22.0417 397.047 22.6406C397.047 23.2995 397.017 23.7487 396.957 23.9883C396.538 23.7487 396.148 23.3893 395.789 22.9102C395.849 22.8503 395.879 22.7305 395.879 22.5508C395.939 22.431 395.969 22.3411 395.969 22.2812C394.771 22.2812 394.052 22.3112 393.812 22.3711L390.488 22.5508C390.488 23.0898 390.488 23.569 390.488 23.9883C390.009 23.8685 389.59 23.6589 389.23 23.3594C389.41 22.6406 389.5 21.9219 389.5 21.2031C389.56 19.5859 389.59 16.8607 389.59 13.0273C389.59 12.6081 389.53 11.9492 389.41 11.0508C389.53 11.6497 389.53 11.5599 389.41 10.7812L390.578 11.3203L391.836 11.2305C391.836 10.332 391.836 9.40365 391.836 8.44531H391.566C391.027 8.44531 390.339 8.5651 389.5 8.80469L388.871 7.72656C390.129 7.72656 390.938 7.69661 391.297 7.63672L395.34 7.36719C395.819 7.36719 396.478 7.2474 397.316 7.00781L397.945 8.08594C396.747 8.08594 396.029 8.11589 395.789 8.17578H394.891C394.891 9.07422 394.861 10.0326 394.801 11.0508L395.879 10.9609C396.178 10.901 396.418 10.6615 396.598 10.2422L397.676 10.8711C397.376 11.2305 397.227 11.6198 397.227 12.0391C397.167 13.8359 397.137 15.6927 397.137 17.6094C397.257 17.5495 397.406 17.4297 397.586 17.25C398.185 16.7708 398.874 16.2018 399.652 15.543L399.113 14.6445C399.652 14.6445 400.161 14.6445 400.641 14.6445C401.359 13.9258 402.048 13.1771 402.707 12.3984L400.102 12.668C399.443 12.668 398.724 12.7878 397.945 13.0273L397.227 11.9492C397.646 11.9492 398.215 11.9193 398.934 11.8594C399.413 11.8594 399.712 11.8594 399.832 11.8594L401.359 11.7695C401.359 10.9909 401.359 10.1823 401.359 9.34375L400.551 9.43359C400.132 9.43359 399.592 9.52344 398.934 9.70312L398.395 8.71484C399.173 8.71484 399.832 8.71484 400.371 8.71484L401.359 8.53516V7.27734C401.359 6.85807 401.329 6.13932 401.27 5.12109C401.21 4.88151 401.18 4.70182 401.18 4.58203L402.707 5.30078C402.527 5.95964 402.408 6.61849 402.348 7.27734C402.348 7.63672 402.348 8.02604 402.348 8.44531H402.707ZM396.059 20.9336C396.118 20.2148 396.148 18.8372 396.148 16.8008C395.789 16.8607 395.4 16.8906 394.98 16.8906C394.082 16.9505 393.663 16.4714 393.723 15.4531C393.783 15.1536 393.812 14.5547 393.812 13.6562C393.872 12.8776 393.902 12.2786 393.902 11.8594L392.734 11.9492C392.674 14.2852 392.046 16.1419 390.848 17.5195L390.488 17.3398C390.488 18.8372 390.488 20.2747 390.488 21.6523V21.7422L393.723 21.5625C394.262 21.4427 394.861 21.3529 395.52 21.293L395.969 22.1016C396.029 21.7422 396.059 21.3529 396.059 20.9336ZM395.789 15.8125L396.148 16.6211C396.148 14.8242 396.148 13.1771 396.148 11.6797L394.801 11.8594C394.801 13.1172 394.801 14.3151 394.801 15.4531C394.741 15.8724 394.891 16.0521 395.25 15.9922C395.37 15.9922 395.549 15.9323 395.789 15.8125ZM390.578 13.207C390.578 14.7643 390.548 16.082 390.488 17.1602C391.327 15.7227 391.776 14.0156 391.836 12.0391L390.578 12.1289V13.207ZM393.902 11.0508C393.902 10.0326 393.902 9.10417 393.902 8.26562L392.734 8.35547C392.734 9.3138 392.734 10.2422 392.734 11.1406L393.902 11.0508ZM393.543 18.5078C393.842 18.5078 394.232 18.4479 394.711 18.3281C394.651 18.388 394.711 18.388 394.891 18.3281L395.43 19.1367C394.891 19.1367 394.411 19.1667 393.992 19.2266L392.824 19.3164C392.345 19.3763 391.926 19.4661 391.566 19.5859L391.027 18.7773C391.686 18.7174 392.165 18.6875 392.465 18.6875L393.543 18.5078Z" fill="black"/>
<path d="M660.953 129.426L660.684 128.977C664.098 127.659 666.733 125.982 668.59 123.945C668.41 123.766 668.171 123.526 667.871 123.227C667.691 122.987 667.242 122.538 666.523 121.879C666.344 121.639 665.835 121.22 664.996 120.621L666.344 120.531C666.523 120.891 666.793 121.25 667.152 121.609C667.392 121.789 667.721 122.089 668.141 122.508C668.56 122.927 668.889 123.227 669.129 123.406C670.267 121.969 671.135 120.531 671.734 119.094L668.23 119.453C667.392 119.573 666.673 119.693 666.074 119.812L665.445 119.004C663.529 123.197 661.103 126.251 658.168 128.168L657.898 127.809C661.372 124.754 663.828 120.861 665.266 116.129L662.48 116.309C661.941 116.309 661.462 116.488 661.043 116.848L660.055 115.68C660.594 115.56 660.923 115.29 661.043 114.871C661.342 114.332 661.582 113.643 661.762 112.805C661.762 112.745 661.792 112.655 661.852 112.535C662.031 111.876 662.151 111.307 662.211 110.828L663.469 111.727C663.289 111.966 663.109 112.326 662.93 112.805C662.81 113.044 662.72 113.224 662.66 113.344C662.48 114.062 662.241 114.751 661.941 115.41L665.535 115.141C665.655 114.841 665.775 114.362 665.895 113.703C666.074 113.164 666.194 112.775 666.254 112.535C666.553 111.217 666.733 110.049 666.793 109.031L668.5 110.02C668.021 111.098 667.691 112.086 667.512 112.984C667.332 113.703 667.122 114.392 666.883 115.051L672.543 114.691C673.262 114.632 674.19 114.512 675.328 114.332C675.208 114.332 675.298 114.302 675.598 114.242L676.496 115.5C674.819 115.5 673.681 115.53 673.082 115.59L666.613 116.039C666.254 116.938 665.895 117.806 665.535 118.645C666.493 118.645 667.332 118.615 668.051 118.555L671.465 118.285C671.944 118.225 672.333 117.956 672.633 117.477L673.801 118.465C673.382 118.824 673.052 119.243 672.812 119.723C671.974 121.4 671.016 122.837 669.938 124.035C670.357 124.454 670.956 124.993 671.734 125.652C672.094 125.952 672.363 126.161 672.543 126.281C673.621 127.18 675.358 127.749 677.754 127.988L677.664 128.527L672.992 128.797C672.214 127.898 671.076 126.641 669.578 125.023C669.458 124.904 669.368 124.814 669.309 124.754C667.152 126.97 664.367 128.527 660.953 129.426ZM671.105 110.379L671.465 110.109C672.663 110.828 673.741 111.637 674.699 112.535L673.621 113.703C673.322 113.164 672.783 112.415 672.004 111.457C671.585 110.978 671.285 110.618 671.105 110.379ZM684.672 120.711C685.031 120.591 685.271 120.352 685.391 119.992C685.51 119.872 685.6 119.633 685.66 119.273C685.72 119.214 685.75 119.154 685.75 119.094C685.81 118.914 685.9 118.465 686.02 117.746L687.188 118.555C687.068 118.674 686.948 118.854 686.828 119.094C686.768 119.273 686.708 119.393 686.648 119.453C686.589 119.812 686.499 120.112 686.379 120.352L693.207 119.902C693.207 118.645 693.207 117.477 693.207 116.398L688.895 116.668C688.415 116.668 687.757 116.758 686.918 116.938C686.738 116.997 686.589 117.027 686.469 117.027L685.84 115.859C687.038 115.859 687.936 115.859 688.535 115.859L694.555 115.5C695.453 115.44 696.322 115.29 697.16 115.051L697.969 116.219C697.669 116.219 697.1 116.249 696.262 116.309C695.723 116.309 695.393 116.309 695.273 116.309L694.285 116.398C694.285 117.477 694.285 118.645 694.285 119.902L695.992 119.723C696.891 119.723 697.729 119.573 698.508 119.273L699.406 120.531C697.669 120.531 696.621 120.561 696.262 120.621L694.285 120.711C694.225 121.549 694.225 122.837 694.285 124.574C694.285 125.233 694.285 125.712 694.285 126.012C694.345 127.629 694.016 128.677 693.297 129.156C692.398 128.258 691.141 127.329 689.523 126.371L689.793 125.922L693.117 127.09C693.177 125.952 693.207 123.855 693.207 120.801H692.848C690.332 124.095 686.678 126.701 681.887 128.617L681.617 128.168C685.93 126.072 689.164 123.646 691.32 120.891L686.648 121.16C686.229 121.16 685.84 121.34 685.48 121.699L684.672 120.711ZM688.086 109.121L689.613 109.57C689.553 109.87 689.523 110.379 689.523 111.098C689.523 111.337 689.553 111.607 689.613 111.906L693.836 111.637C693.956 111.337 694.046 111.008 694.105 110.648C694.105 110.529 694.135 110.319 694.195 110.02C694.315 109.361 694.405 108.882 694.465 108.582L695.902 109.391C695.663 109.93 695.453 110.469 695.273 111.008C695.154 111.188 695.094 111.367 695.094 111.547L696.441 111.457C697.16 111.457 698.029 111.307 699.047 111.008L699.945 112.176C699.286 112.176 698.328 112.236 697.07 112.355C697.969 112.236 697.879 112.236 696.801 112.355L694.734 112.445C694.315 113.404 693.866 114.302 693.387 115.141L692.938 114.961C693.237 114.122 693.477 113.314 693.656 112.535L689.613 112.715C689.613 112.895 689.643 113.014 689.703 113.074C689.703 113.493 689.733 114.062 689.793 114.781C689.853 114.961 689.883 115.111 689.883 115.23C689.883 115.23 689.853 115.23 689.793 115.23C689.194 115.111 688.775 114.961 688.535 114.781C688.595 114.242 688.625 113.643 688.625 112.984C688.625 112.924 688.625 112.865 688.625 112.805L686.828 112.895C686.109 112.954 685.331 113.074 684.492 113.254C684.312 113.314 684.193 113.344 684.133 113.344L683.414 112.176C683.833 112.176 684.432 112.146 685.211 112.086C685.87 112.086 686.349 112.086 686.648 112.086L688.535 111.996C688.535 111.876 688.505 111.697 688.445 111.457C688.445 111.277 688.445 111.158 688.445 111.098C688.385 110.499 688.266 109.84 688.086 109.121Z" fill="black"/>
<path d="M667.422 651.555L668.859 652.094C668.859 652.214 668.829 652.453 668.77 652.812C668.71 653.292 668.65 653.621 668.59 653.801L673.441 653.531C674.28 653.531 675.089 653.382 675.867 653.082L676.855 654.34C675.238 654.34 674.25 654.37 673.891 654.43L669.309 654.609C670.387 655.508 671.704 656.526 673.262 657.664C674.579 658.742 676.346 659.341 678.562 659.461L678.473 660L673.98 660.18C672.243 658.443 670.447 656.646 668.59 654.789C668.59 656.107 668.59 657.544 668.59 659.102C668.59 660.18 668.62 661.108 668.68 661.887C668.021 661.707 667.512 661.467 667.152 661.168C667.392 660.509 667.512 659.73 667.512 658.832C667.512 658.473 667.512 657.844 667.512 656.945C667.572 656.047 667.602 655.388 667.602 654.969C664.966 657.664 661.762 659.76 657.988 661.258L657.809 660.809C661.402 658.892 664.217 656.885 666.254 654.789L662.93 654.969C662.87 654.969 662.78 654.969 662.66 654.969C662.121 655.029 661.342 655.178 660.324 655.418L659.605 654.25C660.085 654.25 660.803 654.22 661.762 654.16C662.301 654.16 662.63 654.16 662.75 654.16L667.602 653.891C667.602 653.352 667.542 652.693 667.422 651.914C667.422 651.734 667.422 651.615 667.422 651.555ZM673.531 645.535C673.172 645.775 672.962 646.194 672.902 646.793C672.783 647.871 672.723 648.949 672.723 650.027C672.723 650.806 673.052 651.165 673.711 651.105C674.31 651.105 675.148 651.046 676.227 650.926V648.23L676.676 648.141C677.035 649.818 677.335 650.926 677.574 651.465C677.275 651.645 676.855 651.764 676.316 651.824C675.238 651.944 674.28 652.004 673.441 652.004C672.184 652.124 671.615 651.465 671.734 650.027C671.734 648.47 671.794 647.242 671.914 646.344L669.309 646.703C669.009 648.201 668.56 649.368 667.961 650.207C667.182 651.465 665.895 652.483 664.098 653.262L663.828 652.812C665.326 652.034 666.493 650.986 667.332 649.668C667.811 648.829 668.111 647.871 668.23 646.793C667.632 646.913 667.003 647.062 666.344 647.242L665.715 646.164C666.314 646.164 667.092 646.104 668.051 645.984H668.32C668.38 645.505 668.41 645.056 668.41 644.637C668.41 643.918 668.38 643.139 668.32 642.301L669.668 642.84C669.548 643.439 669.488 644.098 669.488 644.816C669.428 645.176 669.398 645.505 669.398 645.805L671.555 645.535C671.974 645.535 672.273 645.296 672.453 644.816L673.531 645.535ZM661.672 652.902C661.552 652.004 660.833 651.076 659.516 650.117L659.785 649.758L661.941 650.656C662.241 650.177 662.75 649.368 663.469 648.23C664.188 647.152 664.697 646.374 664.996 645.895L665.445 646.074C665.146 646.793 664.637 647.811 663.918 649.129C663.499 649.967 663.199 650.566 663.02 650.926C662.72 651.645 662.54 652.273 662.48 652.812L661.672 652.902ZM661.762 642.66C663.199 643.199 664.337 643.708 665.176 644.188L664.547 645.535C663.229 644.337 662.211 643.499 661.492 643.02L661.762 642.66ZM659.516 645.266C660.833 645.745 661.941 646.224 662.84 646.703L662.211 648.141C661.253 647.302 660.294 646.493 659.336 645.715L659.516 645.266ZM695.902 646.703C696.921 646.583 698.059 646.404 699.316 646.164L700.215 647.422C698.837 647.422 697.549 647.482 696.352 647.602L690.871 647.871L691.68 648.77C691.141 649.249 690.661 649.728 690.242 650.207C691.201 651.225 692.129 652.184 693.027 653.082C693.686 652.543 694.435 651.824 695.273 650.926C695.693 650.507 696.082 649.997 696.441 649.398L697.43 651.016C696.831 651.375 696.292 651.734 695.812 652.094C695.513 652.333 695.034 652.633 694.375 652.992C693.956 653.292 693.656 653.501 693.477 653.621C694.315 654.34 695.094 655.089 695.812 655.867C696.831 657.065 698.867 657.844 701.922 658.203L701.832 658.742L696.891 658.922C696.471 658.443 695.783 657.664 694.824 656.586C692.428 653.831 690.751 651.884 689.793 650.746C689.434 651.105 689.044 651.495 688.625 651.914C688.625 654.49 688.625 656.915 688.625 659.191L692.219 657.125L692.488 657.484C691.29 658.503 690.003 659.551 688.625 660.629C688.266 660.868 687.876 661.258 687.457 661.797L686.199 660.449C687.038 660.09 687.457 659.641 687.457 659.102C687.517 658.562 687.547 656.526 687.547 652.992C685.69 654.669 683.474 656.227 680.898 657.664L680.539 657.215C684.193 654.759 687.098 652.154 689.254 649.398C689.553 648.979 689.883 648.5 690.242 647.961L686.199 648.23C685.421 648.23 684.342 648.38 682.965 648.68L682.156 647.422C683.534 647.422 684.792 647.362 685.93 647.242L695.902 646.703ZM689.074 642.301L689.523 642.031C690.602 642.81 691.65 643.798 692.668 644.996L691.23 646.164C690.512 644.786 689.793 643.499 689.074 642.301Z" fill="black"/>
<path d="M100.977 636.898C101.935 635.401 102.624 634.053 103.043 632.855C103.283 632.257 103.492 631.628 103.672 630.969L104.84 632.047C104.72 632.227 104.54 632.496 104.301 632.855C104.121 633.095 104.001 633.275 103.941 633.395C103.822 633.634 103.672 633.904 103.492 634.203C103.792 634.203 104.181 634.173 104.66 634.113C104.96 634.113 105.169 634.113 105.289 634.113L106.277 634.023C106.277 633.484 106.277 632.975 106.277 632.496C106.277 631.658 106.217 630.669 106.098 629.531L107.625 630.16C107.445 630.699 107.355 631.508 107.355 632.586C107.355 632.706 107.355 632.915 107.355 633.215C107.296 633.514 107.266 633.754 107.266 633.934L108.793 633.844C109.452 633.784 110.081 633.664 110.68 633.484L111.398 634.473C110.56 634.473 109.811 634.503 109.152 634.562L107.266 634.742V637.168L109.961 636.898C110.68 636.839 111.368 636.719 112.027 636.539L112.836 637.707C111.818 637.707 110.979 637.707 110.32 637.707L107.266 637.977V640.223L109.871 640.043C110.35 639.983 110.65 639.743 110.77 639.324L111.758 639.953C111.458 640.193 111.309 640.582 111.309 641.121C111.309 642.139 111.249 643.427 111.129 644.984C111.129 645.643 110.889 646.152 110.41 646.512C109.751 645.793 108.913 645.134 107.895 644.535L108.164 644.086L110.23 644.895C110.29 644.116 110.32 642.738 110.32 640.762L107.266 641.031C107.266 643.307 107.296 644.924 107.355 645.883C107.355 647.081 107.355 648.219 107.355 649.297C106.757 649.117 106.247 648.848 105.828 648.488C106.128 647.65 106.277 646.751 106.277 645.793C106.277 645.314 106.277 644.535 106.277 643.457C106.337 642.379 106.367 641.57 106.367 641.031L103.582 641.211V642.02V644.445C103.582 645.284 103.582 646.033 103.582 646.691C103.163 646.512 102.714 646.272 102.234 645.973C102.354 645.733 102.474 645.224 102.594 644.445C102.594 644.385 102.594 644.326 102.594 644.266C102.594 643.427 102.594 642.648 102.594 641.93C102.594 641.69 102.564 641.331 102.504 640.852C102.504 640.432 102.474 640.103 102.414 639.863L103.582 640.402L106.367 640.223V638.066L103.223 638.336C102.743 638.336 101.965 638.456 100.887 638.695L100.168 637.617C100.467 637.617 100.977 637.587 101.695 637.527C102.234 637.527 102.624 637.527 102.863 637.527L106.367 637.258C106.367 636.359 106.337 635.551 106.277 634.832H105.648C105.529 634.832 105.319 634.862 105.02 634.922C104.421 635.042 103.971 635.132 103.672 635.191L103.312 634.562C102.714 635.581 102.085 636.449 101.426 637.168L100.977 636.898ZM116.789 649.207C115.771 648.189 114.543 647.141 113.105 646.062L113.285 645.613L116.699 646.961C116.699 645.703 116.699 643.547 116.699 640.492C116.759 636.898 116.789 634.263 116.789 632.586C116.789 631.867 116.729 630.849 116.609 629.531L118.316 630.25C118.077 630.969 117.957 631.837 117.957 632.855C117.837 637.288 117.777 641.6 117.777 645.793C117.837 647.71 117.508 648.848 116.789 649.207ZM114.543 640.133C114.543 641.391 114.543 642.379 114.543 643.098C114.004 642.918 113.555 642.678 113.195 642.379C113.375 641.66 113.495 640.852 113.555 639.953C113.555 638.576 113.555 637.318 113.555 636.18C113.555 634.982 113.495 634.053 113.375 633.395L114.812 634.023C114.693 634.562 114.633 635.311 114.633 636.27C114.633 636.629 114.633 637.198 114.633 637.977C114.573 638.935 114.543 639.654 114.543 640.133ZM136.195 630.879C135.956 631.658 135.806 632.466 135.746 633.305C135.746 633.544 135.746 633.934 135.746 634.473C135.686 635.132 135.656 635.641 135.656 636L138.891 635.91C139.609 635.97 140.059 635.701 140.238 635.102L141.316 635.73C141.017 636.21 140.867 636.749 140.867 637.348C140.867 637.827 140.867 639.145 140.867 641.301C140.807 643.637 140.777 645.074 140.777 645.613C140.777 646.452 140.717 647.53 140.598 648.848C140.598 648.788 140.598 648.848 140.598 649.027C140.059 648.728 139.639 648.339 139.34 647.859C139.34 647.74 139.37 647.68 139.43 647.68C138.112 647.62 137.034 647.62 136.195 647.68L126.852 647.949V649.297C126.253 649.117 125.773 648.848 125.414 648.488C125.654 647.65 125.773 646.751 125.773 645.793C125.773 643.757 125.773 641.361 125.773 638.605C125.773 638.126 125.743 637.348 125.684 636.27C125.624 636.03 125.594 635.82 125.594 635.641L126.852 636.359L130.535 636.18C130.535 635.161 130.535 634.293 130.535 633.574C130.535 632.796 130.475 631.807 130.355 630.609L131.883 631.238C131.703 631.897 131.613 632.706 131.613 633.664V636.18L134.578 636.09C134.578 635.73 134.608 635.221 134.668 634.562C134.668 633.964 134.668 633.514 134.668 633.215C134.668 632.017 134.638 631.029 134.578 630.25L136.195 630.879ZM135.566 640.852C135.626 640.852 135.716 640.852 135.836 640.852C136.315 640.792 136.974 640.642 137.812 640.402L138.531 641.57C137.513 641.57 136.615 641.6 135.836 641.66H135.477C135.477 642.259 135.447 643.188 135.387 644.445C135.387 645.523 135.387 646.302 135.387 646.781H135.926C136.884 646.781 137.812 646.661 138.711 646.422L139.43 647.5C139.609 646.841 139.699 646.092 139.699 645.254C139.699 644.535 139.729 643.098 139.789 640.941C139.789 638.785 139.789 637.378 139.789 636.719L135.656 636.898C135.596 638.156 135.566 639.474 135.566 640.852ZM126.852 645.973V647.051L130.625 646.961V641.84C130.565 641.84 130.475 641.84 130.355 641.84C129.936 641.9 129.277 642.02 128.379 642.199L127.75 641.121C128.169 641.121 128.798 641.091 129.637 641.031C130.116 641.031 130.415 641.031 130.535 641.031H130.625C130.625 640.552 130.595 639.863 130.535 638.965C130.535 638.126 130.535 637.497 130.535 637.078L126.852 637.258C126.852 637.677 126.852 638.126 126.852 638.605C126.852 641.421 126.852 643.876 126.852 645.973ZM131.613 641.84C131.613 643.577 131.613 645.254 131.613 646.871H134.309C134.368 646.332 134.398 645.464 134.398 644.266C134.458 643.128 134.488 642.259 134.488 641.66L131.613 641.84ZM134.488 640.852C134.488 640.432 134.518 639.773 134.578 638.875C134.578 638.036 134.578 637.408 134.578 636.988L131.613 637.078V641.031L134.488 640.852Z" fill="black"/>
<circle cx="396.504" cy="390.174" r="346.785" stroke="black"/>
<path d="M275.695 493.447C270.232 472.629 131.101 434.288 132.734 419.307C134.366 404.326 293.564 457.089 296.653 442.221C299.742 427.353 178.262 323.637 337.027 418.351C383.658 446.17 354.673 534.489 303.256 533.708C114.749 530.848 281.158 514.264 275.695 493.447Z" fill="url(#paint0_linear_2067_136)"/>
<path d="M298.228 413.224C305.446 392.948 212.115 282.873 221.905 271.417C231.696 259.961 333.477 393.259 344.408 382.717C355.339 372.175 313.428 218.039 391.212 385.749C414.059 435.007 340.345 491.634 298.308 462.016C144.193 353.427 291.01 433.501 298.228 413.224Z" fill="url(#paint1_linear_2067_136)"/>
<path d="M365.179 373.006C382.857 360.728 371.109 216.891 385.74 213.281C400.371 209.672 405.461 377.308 420.487 375.106C435.512 372.904 491.225 223.203 456.765 404.833C446.644 458.18 353.742 461.273 336.825 412.712C274.802 234.678 347.502 385.283 365.179 373.006Z" fill="url(#paint2_linear_2067_136)"/>
<path d="M443.318 382.53C464.768 384.298 547.181 265.827 560.768 272.347C574.354 278.867 471.667 411.469 484.663 419.325C497.658 427.182 635.86 347.091 493.753 465.338C452.014 500.069 378.355 443.372 396.184 395.138C461.55 218.304 421.868 380.761 443.318 382.53Z" fill="url(#paint3_linear_2067_136)"/>
<path d="M505.324 435.329C518.225 452.556 661.551 435.676 665.681 450.169C669.81 464.662 502.463 475.739 505.2 490.676C507.938 505.613 659.534 555.941 476.789 527.993C423.114 519.785 416.704 427.053 464.629 408.411C640.334 340.067 492.423 418.101 505.324 435.329Z" fill="url(#paint4_linear_2067_136)"/>
</g>
<defs>
<linearGradient id="paint0_linear_2067_136" x1="355.425" y1="490.225" x2="139.745" y2="401.982" gradientUnits="userSpaceOnUse">
<stop stop-color="#737373"/>
<stop offset="1" stop-color="#D9D9D9"/>
</linearGradient>
<linearGradient id="paint1_linear_2067_136" x1="365.909" y1="455.492" x2="237.46" y2="261.056" gradientUnits="userSpaceOnUse">
<stop stop-color="#737373"/>
<stop offset="1" stop-color="#D9D9D9"/>
</linearGradient>
<linearGradient id="paint2_linear_2067_136" x1="395.574" y1="446.785" x2="404.418" y2="213.92" gradientUnits="userSpaceOnUse">
<stop stop-color="#737373"/>
<stop offset="1" stop-color="#D9D9D9"/>
</linearGradient>
<linearGradient id="paint3_linear_2067_136" x1="419.851" y1="458.795" x2="574.776" y2="284.719" gradientUnits="userSpaceOnUse">
<stop stop-color="#737373"/>
<stop offset="1" stop-color="#D9D9D9"/>
</linearGradient>
<linearGradient id="paint4_linear_2067_136" x1="432.677" y1="468.34" x2="665.71" y2="468.858" gradientUnits="userSpaceOnUse">
<stop stop-color="#737373"/>
<stop offset="1" stop-color="#D9D9D9"/>
</linearGradient>
<clipPath id="clip0_2067_136">
<rect width="784" height="742" fill="white"/>
</clipPath>
</defs>
</svg>
