<svg width="784" height="742" viewBox="0 0 784 742" fill="none" xmlns="http://www.w3.org/2000/svg">
<line x1="459.749" y1="255.499" x2="535.887" y2="65.4993" stroke="#B5B5B5" stroke-linecap="round" stroke-dasharray="2 2"/>
<line x1="307.326" y1="241.431" x2="214.808" y2="85.7942" stroke="#B5B5B5" stroke-linecap="round" stroke-dasharray="2 2"/>
<line x1="604.86" y1="312.679" x2="726.137" y2="268.686" stroke="#B5B5B5" stroke-linecap="round" stroke-dasharray="2 2"/>
<line x1="191.427" y1="330.564" x2="49.7467" y2="313.875" stroke="#B5B5B5" stroke-linecap="round" stroke-dasharray="2 2"/>
<path d="M19.0781 305.672C21.4141 304.654 23.5404 303.576 25.457 302.438C25.457 302.318 25.457 302.139 25.457 301.899C25.3971 301.599 25.3672 301.36 25.3672 301.18L26.5352 301.809C26.7148 301.689 26.9844 301.51 27.3438 301.27C27.763 301.03 28.4219 300.611 29.3203 300.012L24.1992 300.372C24.1393 300.372 24.0794 300.372 24.0195 300.372C23.2409 300.431 22.2826 300.581 21.1445 300.821L20.3359 299.743C21.5938 299.743 22.8216 299.683 24.0195 299.563L28.6016 299.204V297.317L26.8945 297.407C26.3555 297.407 25.7266 297.497 25.0078 297.676L24.3789 296.598C25.457 296.598 26.2357 296.598 26.7148 296.598L28.6016 296.508V295.61C28.6016 295.43 28.5417 294.921 28.4219 294.083C28.362 293.663 28.332 293.364 28.332 293.184L29.8594 293.813C29.6797 294.352 29.5898 294.981 29.5898 295.7V296.418H30.1289C30.5482 296.418 31.1771 296.299 32.0156 296.059L32.7344 297.137C31.776 297.137 30.9674 297.137 30.3086 297.137L29.5898 297.227V299.114H30.5781C31.776 298.155 32.8841 297.137 33.9023 296.059C34.5013 295.46 35.0703 294.801 35.6094 294.083L36.5977 295.52C36.4779 295.64 36.2682 295.79 35.9688 295.969C35.4297 296.389 35.0104 296.718 34.7109 296.958C33.9323 297.676 33.1237 298.335 32.2852 298.934L36.0586 298.665C37.3164 298.485 38.2148 298.305 38.7539 298.125L39.7422 299.293C39.263 299.293 38.5742 299.323 37.6758 299.383C37.0768 299.383 36.6576 299.383 36.418 299.383L31.1172 299.833C30.2188 300.431 29.2904 301.06 28.332 301.719L33.0039 301.45C33.543 301.39 33.9023 301.18 34.082 300.821L35.0703 301.36C34.7109 301.719 34.5312 302.139 34.5312 302.618L34.3516 306.481L34.8906 307.379C33.9922 307.379 33.2435 307.379 32.6445 307.379L26.5352 307.649C26.5352 308.008 26.5352 308.368 26.5352 308.727C25.9961 308.607 25.5768 308.368 25.2773 308.008C25.3971 307.589 25.457 307.02 25.457 306.301C25.457 305.403 25.457 304.415 25.457 303.336C23.6003 304.355 21.5638 305.313 19.3477 306.211L19.0781 305.672ZM26.8945 302.618C26.8346 302.618 26.7747 302.648 26.7148 302.708C26.6549 302.708 26.5951 302.737 26.5352 302.797V303.157V304.325L30.1289 304.055C30.7279 304.055 31.3268 303.995 31.9258 303.875L32.6445 304.774C32.2852 304.774 31.806 304.804 31.207 304.864C30.8477 304.864 30.5781 304.864 30.3984 304.864L26.5352 305.043V306.481V306.93L32.2852 306.571C32.5846 306.571 32.9141 306.571 33.2734 306.571L33.543 302.168L26.8945 302.618ZM35.1602 308.188C36.3581 309.086 37.4661 310.165 38.4844 311.422L37.0469 312.68C36.6276 311.902 35.9688 310.704 35.0703 309.086C34.8906 308.787 34.7708 308.577 34.7109 308.458L35.1602 308.188ZM24.5586 308.458C24.4388 310.254 23.6003 311.812 22.043 313.129L21.4141 311.512C22.5521 310.793 23.4505 309.715 24.1094 308.278L24.5586 308.458ZM31.4766 308.458C32.2552 309.356 33.0039 310.464 33.7227 311.782L32.1055 312.59C31.8659 311.153 31.5065 309.835 31.0273 308.637L31.4766 308.458ZM27.4336 308.458C28.0924 309.476 28.6615 310.674 29.1406 312.051L27.5234 312.59C27.4635 311.872 27.3438 310.883 27.1641 309.625C27.1042 309.146 27.0443 308.787 26.9844 308.547L27.4336 308.458Z" fill="black"/>
<path d="M196.303 58.0444L196.752 57.8647C196.872 57.9246 197.021 58.0744 197.201 58.314C197.261 58.3739 197.321 58.4338 197.381 58.4937L200.076 56.5171L194.596 56.7866C194.117 56.7866 193.278 56.9064 192.08 57.146L191.451 56.0679C191.811 56.0679 192.41 56.0379 193.248 55.978C193.847 55.978 194.236 55.978 194.416 55.978L200.346 55.7085C200.885 55.6486 201.424 55.439 201.963 55.0796L202.592 56.2476C201.813 56.547 201.274 56.7866 200.975 56.9663L198.549 58.4038L200.436 60.2007C200.975 59.8413 201.574 59.3022 202.232 58.5835C202.771 58.0444 203.191 57.5952 203.49 57.2358L204.209 58.5835C204.029 58.6434 203.79 58.7632 203.49 58.9429C203.191 59.1226 202.951 59.2723 202.771 59.3921C202.532 59.5718 202.202 59.7814 201.783 60.021C201.304 60.3205 200.975 60.5301 200.795 60.6499C201.035 60.8895 201.424 61.2489 201.963 61.728C202.442 62.2072 202.801 62.5666 203.041 62.8062C203.82 63.7046 205.437 64.3035 207.893 64.603L207.803 65.0522L203.67 65.2319C202.891 64.3335 201.813 63.0457 200.436 61.3687C199.417 60.1108 198.669 59.2124 198.189 58.6733L197.74 58.9429C198.459 60.0809 198.669 61.5184 198.369 63.2554C198.249 63.8543 197.92 64.3634 197.381 64.7827C196.962 64.3035 196.123 63.6147 194.865 62.7163C194.805 62.6564 194.745 62.6265 194.686 62.6265L194.865 62.2671L197.381 63.1655C197.74 61.3088 197.381 59.6017 196.303 58.0444ZM193.967 50.228L195.404 50.5874C195.344 51.0666 195.314 51.5757 195.314 52.1147C195.314 52.2944 195.314 52.5041 195.314 52.7437L199.357 52.564C199.417 52.4442 199.447 52.3244 199.447 52.2046C199.507 52.0249 199.537 51.9051 199.537 51.8452C199.537 51.7254 199.567 51.5457 199.627 51.3062C199.747 50.6473 199.807 50.1382 199.807 49.7788L201.244 50.5874C200.945 51.0666 200.735 51.6056 200.615 52.2046L200.436 52.4741L202.861 52.3843C203.4 52.3843 204.269 52.2645 205.467 52.0249L206.275 53.1929C205.018 53.1929 203.999 53.1929 203.221 53.1929L200.166 53.3726C199.807 54.0913 199.447 54.8101 199.088 55.5288L198.549 55.3491C198.788 54.87 198.998 54.2111 199.178 53.3726L195.404 53.5522C195.404 53.6121 195.404 53.702 195.404 53.8218C195.404 54.0614 195.434 54.3908 195.494 54.8101C195.494 55.1694 195.494 55.439 195.494 55.6187C195.015 55.5588 194.596 55.439 194.236 55.2593C194.356 54.8999 194.416 54.3908 194.416 53.7319V53.5522L192.17 53.6421C191.691 53.6421 190.972 53.7319 190.014 53.9116C189.714 53.9715 189.505 54.0015 189.385 54.0015L188.756 52.9233C189.235 52.9233 190.014 52.8934 191.092 52.8335C191.571 52.8335 191.87 52.8335 191.99 52.8335L194.326 52.7437C194.326 52.5041 194.326 52.2645 194.326 52.0249C194.326 51.965 194.296 51.8452 194.236 51.6655C194.176 51.0067 194.087 50.5275 193.967 50.228ZM188.127 66.6694L187.857 66.3101C190.673 64.4533 192.799 62.327 194.236 59.9312L192.35 60.1108C191.691 60.1707 191.092 60.2905 190.553 60.4702L189.834 59.3921C190.972 59.3921 191.721 59.3621 192.08 59.3022L194.146 59.2124C194.686 59.1525 195.135 58.9129 195.494 58.4937L196.393 59.4819C195.854 59.7814 195.404 60.1707 195.045 60.6499C193.188 63.2853 190.882 65.2918 188.127 66.6694ZM199.178 64.7827C199.298 64.7827 199.507 64.7528 199.807 64.6929C200.525 64.5731 201.064 64.4832 201.424 64.4233L202.143 65.5015C201.184 65.5015 200.346 65.5015 199.627 65.5015L195.135 65.6812C194.656 65.6812 193.937 65.8009 192.979 66.0405L192.35 64.9624C193.368 64.9624 194.236 64.9325 194.955 64.8726L199.178 64.7827ZM202.951 65.9507C204.029 66.6694 205.107 67.5679 206.186 68.646L204.838 69.9937C204.299 68.9155 203.55 67.6577 202.592 66.2202L202.951 65.9507ZM191.721 66.3999C191.601 67.9572 190.792 69.2749 189.295 70.353L188.756 68.9155C189.774 68.4364 190.643 67.5379 191.361 66.2202L191.721 66.3999ZM198.729 66.2202C199.627 67.0588 200.406 68.0171 201.064 69.0952L199.627 69.9038C199.208 68.646 198.758 67.508 198.279 66.4897L198.729 66.2202ZM194.775 66.3999C194.835 66.4598 194.895 66.5197 194.955 66.5796C195.734 67.7176 196.273 68.646 196.572 69.3647L195.135 69.9937C194.895 68.8556 194.626 67.6877 194.326 66.4897L194.775 66.3999Z" fill="black"/>
<path d="M550.558 31.1539V33.5229H553.203V31.1539H550.558ZM549.109 29.7279H554.698V34.9719H549.109V29.7279ZM557.504 31.1539V33.5229H560.218V31.1539H557.504ZM556.055 29.7279H561.713V34.9719H556.055V29.7279ZM551.202 40.4689V42.2169H559.643V40.4689H551.202ZM551.202 37.4789V39.2039H559.643V37.4789H551.202ZM549.592 36.1679H561.299V43.5279H549.592V36.1679ZM548.327 45.1149H562.518V46.6559H548.327V45.1149ZM554.468 36.7429H556.147V50.0369H554.468V36.7429ZM544.371 29.1989H545.889V37.0189C545.889 41.6649 545.498 46.3799 542.209 50.0369C541.979 49.6919 541.45 49.1629 541.105 48.9099C544.072 45.5519 544.371 41.2049 544.371 37.0189V29.1989ZM542.393 33.6379L543.566 33.7989C543.566 35.9379 543.244 38.3529 542.301 39.7789L541.151 39.1809C542.002 37.9619 542.347 35.6849 542.393 33.6379ZM547.407 32.7639L548.833 33.3159C548.189 34.9029 547.453 36.8119 546.832 38.0539L545.774 37.5479C546.348 36.2829 547.062 34.1899 547.407 32.7639ZM545.475 41.9179C545.981 42.6079 547.844 45.7359 548.258 46.4489L547.062 47.5989C546.533 46.4259 545.015 43.6429 544.417 42.6539L545.475 41.9179Z" fill="black"/>
<path d="M762.477 263.146C763.135 263.146 763.884 263.026 764.723 262.787L765.621 263.955C765.142 263.955 764.483 263.985 763.645 264.044C763.165 264.044 762.866 264.044 762.746 264.044L758.613 264.314V268.447C758.613 269.225 758.613 270.184 758.613 271.322C757.895 271.082 757.355 270.813 756.996 270.513C757.296 269.794 757.445 269.046 757.445 268.267C757.505 267.429 757.535 266.141 757.535 264.404L754.031 264.583C753.253 264.643 752.474 264.763 751.695 264.943L750.977 263.775C752.654 263.775 753.582 263.745 753.762 263.685L757.445 263.505C757.445 263.146 757.385 262.607 757.266 261.888C757.385 262.367 757.385 262.307 757.266 261.708L757.805 261.888C758.883 260.271 759.661 258.774 760.141 257.396C760.201 257.216 760.29 256.917 760.41 256.498C760.53 256.138 760.62 255.869 760.68 255.689L761.938 256.677C761.698 257.156 761.428 257.576 761.129 257.935C761.129 257.995 761.069 258.085 760.949 258.205C760.889 258.384 760.829 258.504 760.77 258.564C761.848 259.283 762.806 259.972 763.645 260.63L762.836 261.888C762.776 261.768 762.656 261.619 762.477 261.439C761.938 260.78 761.279 260.001 760.5 259.103C759.901 260.121 759.152 261.11 758.254 262.068L758.793 262.248C758.733 262.367 758.703 262.577 758.703 262.876C758.643 263.116 758.613 263.296 758.613 263.416L762.477 263.146ZM747.293 270.244C747.293 269.106 746.424 267.878 744.688 266.56L744.957 266.111L747.473 267.279C747.892 266.201 748.551 264.524 749.449 262.248C750.168 260.511 750.707 259.163 751.066 258.205L751.695 258.384C751.276 259.822 750.467 262.307 749.27 265.841C749.09 266.56 748.94 267.069 748.82 267.369C748.521 268.447 748.371 269.345 748.371 270.064L747.293 270.244ZM761.219 254.611C761.578 254.611 762.267 254.521 763.285 254.341C762.566 254.461 762.656 254.431 763.555 254.251L764.363 255.33C763.944 255.33 763.285 255.36 762.387 255.419C761.908 255.419 761.608 255.419 761.488 255.419L754.93 255.958C754.51 255.958 753.882 256.048 753.043 256.228C752.863 256.288 752.714 256.318 752.594 256.318L751.965 255.24C752.384 255.24 752.983 255.21 753.762 255.15C754.241 255.15 754.54 255.15 754.66 255.15L761.219 254.611ZM751.875 262.337C753.013 261.02 753.941 259.462 754.66 257.666C754.9 257.126 755.109 256.587 755.289 256.048L756.547 257.037C756.367 257.216 756.158 257.516 755.918 257.935C755.858 258.055 755.798 258.145 755.738 258.205C755.618 258.264 755.559 258.354 755.559 258.474C755.618 258.474 755.678 258.504 755.738 258.564C756.637 259.223 757.355 259.792 757.895 260.271L756.996 261.349C756.397 260.451 755.828 259.642 755.289 258.923C754.391 260.301 753.372 261.559 752.234 262.697L751.875 262.337ZM745.496 257.306C746.993 257.965 748.221 258.624 749.18 259.283L748.371 260.81C747.353 259.672 746.305 258.654 745.227 257.755L745.496 257.306ZM756.547 250.837C757.745 251.556 758.733 252.425 759.512 253.443L758.164 254.611C757.625 253.413 756.966 252.245 756.188 251.107L756.547 250.837ZM747.293 252.275C748.671 252.934 749.839 253.593 750.797 254.251L749.809 255.689C749.21 254.91 748.251 253.892 746.934 252.634L747.293 252.275Z" fill="black"/>
<circle cx="396.594" cy="371.285" r="346.785" stroke="black"/>
<path d="M150.709 387.386C160.557 404.268 182.026 444.657 386.579 492.775L393.852 480.179C295.463 291.813 220.448 256.898 199.28 283.866C185.48 301.446 204.603 303.734 200.967 310.033C197.539 315.971 171.9 287.653 163.978 311.071C155.868 335.045 189.646 353.883 167.115 349.272C144.585 344.661 137.956 365.525 150.709 387.386Z" fill="url(#paint0_linear_2067_117)"/>
<path d="M255.518 275.125C253.902 294.602 248.322 340 388.283 496.744L401.465 490.597C428.913 279.863 387.49 208.235 354.682 218.185C333.294 224.671 347.647 237.514 341.056 240.587C334.841 243.485 330.082 205.583 310.161 220.222C289.766 235.209 306.631 270.014 290.819 253.314C275.007 236.614 257.61 249.902 255.518 275.125Z" fill="url(#paint1_linear_2067_117)"/>
<path d="M387.41 228C376.273 244.06 348.741 280.586 391.578 486.31L406.068 487.578C535.206 318.801 535.146 236.058 501.759 228.271C479.994 223.194 486.002 241.493 478.757 240.859C471.926 240.261 486.756 205.057 462.184 207.774C437.028 210.556 434.231 249.13 428.888 226.762C423.544 204.393 401.834 207.203 387.41 228Z" fill="url(#paint2_linear_2067_117)"/>
<path d="M533.459 265.926C515.124 272.693 471.621 286.822 388.713 479.912L399.855 489.262C602.445 425.078 649.855 357.265 626.973 331.735C612.056 315.092 606.482 333.528 600.91 328.853C595.658 324.446 627.998 304.114 606.311 292.246C584.109 280.096 559.693 310.09 568.146 288.702C576.599 267.314 557.203 257.163 533.459 265.926Z" fill="url(#paint3_linear_2067_117)"/>
<defs>
<linearGradient id="paint0_linear_2067_117" x1="157.942" y1="320.635" x2="403.958" y2="462.673" gradientUnits="userSpaceOnUse">
<stop stop-color="#D9D9D9"/>
<stop offset="1" stop-color="#737373"/>
</linearGradient>
<linearGradient id="paint1_linear_2067_117" x1="299.73" y1="224.594" x2="419.785" y2="482.054" gradientUnits="userSpaceOnUse">
<stop stop-color="#D9D9D9"/>
<stop offset="1" stop-color="#737373"/>
</linearGradient>
<linearGradient id="paint2_linear_2067_117" x1="450.964" y1="206.346" x2="426.206" y2="489.34" gradientUnits="userSpaceOnUse">
<stop stop-color="#D9D9D9"/>
<stop offset="1" stop-color="#737373"/>
</linearGradient>
<linearGradient id="paint3_linear_2067_117" x1="597.94" y1="284.641" x2="415.34" y2="502.255" gradientUnits="userSpaceOnUse">
<stop stop-color="#D9D9D9"/>
<stop offset="1" stop-color="#737373"/>
</linearGradient>
</defs>
</svg>
