<svg width="784" height="742" viewBox="0 0 784 742" fill="none" xmlns="http://www.w3.org/2000/svg">
<path d="M530.875 233.578L630.875 133.578" stroke="#B5B5B5" stroke-linecap="round" stroke-dasharray="2 2"/>
<path d="M333.754 168.534L303.9 53.9434" stroke="#B5B5B5" stroke-linecap="round" stroke-dasharray="2 2"/>
<path d="M493.809 594.473L527.201 697.57" stroke="#B5B5B5" stroke-linecap="round" stroke-dasharray="2 2"/>
<path d="M268.414 555.916L198.44 625.89" stroke="#B5B5B5" stroke-linecap="round" stroke-dasharray="2 2"/>
<path d="M189.301 342.816L68.9727 333.984" stroke="#B5B5B5" stroke-linecap="round" stroke-dasharray="2 2"/>
<path d="M633 415.826L750.318 445.813" stroke="#B5B5B5" stroke-linecap="round" stroke-dasharray="2 2"/>
<path d="M675.492 101.555H675.941C676.181 103.172 676.57 104.67 677.109 106.047C676.81 106.407 676.301 106.616 675.582 106.676C674.863 106.796 673.576 106.856 671.719 106.856C669.922 106.916 669.053 106.017 669.113 104.161C669.113 103.142 669.113 101.046 669.113 97.8716C669.173 94.0981 669.203 91.4927 669.203 90.0552C669.263 89.3364 669.203 88.3481 669.023 87.0903L670.641 87.7192C670.461 88.438 670.371 89.2166 670.371 90.0552C670.311 91.1333 670.281 93.4692 670.281 97.063C671.898 97.7218 673.486 98.5005 675.043 99.3989L674.324 101.016C673.007 99.8781 671.659 98.77 670.281 97.6919C670.281 98.7101 670.251 100.118 670.191 101.915C670.191 102.993 670.191 103.711 670.191 104.071C670.132 105.209 670.641 105.748 671.719 105.688C672.617 105.748 673.815 105.718 675.312 105.598L675.492 101.555ZM663.453 96.0747L663.723 96.4341C663.483 96.6138 663.034 96.9132 662.375 97.3325C661.836 97.6919 661.417 97.9614 661.117 98.1411V104.34C661.117 105.838 660.818 106.826 660.219 107.305C659.5 106.586 658.332 105.568 656.715 104.25L656.984 103.801L659.949 104.969C659.949 104.73 659.949 104.191 659.949 103.352C660.009 102.214 660.039 101.405 660.039 100.926C660.039 100.208 660.039 99.4888 660.039 98.77C659.919 98.8299 659.68 98.9497 659.32 99.1294C659.021 99.3091 658.781 99.4588 658.602 99.5786C658.062 99.8182 657.583 100.178 657.164 100.657L655.906 99.5786C656.026 99.5187 656.266 99.4289 656.625 99.3091C656.805 99.1893 657.254 98.9797 657.973 98.6802C658.632 98.3807 659.32 98.0513 660.039 97.6919C660.039 96.5539 660.039 95.4458 660.039 94.3677L658.871 94.5474C658.452 94.6073 657.883 94.7271 657.164 94.9067C656.984 94.9666 656.865 94.9966 656.805 94.9966L656.086 93.9185C656.924 93.9185 657.733 93.8586 658.512 93.7388L660.039 93.5591C660.039 92.5409 660.039 91.6424 660.039 90.8638C660.039 89.6659 659.949 88.5278 659.77 87.4497L661.387 88.1685C661.207 89.0669 661.117 89.9953 661.117 90.9536C661.117 91.7323 661.117 92.5409 661.117 93.3794C661.177 93.3794 661.267 93.3794 661.387 93.3794C661.686 93.3195 662.105 93.1997 662.645 93.02L663.453 94.0083C663.273 94.0083 663.064 94.0382 662.824 94.0981C662.225 94.158 661.686 94.188 661.207 94.188L661.117 94.2778V97.2427C661.477 97.063 662.016 96.7935 662.734 96.4341C663.034 96.2544 663.273 96.1346 663.453 96.0747ZM661.566 99.8481C661.686 99.7882 661.866 99.6984 662.105 99.5786C662.285 99.4588 662.704 99.2492 663.363 98.9497C663.543 98.8299 663.872 98.6203 664.352 98.3208C665.19 97.8416 665.789 97.4823 666.148 97.2427C666.268 95.9849 666.328 93.7687 666.328 90.5942C666.328 90.4146 666.298 90.175 666.238 89.8755C666.178 88.9771 666.089 88.1984 665.969 87.5396L667.586 88.1685C667.466 89.1268 667.406 89.9653 667.406 90.6841C667.406 93.0799 667.376 94.8169 667.316 95.895C667.257 97.2127 667.167 98.3807 667.047 99.3989C666.807 103.172 665.19 105.898 662.195 107.575L661.836 107.215C664.352 105.119 665.759 102.484 666.059 99.3091C666.059 99.1893 666.059 99.0096 666.059 98.77C666.118 98.4705 666.148 98.231 666.148 98.0513C665.849 98.3507 665.4 98.7401 664.801 99.2192C664.501 99.5187 664.262 99.7284 664.082 99.8481C663.603 100.208 663.214 100.597 662.914 101.016L661.566 99.8481ZM670.82 95.5356C671.539 94.6971 672.168 93.8586 672.707 93.02C672.827 92.8403 672.977 92.5708 673.156 92.2114C673.396 91.9119 673.546 91.6724 673.605 91.4927L674.773 92.9302C674.654 93.05 674.474 93.2297 674.234 93.4692C673.935 93.7088 673.725 93.8885 673.605 94.0083C672.827 94.6073 672.018 95.2362 671.18 95.895L670.82 95.5356ZM662.914 92.2114L663.273 91.9419C664.292 92.7804 665.19 93.7987 665.969 94.9966L664.801 95.9849C664.202 94.5474 663.573 93.2896 662.914 92.2114Z" fill="black"/>
<path d="M759.426 455.5L759.695 455.051L762.66 456.129C762.66 455.35 762.69 454.212 762.75 452.715C762.75 451.158 762.75 450.02 762.75 449.301L759.516 449.57C759.156 449.57 758.767 449.72 758.348 450.02L757.539 448.852C758.198 448.732 758.557 448.552 758.617 448.312C758.797 447.773 759.036 447.174 759.336 446.516C759.096 446.516 758.707 446.576 758.168 446.695C757.928 446.755 757.749 446.785 757.629 446.785L757 445.797C757.898 445.797 758.767 445.737 759.605 445.617C759.965 444.839 760.264 443.97 760.504 443.012L759.875 443.102C759.216 443.161 758.438 443.281 757.539 443.461L756.91 442.383C757.27 442.383 757.839 442.353 758.617 442.293C759.096 442.293 759.426 442.293 759.605 442.293L760.863 442.203C760.923 441.964 761.013 441.634 761.133 441.215C761.253 440.796 761.342 440.466 761.402 440.227C761.642 439.328 761.852 438.46 762.031 437.621L763.559 438.789C763.439 439.029 763.229 439.448 762.93 440.047C762.81 440.406 762.69 440.676 762.57 440.855C762.451 441.215 762.301 441.604 762.121 442.023L764.906 441.844C764.966 441.844 765.086 441.814 765.266 441.754C766.104 441.694 766.733 441.574 767.152 441.395L767.961 442.562C766.883 442.562 766.014 442.592 765.355 442.652L761.762 442.922C761.402 443.82 761.043 444.689 760.684 445.527L762.391 445.348C762.81 445.348 763.109 445.108 763.289 444.629L764.367 445.258C764.008 445.617 763.828 446.007 763.828 446.426C763.828 446.605 763.828 446.905 763.828 447.324C763.768 447.743 763.738 448.073 763.738 448.312L765.535 448.223C766.194 448.163 766.823 448.013 767.422 447.773L768.23 448.941C767.751 448.882 767.062 448.882 766.164 448.941C765.984 448.941 765.865 448.941 765.805 448.941L763.738 449.211C763.738 451.427 763.738 453.613 763.738 455.77C763.738 457.087 763.469 457.986 762.93 458.465C762.271 457.806 761.103 456.818 759.426 455.5ZM756.91 446.695L757.09 447.055C756.73 447.354 756.102 447.743 755.203 448.223C754.964 448.402 754.784 448.522 754.664 448.582C754.664 450.678 754.664 452.625 754.664 454.422C754.724 456.219 754.395 457.327 753.676 457.746C752.717 456.668 751.549 455.62 750.172 454.602L750.352 454.152L753.406 455.32C753.526 454.062 753.586 452.685 753.586 451.188C753.586 450.529 753.586 449.84 753.586 449.121C753.406 449.241 753.047 449.421 752.508 449.66C752.148 449.84 751.879 449.99 751.699 450.109C751.22 450.349 750.711 450.708 750.172 451.188L749.004 450.02C749.723 449.72 750.411 449.451 751.07 449.211C751.969 448.852 752.837 448.492 753.676 448.133C753.676 447.055 753.676 445.977 753.676 444.898L751.969 445.168C751.19 445.288 750.501 445.467 749.902 445.707L749.184 444.629C749.842 444.629 750.651 444.539 751.609 444.359L753.676 444.09V441.664C753.676 440.286 753.586 439.148 753.406 438.25L755.113 439.059C754.934 439.717 754.844 440.676 754.844 441.934C754.784 442.473 754.754 443.132 754.754 443.91C755.413 443.79 756.012 443.611 756.551 443.371L757.359 444.449C756.461 444.509 755.712 444.599 755.113 444.719L754.754 444.809C754.754 445.707 754.724 446.665 754.664 447.684C755.023 447.564 755.533 447.354 756.191 447.055C756.491 446.875 756.73 446.755 756.91 446.695ZM765.176 450.469C766.434 451.307 767.991 452.625 769.848 454.422L768.859 455.859C768.68 455.62 768.41 455.26 768.051 454.781C766.553 452.865 765.475 451.547 764.816 450.828L765.176 450.469ZM755.652 456.398L755.293 456.039C756.671 454.781 757.809 453.493 758.707 452.176C759.066 451.697 759.426 451.128 759.785 450.469L760.773 451.727C760.714 451.786 760.594 451.906 760.414 452.086C760.294 452.206 760.025 452.475 759.605 452.895C758.467 454.212 757.15 455.38 755.652 456.398ZM760.324 446.336C760.145 446.875 759.845 447.594 759.426 448.492C759.366 448.612 759.336 448.702 759.336 448.762L762.75 448.492C762.75 447.654 762.75 446.875 762.75 446.156L760.324 446.336Z" fill="black"/>
<path d="M540.109 714.178C540.229 714.178 540.379 714.149 540.559 714.089C541.337 714.029 541.906 713.939 542.266 713.819L542.984 714.807C542.685 714.807 542.206 714.837 541.547 714.897C541.008 714.897 540.648 714.897 540.469 714.897L538.312 715.077C538.911 715.496 539.48 715.975 540.02 716.514L539.75 716.874L540.828 717.323C540.648 717.802 540.559 718.401 540.559 719.12C540.618 719.12 540.738 719.09 540.918 719.03C541.337 718.97 541.667 718.88 541.906 718.76L542.625 719.749C542.625 719.629 542.595 719.419 542.535 719.12C542.535 718.88 542.505 718.701 542.445 718.581L543.613 719.12L545.77 719.03V718.311C545.77 717.712 545.71 716.934 545.59 715.975L547.027 716.514C546.848 717.113 546.758 717.742 546.758 718.401V718.94L549.094 718.76C549.573 718.701 549.962 718.461 550.262 718.042L551.25 719.03C550.831 719.27 550.501 719.539 550.262 719.839L549.094 721.366L548.734 721.186L549.363 719.479L546.758 719.659V722.444L548.195 722.354C548.615 722.354 548.914 722.115 549.094 721.635L550.172 722.444C549.812 722.803 549.543 723.193 549.363 723.612C548.824 724.99 548.195 726.218 547.477 727.296C548.016 727.895 548.615 728.524 549.273 729.182C549.872 729.781 551.01 730.26 552.688 730.62L552.598 731.069L549.273 731.249C548.854 730.65 548.285 729.841 547.566 728.823C547.267 728.464 547.057 728.194 546.938 728.014C545.68 729.632 544.033 730.949 541.996 731.968L541.727 731.608C543.703 730.29 545.23 728.823 546.309 727.206C546.189 727.026 545.979 726.757 545.68 726.397C545.26 725.918 544.991 725.559 544.871 725.319C544.512 724.96 544.152 724.6 543.793 724.241L544.871 724.151C545.051 724.51 545.26 724.84 545.5 725.139C545.56 725.199 545.62 725.289 545.68 725.409C545.979 725.768 546.339 726.158 546.758 726.577C547.417 725.499 547.956 724.331 548.375 723.073L545.859 723.253C545.32 723.313 544.751 723.432 544.152 723.612L543.613 722.624C544.632 722.624 545.26 722.594 545.5 722.534H545.77V719.749L543.613 719.928V720.737C543.613 723.792 543.404 726.038 542.984 727.475C542.565 729.033 541.757 730.5 540.559 731.878L540.199 731.608C540.798 730.65 541.277 729.751 541.637 728.913L540.648 729.901C540.049 728.943 539.421 728.014 538.762 727.116L539.031 726.757C540.049 727.415 540.918 728.104 541.637 728.823C541.936 727.984 542.146 727.176 542.266 726.397C541.547 726.397 540.828 726.397 540.109 726.397L535.527 726.757C534.809 726.757 534.09 726.876 533.371 727.116L532.742 726.038C533.76 726.038 534.599 726.008 535.258 725.948H535.617C535.677 724.69 535.707 722.774 535.707 720.198C535.108 720.198 534.479 720.288 533.82 720.468L533.281 719.479C533.521 719.479 533.97 719.449 534.629 719.389C535.108 719.389 535.408 719.389 535.527 719.389H535.707C535.587 718.311 535.527 717.503 535.527 716.964L536.875 717.503C536.755 718.102 536.695 718.701 536.695 719.3L539.57 719.12C539.57 718.88 539.54 718.521 539.48 718.042C539.48 717.622 539.48 717.323 539.48 717.143L539.031 717.593C538.911 717.353 538.762 717.053 538.582 716.694C538.223 715.975 537.923 715.466 537.684 715.167L536.426 715.257C535.467 716.694 534.449 717.892 533.371 718.85L533.012 718.491C534.329 716.814 535.467 714.957 536.426 712.921C536.725 712.382 536.965 711.783 537.145 711.124L538.402 712.292C538.223 712.471 537.983 712.771 537.684 713.19C537.564 713.43 537.474 713.58 537.414 713.639C537.294 713.939 537.145 714.178 536.965 714.358L540.109 714.178ZM548.914 716.245L547.926 717.323C547.566 716.664 546.967 715.796 546.129 714.718L544.422 714.897C543.643 715.915 542.835 716.844 541.996 717.682L541.547 717.413C542.745 715.796 543.703 714.208 544.422 712.651C544.482 712.531 544.572 712.322 544.691 712.022C544.871 711.483 544.991 711.094 545.051 710.854L546.398 711.932C546.279 712.052 546.099 712.292 545.859 712.651C545.68 712.951 545.53 713.16 545.41 713.28C545.29 713.58 545.141 713.819 544.961 713.999L548.375 713.729C548.435 713.729 548.495 713.729 548.555 713.729C549.453 713.609 550.112 713.49 550.531 713.37L551.34 714.448C550.022 714.448 549.184 714.478 548.824 714.538L546.848 714.718C547.566 715.137 548.255 715.646 548.914 716.245ZM537.234 722.175H536.605V723.432H537.055C537.594 723.313 538.193 723.223 538.852 723.163L539.48 724.061C538.522 724.061 537.803 724.091 537.324 724.151H536.605V725.858L539.57 725.678C539.57 723.702 539.57 721.785 539.57 719.928L536.605 720.108V721.456H537.055C537.234 721.456 537.564 721.396 538.043 721.276C538.342 721.216 538.582 721.186 538.762 721.186L539.391 722.085C539.031 722.085 538.552 722.115 537.953 722.175C537.594 722.175 537.354 722.175 537.234 722.175ZM542.625 720.557C542.625 720.318 542.625 720.048 542.625 719.749C541.727 719.809 541.038 719.839 540.559 719.839C540.559 721.635 540.559 723.552 540.559 725.589C540.678 725.589 540.948 725.559 541.367 725.499C541.128 725.559 541.217 725.529 541.637 725.409L542.266 726.307C542.565 725.289 542.685 723.372 542.625 720.557ZM533.461 731.788L533.102 731.518C534.18 730.26 534.988 729.152 535.527 728.194C535.767 727.835 536.066 727.356 536.426 726.757L537.414 727.835C537.354 727.895 537.294 727.955 537.234 728.014C537.055 728.314 536.785 728.643 536.426 729.003C535.647 729.961 534.659 730.889 533.461 731.788Z" fill="black"/>
<path d="M170.555 658.473C170.615 658.473 170.734 658.443 170.914 658.383C171.633 658.323 172.232 658.203 172.711 658.023L173.52 659.191C172.142 659.191 171.303 659.221 171.004 659.281L168.039 659.461V661.707L170.914 661.527C171.333 661.527 171.663 661.288 171.902 660.809L172.891 661.438C172.591 661.797 172.441 662.156 172.441 662.516C172.382 663.294 172.352 664.941 172.352 667.457C172.232 668.176 171.992 668.685 171.633 668.984C171.094 668.445 170.165 667.786 168.848 667.008L169.027 666.559L171.273 667.277C171.333 666.499 171.363 664.852 171.363 662.336L168.039 662.516V668.895C168.039 669.254 168.069 669.793 168.129 670.512C168.129 671.111 168.129 671.56 168.129 671.859C167.59 671.74 167.081 671.5 166.602 671.141C166.841 670.362 166.991 669.523 167.051 668.625C167.051 667.188 167.051 665.181 167.051 662.605L164.266 662.785V663.324C164.266 664.462 164.266 665.54 164.266 666.559V668.715C164.206 668.715 164.146 668.685 164.086 668.625C163.487 668.445 163.128 668.266 163.008 668.086C163.188 667.427 163.277 666.858 163.277 666.379C163.277 665.361 163.277 664.283 163.277 663.145C163.277 662.605 163.247 662.007 163.188 661.348L164.266 661.887L167.051 661.797C167.051 660.898 167.051 660.12 167.051 659.461L165.254 659.641C164.595 659.641 163.846 659.76 163.008 660L162.379 658.922C162.678 658.922 163.188 658.892 163.906 658.832C164.385 658.832 164.715 658.832 164.895 658.832L170.555 658.473ZM170.555 654.16C171.333 654.16 172.082 654.01 172.801 653.711L173.52 654.879C172.262 654.879 171.363 654.909 170.824 654.969L168.578 655.148C168.938 655.448 169.417 655.867 170.016 656.406C170.315 656.706 170.555 656.915 170.734 657.035L169.656 658.113C168.997 656.975 168.398 656.017 167.859 655.238L166.512 655.418C165.673 656.796 164.835 657.904 163.996 658.742L163.637 658.473C164.595 657.035 165.523 655.298 166.422 653.262C166.482 653.142 166.572 652.932 166.691 652.633C166.931 652.034 167.081 651.555 167.141 651.195L168.398 652.453C167.919 653.052 167.59 653.531 167.41 653.891C167.41 653.951 167.35 654.04 167.23 654.16C167.171 654.34 167.111 654.46 167.051 654.52L170.555 654.16ZM162.379 654.879C162.439 654.879 162.559 654.849 162.738 654.789C163.397 654.729 163.906 654.639 164.266 654.52L164.984 655.598C163.966 655.598 163.128 655.628 162.469 655.688L161.121 655.777C161.78 656.316 162.319 656.885 162.738 657.484L161.75 658.383C161.57 657.964 161.301 657.424 160.941 656.766C160.702 656.346 160.522 656.017 160.402 655.777L159.055 655.957C158.036 657.514 156.988 658.832 155.91 659.91L155.551 659.641C156.809 658.143 158.007 656.077 159.145 653.441C159.145 653.382 159.174 653.292 159.234 653.172C159.414 652.812 159.594 652.184 159.773 651.285L161.121 652.363C160.762 652.902 160.462 653.411 160.223 653.891C160.163 653.951 160.103 654.07 160.043 654.25C159.923 654.43 159.743 654.699 159.504 655.059L162.379 654.879ZM156.27 671.32C158.007 670.062 159.145 668.505 159.684 666.648C160.103 665.331 160.312 663.354 160.312 660.719C160.312 660.419 160.283 660 160.223 659.461C160.223 658.862 160.193 658.443 160.133 658.203L161.57 658.832C161.451 659.132 161.391 659.611 161.391 660.27C161.331 660.509 161.301 660.689 161.301 660.809C161.301 663.624 161.091 665.66 160.672 666.918C160.013 669.014 158.635 670.632 156.539 671.77L156.27 671.32ZM158.336 660C158.216 660.299 158.156 660.868 158.156 661.707V664.223C158.156 665.241 158.186 666.02 158.246 666.559C158.186 666.559 158.096 666.529 157.977 666.469C157.438 666.289 157.078 666.109 156.898 665.93C156.958 665.63 157.018 665.241 157.078 664.762C157.138 664.522 157.168 664.342 157.168 664.223C157.168 663.324 157.168 662.456 157.168 661.617C157.168 661.318 157.138 660.958 157.078 660.539C157.078 660.06 157.048 659.701 156.988 659.461L158.336 660Z" fill="black"/>
<path d="M24.6016 326.613C25.0208 326.613 25.7695 326.493 26.8477 326.254L27.6562 327.422C26.099 327.422 25.2305 327.452 25.0508 327.512L22.2656 327.691C22.2057 328.889 22.1758 330.117 22.1758 331.375L24.332 331.195C24.6914 331.195 24.9609 330.956 25.1406 330.477L26.2188 331.195C25.9193 331.495 25.7695 331.884 25.7695 332.363L25.5898 336.227L26.2188 337.305C25.0807 337.305 24.332 337.305 23.9727 337.305L18.9414 337.574C18.9414 338.113 18.9414 338.652 18.9414 339.191C18.5221 339.072 18.0729 338.862 17.5938 338.562C17.6536 338.083 17.6836 337.934 17.6836 338.113C17.7435 337.514 17.8034 337.005 17.8633 336.586C17.8633 335.328 17.8333 334.13 17.7734 332.992C17.7734 332.573 17.7135 331.944 17.5938 331.105C17.7135 331.645 17.7135 331.585 17.5938 330.926L18.8516 331.555L21.1875 331.375C21.1875 330.177 21.1875 328.979 21.1875 327.781L18.6719 327.961C18.5521 327.961 18.3424 327.991 18.043 328.051C17.2643 328.111 16.6654 328.201 16.2461 328.32L15.6172 327.242C16.5755 327.242 17.5339 327.182 18.4922 327.062L21.1875 326.883V325.984C21.2474 325.146 21.1875 324.247 21.0078 323.289C19.75 323.529 18.4023 323.798 16.9648 324.098L16.7852 323.559C19.4805 322.84 21.5169 322.211 22.8945 321.672C23.4336 321.432 24.0326 321.133 24.6914 320.773L25.7695 321.941C25.4102 322.001 24.9609 322.121 24.4219 322.301C23.9427 322.421 23.5833 322.51 23.3438 322.57C22.625 322.81 21.9062 323.02 21.1875 323.199L22.5352 323.828C22.3555 324.547 22.2656 325.296 22.2656 326.074C22.2656 326.254 22.2656 326.493 22.2656 326.793L24.6016 326.613ZM32.6875 339.281C31.7292 338.323 30.3815 337.155 28.6445 335.777L28.9141 335.328L32.3281 336.766C32.4479 331.435 32.5078 326.853 32.5078 323.02C32.5078 321.882 32.418 320.833 32.2383 319.875L33.9453 320.594C33.7656 321.492 33.6758 322.361 33.6758 323.199C33.556 328.41 33.526 332.573 33.5859 335.688C33.5859 337.544 33.2865 338.742 32.6875 339.281ZM23.7031 336.406C24.0026 336.406 24.2721 336.406 24.5117 336.406L24.6914 332.094L18.8516 332.363V333.172C18.8516 333.531 18.8516 334.1 18.8516 334.879C18.9115 335.658 18.9414 336.257 18.9414 336.676L23.7031 336.406ZM29.6328 329.848C29.5729 331.165 29.5729 332.154 29.6328 332.812C28.974 332.513 28.4948 332.273 28.1953 332.094C28.375 331.375 28.4948 330.536 28.5547 329.578C28.6146 328.979 28.6146 328.081 28.5547 326.883C28.5547 326.344 28.5547 325.954 28.5547 325.715C28.5547 324.517 28.4948 323.559 28.375 322.84L29.9023 323.559C29.7227 324.277 29.6328 325.026 29.6328 325.805C29.6328 327.003 29.6328 328.35 29.6328 329.848Z" fill="black"/>
<path d="M279.629 28.5273C280.827 26.3711 281.546 24.2448 281.785 22.1484C282.145 20.2318 282.324 17.0573 282.324 12.625C282.324 12.3255 282.294 11.9062 282.234 11.3672C282.234 10.888 282.204 10.4987 282.145 10.1992L283.312 10.8281L290.141 10.4688C290.5 10.4688 290.799 10.2591 291.039 9.83984L292.027 10.4688C291.668 10.8281 291.488 11.1875 291.488 11.5469L291.398 13.793L292.027 14.7812C291.189 14.6615 290.41 14.6615 289.691 14.7812L283.312 15.0508C283.193 18.7044 283.013 21.1602 282.773 22.418C282.414 24.7539 281.516 26.8802 280.078 28.7969L279.629 28.5273ZM288.434 23.4062L288.613 23.0469L290.5 23.9453C290.62 23.1068 290.71 21.819 290.77 20.082C290.829 19.4831 290.859 19.0339 290.859 18.7344L288.344 18.8242C288.344 21.3398 288.344 23.7656 288.344 26.1016C288.344 27 288.344 28.0482 288.344 29.2461C287.805 29.0664 287.296 28.7969 286.816 28.4375C287.116 27.2396 287.266 26.3411 287.266 25.7422C287.385 23.8255 287.385 21.5495 287.266 18.9141L285.02 19.0039C285.02 19.3034 285.02 19.6029 285.02 19.9023C285.02 20.9206 285.02 22.0586 285.02 23.3164C285.02 23.4961 285.02 23.8555 285.02 24.3945C284.96 24.9336 284.93 25.3229 284.93 25.5625C284.51 25.4427 284.061 25.2031 283.582 24.8438C283.822 24.3047 283.941 23.7057 283.941 23.0469C284.001 22.388 284.031 21.3398 284.031 19.9023C284.031 18.944 284.001 18.1953 283.941 17.6562L285.02 18.1953L287.266 18.1055V17.5664C287.266 16.668 287.236 15.7995 287.176 14.9609L288.613 15.5898C288.434 16.1888 288.344 16.8776 288.344 17.6562V18.0156L290.32 17.9258C290.74 17.9258 291.039 17.6862 291.219 17.207L292.207 17.8359C291.967 18.1354 291.848 18.5547 291.848 19.0938C291.848 19.513 291.818 20.2917 291.758 21.4297C291.698 22.7474 291.638 23.6159 291.578 24.0352C291.518 24.7539 291.249 25.293 290.77 25.6523C290.41 25.2331 289.632 24.4844 288.434 23.4062ZM297.059 29.1562C295.98 27.9583 294.753 26.8503 293.375 25.832L293.645 25.3828L296.879 26.7305C296.939 25.293 296.999 23.4362 297.059 21.1602C297.059 20.0221 297.059 18.7344 297.059 17.2969C297.059 16.0391 297.059 14.2721 297.059 11.9961C297.059 11.1576 296.999 10.1393 296.879 8.94141L298.586 9.66016C298.346 10.3789 298.227 11.2174 298.227 12.1758C298.167 14.6914 298.137 19.2435 298.137 25.832C298.197 27.5091 297.837 28.6172 297.059 29.1562ZM289.152 13.9727C289.212 13.9727 289.362 13.9727 289.602 13.9727C289.901 13.9128 290.171 13.8828 290.41 13.8828L290.5 11.2773L283.402 11.7266C283.342 12.026 283.312 12.3555 283.312 12.7148C283.312 13.194 283.312 13.7031 283.312 14.2422L289.152 13.9727ZM294.633 19.2734C294.633 20.4714 294.633 21.4596 294.633 22.2383C294.094 22.0586 293.615 21.819 293.195 21.5195C293.435 20.681 293.555 19.8724 293.555 19.0938C293.615 18.1354 293.645 16.8776 293.645 15.3203C293.645 14.4219 293.555 13.4935 293.375 12.5352L294.902 13.1641C294.723 13.763 294.633 14.5117 294.633 15.4102C294.633 16.668 294.633 17.9557 294.633 19.2734Z" fill="black"/>
<circle cx="401.68" cy="370.785" r="346.785" stroke="black"/>
<path d="M478.21 468.454L493.868 595.454L434.717 503.248L413.84 379.727L478.21 468.454Z" fill="url(#paint0_linear_2067_174)"/>
<path d="M522.864 368.344L640.679 418.284L531.251 423.408L413.84 379.727L522.864 368.344Z" fill="url(#paint1_linear_2067_174)"/>
<path d="M458.494 279.618L560.651 202.557L510.374 299.887L413.84 379.727L458.494 279.618Z" fill="url(#paint2_linear_2067_174)"/>
<path d="M349.47 291.001L333.812 164L392.963 256.206L413.84 379.727L349.47 291.001Z" fill="url(#paint3_linear_2067_174)"/>
<path d="M304.815 391.851L187.001 341.911L296.429 336.788L413.84 380.468L304.815 391.851Z" fill="url(#paint4_linear_2067_174)"/>
<path d="M369.186 479.836L267.029 556.897L317.306 459.567L413.84 379.727L369.186 479.836Z" fill="url(#paint5_linear_2067_174)"/>
<defs>
<linearGradient id="paint0_linear_2067_174" x1="453.854" y1="379.727" x2="453.854" y2="595.454" gradientUnits="userSpaceOnUse">
<stop stop-color="#D9D9D9"/>
<stop offset="1" stop-color="#737373"/>
</linearGradient>
<linearGradient id="paint1_linear_2067_174" x1="433.847" y1="345.074" x2="620.672" y2="452.938" gradientUnits="userSpaceOnUse">
<stop stop-color="#D9D9D9"/>
<stop offset="1" stop-color="#737373"/>
</linearGradient>
<linearGradient id="paint2_linear_2067_174" x1="393.833" y1="345.074" x2="580.658" y2="237.21" gradientUnits="userSpaceOnUse">
<stop stop-color="#D9D9D9"/>
<stop offset="1" stop-color="#737373"/>
</linearGradient>
<linearGradient id="paint3_linear_2067_174" x1="373.826" y1="379.727" x2="373.826" y2="164" gradientUnits="userSpaceOnUse">
<stop stop-color="#D9D9D9"/>
<stop offset="1" stop-color="#737373"/>
</linearGradient>
<linearGradient id="paint4_linear_2067_174" x1="393.833" y1="415.121" x2="207.008" y2="307.258" gradientUnits="userSpaceOnUse">
<stop stop-color="#D9D9D9"/>
<stop offset="1" stop-color="#737373"/>
</linearGradient>
<linearGradient id="paint5_linear_2067_174" x1="433.847" y1="414.38" x2="247.022" y2="522.244" gradientUnits="userSpaceOnUse">
<stop stop-color="#D9D9D9"/>
<stop offset="1" stop-color="#737373"/>
</linearGradient>
</defs>
</svg>
