<svg width="776" height="730" viewBox="0 0 776 730" fill="none" xmlns="http://www.w3.org/2000/svg">
<line x1="379.479" y1="152.522" x2="374.522" y2="35.5207" stroke="#B5B5B5" stroke-linecap="round" stroke-dasharray="2 2"/>
<line x1="580.435" y1="296.442" x2="713.911" y2="279.909" stroke="#B5B5B5" stroke-linecap="round" stroke-dasharray="2 2"/>
<line x1="512.705" y1="528.059" x2="607.877" y2="640.489" stroke="#B5B5B5" stroke-linecap="round" stroke-dasharray="2 2"/>
<line x1="273.988" y1="540.707" x2="165.539" y2="645.479" stroke="#B5B5B5" stroke-linecap="round" stroke-dasharray="2 2"/>
<line x1="183.485" y1="307.485" x2="49.4857" y2="303.485" stroke="#B5B5B5" stroke-linecap="round" stroke-dasharray="2 2"/>
<path d="M380.533 10.2852C380.593 10.2852 380.743 10.2552 380.982 10.1953C382.001 10.1354 382.779 10.0156 383.318 9.83594L384.217 11.0039C383.139 11.0039 382.09 11.0638 381.072 11.1836L377.479 11.4531L378.916 11.9922C378.736 12.4115 378.646 13.1003 378.646 14.0586C378.587 14.6576 378.557 15.9753 378.557 18.0117C378.497 18.9102 378.976 19.3893 379.994 19.4492C381.432 19.4492 382.51 19.3893 383.229 19.2695L383.318 15.4062L383.857 15.3164C384.097 16.8138 384.486 18.2513 385.025 19.6289C384.606 20.0482 384.067 20.2578 383.408 20.2578C382.39 20.4375 381.162 20.4974 379.725 20.4375C378.227 20.4375 377.479 19.6589 377.479 18.1016C377.479 17.8021 377.479 17.2031 377.479 16.3047C377.538 15.1667 377.568 14.388 377.568 13.9688C377.568 13.0703 377.479 12.2318 377.299 11.4531L374.514 11.6328L375.861 12.5312C375.622 12.9505 375.382 13.5495 375.143 14.3281C374.124 17.6224 372.028 19.8685 368.854 21.0664L368.584 20.6172C371.339 19.3594 373.136 17.1133 373.975 13.8789C374.214 13.1003 374.364 12.3815 374.424 11.7227H374.064C373.346 11.7227 372.387 11.8724 371.189 12.1719L370.381 11.0039C371.758 11.0039 372.896 10.944 373.795 10.8242L376.221 10.6445C376.221 10.2852 376.221 9.74609 376.221 9.02734C376.281 8.2487 376.311 7.64974 376.311 7.23047L372.986 7.58984C372.567 8.48828 372.058 9.29688 371.459 10.0156L371.01 9.74609C371.788 8.30859 372.447 6.66146 372.986 4.80469C373.106 4.44531 373.196 3.9362 373.256 3.27734C373.316 3.03776 373.346 2.88802 373.346 2.82812L374.693 3.72656C374.633 3.84635 374.514 4.08594 374.334 4.44531C374.214 4.80469 374.094 5.07422 373.975 5.25391C373.795 5.79297 373.615 6.27214 373.436 6.69141L376.311 6.42188C376.311 5.40365 376.311 4.50521 376.311 3.72656C376.311 3.00781 376.251 2.04948 376.131 0.851562L377.748 1.48047C377.508 2.4388 377.389 3.2474 377.389 3.90625C377.389 4.5651 377.389 5.3737 377.389 6.33203L379.186 6.15234C379.245 6.15234 379.335 6.1224 379.455 6.0625C380.234 6.0026 380.833 5.88281 381.252 5.70312L382.24 6.87109C381.162 6.87109 380.234 6.90104 379.455 6.96094L377.389 7.14062C377.329 8.33854 377.299 9.47656 377.299 10.5547L380.533 10.2852ZM366.428 20.0781C366.368 19 365.559 17.862 364.002 16.6641L364.361 16.2148L366.607 17.293C366.907 16.5143 367.416 15.1966 368.135 13.3398C369.093 10.8841 369.782 9.08724 370.201 7.94922L370.83 8.21875C369.872 11.3333 368.854 14.4779 367.775 17.6523C367.656 18.0117 367.566 18.5807 367.506 19.3594C367.446 19.599 367.416 19.7786 367.416 19.8984L366.428 20.0781ZM364.721 6.69141C366.158 7.23047 367.446 7.88932 368.584 8.66797L367.686 10.2852C366.727 9.14714 365.649 8.06901 364.451 7.05078L364.721 6.69141ZM366.787 1.75C368.225 2.46875 369.452 3.21745 370.471 3.99609L369.482 5.43359C368.584 4.35547 367.596 3.2474 366.518 2.10938L366.787 1.75Z" fill="black"/>
<path d="M10.6016 296.023C12.7578 292.789 14.2253 289.764 15.0039 286.949H14.9141C14.8542 286.949 14.6745 286.979 14.375 287.039C13.8359 287.159 13.4466 287.249 13.207 287.309L12.7578 286.59C12.5781 286.59 12.2786 286.62 11.8594 286.68C11.6198 286.68 11.4401 286.68 11.3203 286.68L10.4219 286.77V288.207C11.2604 288.626 12.1589 289.195 13.1172 289.914L12.5781 291.082C11.8594 290.303 11.1406 289.555 10.4219 288.836C10.4219 291.591 10.4219 294.017 10.4219 296.113C10.4219 297.311 10.4219 298.419 10.4219 299.438C9.94271 299.318 9.46354 299.078 8.98438 298.719C9.22396 297.88 9.34375 297.012 9.34375 296.113C9.40365 295.215 9.43359 294.197 9.43359 293.059C9.43359 292.1 9.43359 290.663 9.43359 288.746C8.35547 291.262 6.85807 293.628 4.94141 295.844L4.58203 295.574C6.61849 292.759 8.14583 289.884 9.16406 286.949L8.17578 287.039C7.81641 287.039 7.33724 287.159 6.73828 287.398L6.10938 286.32C6.34896 286.32 6.73828 286.29 7.27734 286.23C7.63672 286.23 7.8763 286.23 7.99609 286.23L9.43359 286.051V283.535C9.43359 282.277 9.40365 281.349 9.34375 280.75L10.8711 281.379C10.6914 281.978 10.5716 282.757 10.5117 283.715C10.5117 284.434 10.5117 285.182 10.5117 285.961L11.0508 285.871C11.5299 285.871 11.9792 285.781 12.3984 285.602L12.9375 286.32C13.5365 286.32 14.0755 286.26 14.5547 286.141L15.8125 286.051C15.8125 285.691 15.7826 285.152 15.7227 284.434C15.7227 283.775 15.7227 283.296 15.7227 282.996C15.7227 281.738 15.6927 280.78 15.6328 280.121L17.0703 280.75C16.8906 281.349 16.8008 282.158 16.8008 283.176C16.8008 283.415 16.8008 283.835 16.8008 284.434C16.7409 285.092 16.7109 285.602 16.7109 285.961L18.3281 285.781C18.388 285.781 18.5078 285.751 18.6875 285.691C19.2266 285.632 19.6458 285.542 19.9453 285.422L20.5742 286.41C19.8555 286.41 19.1966 286.47 18.5977 286.59L16.8906 286.77C17.25 287.428 17.7292 288.447 18.3281 289.824C18.987 291.202 19.4661 292.22 19.7656 292.879C20.2448 294.077 21.1432 294.766 22.4609 294.945L22.3711 295.484L19.4961 295.574C19.4362 295.395 19.3164 295.065 19.1367 294.586C18.0586 291.411 17.25 289.135 16.7109 287.758V296.293C16.7109 296.712 16.7409 297.311 16.8008 298.09C16.8008 298.809 16.8008 299.318 16.8008 299.617C16.3216 299.497 15.8125 299.258 15.2734 298.898C15.513 298.06 15.6628 297.191 15.7227 296.293C15.7826 294.496 15.8125 291.681 15.8125 287.848C14.5547 291.142 12.9674 293.957 11.0508 296.293L10.6016 296.023ZM2.69531 299.348C2.63542 298.509 1.82682 297.491 0.269531 296.293L0.539062 295.934L2.78516 296.832C3.08464 295.934 3.5638 294.526 4.22266 292.609C4.88151 290.753 5.36068 289.345 5.66016 288.387L6.19922 288.566C6.01953 289.405 5.66016 290.783 5.12109 292.699C4.64193 294.676 4.28255 296.083 4.04297 296.922C3.80339 297.76 3.68359 298.539 3.68359 299.258L2.69531 299.348ZM1.52734 286.32C2.30599 286.68 3.32422 287.249 4.58203 288.027C4.52214 287.967 4.61198 288.027 4.85156 288.207L3.95312 289.645C3.71354 289.405 3.35417 289.016 2.875 288.477C2.21615 287.638 1.67708 287.039 1.25781 286.68L1.52734 286.32ZM3.32422 281.918C4.40234 282.457 5.45052 283.116 6.46875 283.895L5.48047 285.242C4.88151 284.464 4.04297 283.475 2.96484 282.277L3.32422 281.918Z" fill="black"/>
<path d="M144.738 667.046C146.296 664.051 147.404 661.475 148.062 659.319C148.122 659.199 148.182 659.02 148.242 658.78C148.542 657.882 148.721 657.193 148.781 656.714L150.129 657.702C149.77 658.301 149.44 659.02 149.141 659.858C148.841 660.337 148.602 660.816 148.422 661.296C148.661 661.296 149.021 661.266 149.5 661.206C149.859 661.206 150.129 661.206 150.309 661.206L154.98 660.936C155.579 660.876 155.969 660.577 156.148 660.038L157.137 660.667C156.837 661.146 156.658 661.625 156.598 662.104C156.478 665.878 156.328 668.753 156.148 670.729C156.089 671.628 155.819 672.257 155.34 672.616C154.621 671.897 153.603 671.119 152.285 670.28L152.465 669.831L155.07 670.729C155.37 667.135 155.549 664.141 155.609 661.745L150.848 662.014C150.009 662.134 149.23 662.284 148.512 662.464L148.152 661.835C148.033 662.014 147.883 662.314 147.703 662.733C147.583 663.033 147.314 663.572 146.895 664.35L148.152 664.889L151.297 664.71C151.656 664.77 151.956 664.53 152.195 663.991L153.184 664.53C152.884 664.949 152.734 665.369 152.734 665.788L152.645 668.393L153.184 669.292C152.824 669.232 152.285 669.232 151.566 669.292C151.327 669.292 151.177 669.292 151.117 669.292L147.973 669.471V673.694C147.973 674.892 148.512 675.461 149.59 675.401C151.746 675.581 154.411 675.551 157.586 675.311L157.766 671.538H158.215C158.514 673.395 158.844 674.832 159.203 675.85C158.904 676.15 158.305 676.33 157.406 676.389C154.471 676.509 151.836 676.539 149.5 676.479C147.763 676.359 146.895 675.491 146.895 673.874C146.895 670.22 146.924 667.884 146.984 666.866C146.984 666.327 146.954 665.698 146.895 664.979C146.835 664.74 146.805 664.56 146.805 664.44C146.266 665.458 145.727 666.417 145.188 667.315L144.738 667.046ZM140.785 676.389C140.665 675.311 139.797 674.173 138.18 672.975L138.449 672.616L140.965 673.784C141.324 672.766 142.043 670.699 143.121 667.585C143.72 665.968 144.139 664.8 144.379 664.081L144.918 664.26C144.139 666.836 143.271 669.981 142.312 673.694C142.013 674.533 141.863 675.371 141.863 676.21L140.785 676.389ZM150.938 668.483C151.177 668.483 151.387 668.453 151.566 668.393L151.746 665.518L148.062 665.698C148.003 666.117 147.973 666.566 147.973 667.046C147.973 667.465 147.973 668.004 147.973 668.663L150.938 668.483ZM140.785 658.241C142.223 658.84 143.421 659.499 144.379 660.218L143.391 661.745C143.271 661.625 143.061 661.385 142.762 661.026C141.803 659.948 141.055 659.169 140.516 658.69L140.785 658.241ZM138.988 663.003C140.366 663.542 141.594 664.171 142.672 664.889L141.773 666.417C140.695 665.279 139.647 664.29 138.629 663.452L138.988 663.003Z" fill="black"/>
<path d="M632.49 657.792C632.969 657.792 633.718 657.672 634.736 657.432L635.635 658.51C635.215 658.51 634.557 658.54 633.658 658.6C633.239 658.6 632.969 658.6 632.85 658.6L631.232 658.69V660.936L632.85 660.846C633.389 660.787 633.748 660.547 633.928 660.128L634.826 660.757C634.587 661.056 634.467 661.415 634.467 661.835L634.377 664.26L635.006 665.159C634.587 665.099 634.018 665.099 633.299 665.159C633.059 665.159 632.88 665.159 632.76 665.159L624.854 665.608C624.854 666.027 624.854 666.387 624.854 666.686C624.374 666.566 623.955 666.417 623.596 666.237C623.775 665.818 623.865 665.339 623.865 664.8C623.865 664.5 623.835 664.021 623.775 663.362C623.775 662.883 623.775 662.553 623.775 662.374C623.775 661.895 623.715 661.326 623.596 660.667L624.764 661.296L627.1 661.116V658.96L625.662 659.05C625.003 659.05 624.165 659.169 623.146 659.409L622.518 658.331C622.937 658.331 623.476 658.301 624.135 658.241C624.674 658.241 625.093 658.241 625.393 658.241L632.49 657.792ZM633.748 669.202C634.347 669.202 635.126 669.052 636.084 668.753L636.893 669.921C635.395 669.921 634.467 669.951 634.107 670.01L629.705 670.28C629.705 671.598 629.705 672.945 629.705 674.323C629.705 675.641 629.436 676.509 628.896 676.928C627.818 676.03 626.8 675.251 625.842 674.593L626.021 674.233L628.627 675.132C628.627 673.574 628.627 671.957 628.627 670.28L624.854 670.55C624.255 670.55 623.416 670.669 622.338 670.909L621.709 669.831C622.068 669.831 622.577 669.801 623.236 669.741C623.835 669.741 624.255 669.741 624.494 669.741L633.748 669.202ZM618.025 676.3C617.846 675.102 617.007 673.994 615.51 672.975L615.779 672.616L618.205 673.694C618.624 672.376 619.373 670.1 620.451 666.866C620.93 665.428 621.29 664.38 621.529 663.721L622.068 663.901C621.829 664.859 621.41 666.357 620.811 668.393C620.152 670.849 619.673 672.616 619.373 673.694C619.133 674.413 619.074 675.221 619.193 676.12L618.025 676.3ZM631.053 666.866C631.113 666.866 631.232 666.866 631.412 666.866C632.251 666.746 632.91 666.596 633.389 666.417L634.107 667.495C633.449 667.555 632.61 667.585 631.592 667.585L626.92 667.854C626.321 667.914 625.662 668.034 624.943 668.214L624.314 667.225C624.554 667.225 624.943 667.195 625.482 667.135C626.081 667.135 626.471 667.106 626.65 667.046L631.053 666.866ZM624.764 662.464V664.8L627.1 664.71V661.925L624.764 662.104V662.464ZM631.322 671.268C633.359 671.987 635.066 672.766 636.443 673.604L635.814 675.042C634.377 673.964 632.79 672.826 631.053 671.628L631.322 671.268ZM625.842 671.178L626.65 672.526C626.411 672.646 626.111 672.826 625.752 673.065C625.512 673.245 625.333 673.365 625.213 673.425C623.775 674.323 622.308 675.132 620.811 675.85L620.451 675.401C622.607 674.083 623.985 673.125 624.584 672.526C625.063 672.167 625.482 671.718 625.842 671.178ZM632.58 664.35C632.76 664.35 632.999 664.35 633.299 664.35L633.389 661.565L631.143 661.745V664.44L632.58 664.35ZM628.088 661.925V664.62L630.154 664.53V661.745L628.088 661.925ZM628.088 658.87V661.116L630.154 660.936L630.244 658.78L628.088 658.87ZM616.229 663.003C617.786 663.542 619.044 664.171 620.002 664.889L619.104 666.417C618.205 665.399 617.157 664.41 615.959 663.452L616.229 663.003ZM618.115 658.241C619.253 658.72 620.451 659.379 621.709 660.218L620.721 661.745C620.242 661.146 619.493 660.337 618.475 659.319C618.175 659.02 617.965 658.81 617.846 658.69L618.115 658.241ZM657.377 676.3C656.538 675.341 655.4 674.383 653.963 673.425L654.232 672.975L657.018 674.053C657.077 673.335 657.107 671.777 657.107 669.382C657.107 666.387 657.107 663.422 657.107 660.487L653.693 660.757C653.274 660.757 652.645 660.876 651.807 661.116L651.088 659.948C652.406 659.948 653.214 659.918 653.514 659.858L656.299 659.678C657.018 659.738 657.467 659.469 657.646 658.87L658.814 659.768C658.395 660.068 658.186 660.607 658.186 661.385C658.186 664.141 658.186 666.357 658.186 668.034C658.186 669.891 658.215 671.688 658.275 673.425C658.335 674.862 658.036 675.82 657.377 676.3ZM653.963 669.921C654.682 669.921 655.311 669.831 655.85 669.651L656.568 670.729C655.73 670.729 654.951 670.759 654.232 670.819L650.998 670.999C650.938 670.999 650.818 671.029 650.639 671.089C649.86 671.149 649.261 671.238 648.842 671.358L648.213 670.28C649.471 670.28 650.309 670.25 650.729 670.19L651.896 670.1C651.896 669.322 651.896 668.363 651.896 667.225H651.268C650.729 667.285 650.16 667.405 649.561 667.585L649.021 666.507C649.86 666.507 650.489 666.507 650.908 666.507L651.896 666.417C651.896 665.399 651.896 664.56 651.896 663.901L650.998 663.991C650.878 663.991 650.729 664.021 650.549 664.081C649.95 664.201 649.501 664.29 649.201 664.35L648.662 663.272C649.021 663.272 649.471 663.242 650.01 663.182C650.309 663.182 650.519 663.182 650.639 663.182L653.783 662.913C654.382 662.913 654.951 662.823 655.49 662.643L656.119 663.721C655.34 663.721 654.682 663.721 654.143 663.721L652.975 663.811V666.327L653.514 666.237C653.873 666.237 654.322 666.177 654.861 666.057C654.921 665.997 654.981 665.968 655.041 665.968L655.76 666.956C655.101 666.956 654.502 666.956 653.963 666.956L652.975 667.046C652.975 668.303 652.975 669.292 652.975 670.01L653.963 669.921ZM647.943 661.296C647.764 662.014 647.674 662.793 647.674 663.632C647.674 664.59 647.644 666.057 647.584 668.034C647.584 670.01 647.554 671.508 647.494 672.526C647.494 673.724 647.494 674.952 647.494 676.21C646.955 676.03 646.386 675.701 645.787 675.221C646.146 674.263 646.326 673.335 646.326 672.436C646.506 669.202 646.596 666.237 646.596 663.542C646.596 662.464 646.506 661.505 646.326 660.667L647.943 661.296ZM641.115 676.03C640.936 674.952 640.067 673.844 638.51 672.706L638.779 672.346L641.295 673.425C641.535 672.826 641.894 671.867 642.373 670.55C643.331 667.734 644.11 665.578 644.709 664.081L645.338 664.26C644.26 668.214 643.391 671.328 642.732 673.604C642.553 674.203 642.403 674.982 642.283 675.94L641.115 676.03ZM639.318 663.003C640.816 663.602 642.044 664.231 643.002 664.889L642.104 666.417C640.786 665.039 639.738 664.021 638.959 663.362L639.318 663.003ZM641.115 658.151C642.313 658.69 643.511 659.349 644.709 660.128L643.721 661.655C643.122 660.876 642.163 659.858 640.846 658.6L641.115 658.151ZM647.314 657.343C648.632 658.301 649.62 659.199 650.279 660.038L649.201 661.206C648.902 660.607 648.303 659.678 647.404 658.421C647.225 658.121 647.075 657.882 646.955 657.702L647.314 657.343Z" fill="black"/>
<path d="M749.539 266.418L750.617 268.215C750.438 268.335 750.108 268.575 749.629 268.934C749.449 268.994 749.329 269.054 749.27 269.114C749.09 269.234 748.85 269.413 748.551 269.653C747.892 270.132 746.993 270.701 745.855 271.36C747.293 273.277 748.401 274.684 749.18 275.583C749.958 276.601 751.276 277.26 753.133 277.559L753.043 278.098L749 278.278C748.401 277.319 747.503 275.822 746.305 273.786C745.047 271.809 744.118 270.342 743.52 269.383C743.52 272.378 743.52 275.642 743.52 279.176C743.639 280.734 743.31 281.722 742.531 282.141C741.753 281.303 740.525 280.314 738.848 279.176L739.117 278.727L742.262 279.805C742.322 275.433 742.352 273.546 742.352 274.145C742.352 273.187 742.352 272.109 742.352 270.911C742.352 269.892 742.352 268.395 742.352 266.418C742.352 265.161 742.232 263.903 741.992 262.645L743.879 263.543C743.699 264.502 743.579 265.67 743.52 267.047C743.52 267.407 743.52 267.826 743.52 268.305L745.496 270.911C746.754 269.892 747.682 268.964 748.281 268.125C748.76 267.527 749.18 266.958 749.539 266.418ZM733.277 279.805L733.008 279.446C736.302 276.571 738.578 273.336 739.836 269.743L737.051 270.102C736.691 270.102 736.062 270.252 735.164 270.551L734.266 269.383C734.565 269.383 734.984 269.353 735.523 269.293C736.122 269.293 736.512 269.264 736.691 269.204L739.477 268.844C740.016 268.784 740.405 268.515 740.645 268.036L741.812 269.024C741.513 269.204 741.243 269.623 741.004 270.282C739.147 274.534 736.572 277.709 733.277 279.805ZM772.449 265.879L773.438 267.317C773.318 267.437 773.138 267.586 772.898 267.766C772.719 267.886 772.389 268.155 771.91 268.575C771.551 268.814 771.012 269.204 770.293 269.743C769.814 270.042 769.454 270.282 769.215 270.461C770.772 271.12 772.18 271.779 773.438 272.438L772.809 274.055C771.671 273.217 769.964 272.049 767.688 270.551C767.688 272.528 768.017 274.444 768.676 276.301C769.514 278.577 771.251 280.015 773.887 280.614L774.426 276.75H774.965C775.085 279.027 775.294 280.734 775.594 281.872C774.695 281.991 773.797 281.902 772.898 281.602C770.323 280.823 768.586 279.266 767.688 276.93C766.669 274.474 766.31 270.611 766.609 265.34L761.219 265.79C760.32 265.849 759.392 266.029 758.434 266.329L757.625 265.071C759.122 265.071 760.23 265.011 760.949 264.891L765.98 264.442C766.699 264.442 767.178 264.142 767.418 263.543L768.676 264.442C768.137 264.861 767.837 265.37 767.777 265.969C767.658 267.407 767.658 267.586 767.777 266.508C767.658 267.586 767.598 268.694 767.598 269.833C767.717 269.833 767.897 269.892 768.137 270.012C768.376 270.072 768.556 270.132 768.676 270.192C769.395 269.473 770.233 268.605 771.191 267.586C771.671 266.987 772.09 266.418 772.449 265.879Z" fill="black"/>
<circle cx="384.285" cy="382.285" r="346.785" stroke="black"/>
<path d="M411.702 355.528C387.111 361.883 390.551 366.453 390.551 366.453L382.433 366.721C382.433 366.721 384.065 361.219 374.039 360.307C279.334 339.152 315.352 235.069 353.528 191.944C384.069 157.444 375.783 148.532 376.982 146.628C378.181 144.725 384.902 164.146 398.897 176.875C512.567 277.933 427.861 351.352 411.702 355.528Z" fill="url(#paint0_linear_14_3)"/>
<path d="M406.885 388.686C393.242 367.262 389.958 371.945 389.958 371.945L387.195 364.307C387.195 364.307 392.932 364.159 390.701 354.343C381.555 257.735 491.675 259.827 544.486 282.809C586.735 301.194 592.65 290.559 594.831 291.111C597.012 291.663 580.618 304.057 572.837 321.3C511.851 460.635 415.849 402.763 406.885 388.686Z" fill="url(#paint1_linear_14_3)"/>
<path d="M384.302 339.48C382.747 364.831 388.157 362.972 388.157 362.972L385.902 370.776C385.902 370.776 381.174 367.524 377.209 376.776C327.824 460.309 239.965 393.891 210.748 344.257C187.374 304.549 176.338 309.677 174.898 307.948C173.458 306.219 194.005 305.828 210.436 296.452C341.674 219.574 385.324 322.822 384.302 339.48Z" fill="url(#paint2_linear_14_3)"/>
<path d="M362.404 364.167C386.034 373.48 385.937 367.761 385.937 367.761L392.662 372.316C392.662 372.316 388.108 375.808 395.683 382.438C459.866 455.219 369.549 518.253 313.315 530.703C268.329 540.662 269.794 552.743 267.705 553.578C265.616 554.413 271.594 534.751 267.753 516.227C235.194 367.656 346.877 358.047 362.404 364.167Z" fill="url(#paint3_linear_14_3)"/>
<path d="M374.23 389.573C390.389 369.977 384.92 368.301 384.92 368.301L391.331 363.313C391.331 363.313 393.245 368.724 401.891 363.569C490.944 325.017 522.983 430.393 517.446 487.721C513.016 533.584 524.959 535.923 525.108 538.168C525.256 540.413 508.403 528.651 489.599 526.579C338.238 511.635 363.612 402.449 374.23 389.573Z" fill="url(#paint4_linear_14_3)"/>
<defs>
<linearGradient id="paint0_linear_14_3" x1="332.601" y1="166.637" x2="417.45" y2="354.29" gradientUnits="userSpaceOnUse">
<stop stop-color="#D9D9D9"/>
<stop offset="1" stop-color="#737373"/>
</linearGradient>
<linearGradient id="paint1_linear_14_3" x1="562.087" y1="255.085" x2="409.838" y2="393.77" gradientUnits="userSpaceOnUse">
<stop stop-color="#D9D9D9"/>
<stop offset="1" stop-color="#737373"/>
</linearGradient>
<linearGradient id="paint2_linear_14_3" x1="180.212" y1="356.34" x2="384.901" y2="333.631" gradientUnits="userSpaceOnUse">
<stop stop-color="#D9D9D9"/>
<stop offset="1" stop-color="#737373"/>
</linearGradient>
<linearGradient id="paint3_linear_14_3" x1="315.371" y1="563.477" x2="357.026" y2="361.789" gradientUnits="userSpaceOnUse">
<stop stop-color="#D9D9D9"/>
<stop offset="1" stop-color="#737373"/>
</linearGradient>
<linearGradient id="paint4_linear_14_3" x1="549.252" y1="495.894" x2="370.308" y2="393.952" gradientUnits="userSpaceOnUse">
<stop stop-color="#D9D9D9"/>
<stop offset="1" stop-color="#737373"/>
</linearGradient>
</defs>
</svg>
