<svg width="68" height="65" viewBox="0 0 68 65" fill="none" xmlns="http://www.w3.org/2000/svg">
<path d="M32.721 32.9614C33.2634 33.6626 32.7958 34.0242 32.6369 35.2679L34.2951 35.4798C34.2452 34.7712 34.254 33.4945 35.8349 31.6742C37.4157 29.8538 43.5053 22.7532 42.4795 9.3505L38.7829 15.1979L31.7415 2.71175L26.602 14.9052C25.1558 13.0351 22.1572 10.124 22.1572 10.124C24.916 24.8015 32.1786 32.2601 32.721 32.9614Z" fill="url(#paint0_linear_1514_152)"/>
<path d="M30.9133 34.7524C31.739 34.4298 31.9541 34.9803 33.1025 35.4833L33.7733 33.9521C33.0794 33.8003 31.857 33.4319 30.5561 31.402C29.2553 29.3721 24.1593 21.5278 11.0111 18.7337L15.5792 23.9287L1.61445 27.1645L11.8645 35.533C9.66254 36.3935 6.02417 38.4497 6.02417 38.4497C20.8841 39.9405 30.0875 35.0751 30.9133 34.7524Z" fill="url(#paint1_linear_1514_152)"/>
<path d="M32.2608 37.2925C32.2446 36.4061 32.8355 36.3952 33.7057 35.4926L32.5022 34.3324C32.119 34.9305 31.3495 35.9493 28.9945 36.4654C26.6394 36.9815 17.5146 39.0405 10.3337 50.4035L16.7906 47.9207L14.9822 62.141L26.3863 55.4296C26.4296 57.7933 27.0963 61.919 27.0963 61.919C33.6484 48.4985 32.2771 38.1789 32.2608 37.2925Z" fill="url(#paint2_linear_1514_152)"/>
<path d="M35.179 36.6663C34.3195 36.449 34.4644 35.876 33.8223 34.7991L32.3865 35.6552C32.8629 36.1822 33.6435 37.1924 33.5222 39.6003C33.401 42.0082 32.9885 51.3533 42.0637 61.2692L41.3659 54.3866L54.6104 59.8702L51.1335 47.1028C53.4254 47.6825 57.5813 48.1239 57.5813 48.1239C46.3556 38.2738 36.0385 36.8837 35.179 36.6663Z" fill="url(#paint3_linear_1514_152)"/>
<path d="M35.4536 33.629C34.9263 34.3416 34.4512 33.9901 33.2112 34.1754L33.4583 35.8287C34.1266 35.588 35.3576 35.2492 37.5392 36.2754C39.7209 37.3015 48.2101 41.2301 60.8285 36.5976L54.1962 34.6309L64.2964 24.4588L51.1647 22.8296C52.5709 20.9292 54.5567 17.2519 54.5567 17.2519C41.183 23.8989 35.9809 32.9163 35.4536 33.629Z" fill="url(#paint4_linear_1514_152)"/>
<defs>
<linearGradient id="paint0_linear_1514_152" x1="25.8974" y1="7.23142" x2="42.7106" y2="28.9715" gradientUnits="userSpaceOnUse">
<stop stop-color="#D9D9D9"/>
<stop offset="1" stop-color="#737373"/>
</linearGradient>
<linearGradient id="paint1_linear_1514_152" x1="4.3033" y1="34.0457" x2="29.9014" y2="24.0432" gradientUnits="userSpaceOnUse">
<stop stop-color="#D9D9D9"/>
<stop offset="1" stop-color="#737373"/>
</linearGradient>
<linearGradient id="paint2_linear_1514_152" x1="22.3689" y1="62.0056" x2="21.8654" y2="34.5273" gradientUnits="userSpaceOnUse">
<stop stop-color="#D9D9D9"/>
<stop offset="1" stop-color="#737373"/>
</linearGradient>
<linearGradient id="paint3_linear_1514_152" x1="56.4219" y1="52.7078" x2="29.7779" y2="45.969" gradientUnits="userSpaceOnUse">
<stop stop-color="#D9D9D9"/>
<stop offset="1" stop-color="#737373"/>
</linearGradient>
<linearGradient id="paint4_linear_1514_152" x1="58.3576" y1="20.0643" x2="42.0102" y2="42.1567" gradientUnits="userSpaceOnUse">
<stop stop-color="#D9D9D9"/>
<stop offset="1" stop-color="#737373"/>
</linearGradient>
</defs>
</svg>
