<svg width="413" height="254" viewBox="0 0 413 254" fill="none" xmlns="http://www.w3.org/2000/svg">
<g clip-path="url(#clip0_2067_281)">
<path d="M309.289 43.5492C286.36 83.0263 252.671 115.164 212.158 136.21C171.646 157.255 125.981 166.339 80.4983 162.4" stroke="black" stroke-width="1.32551"/>
<path d="M258.1 108.885C256.493 110.056 255.713 108.985 252.935 108.549L252.354 112.253C253.945 112.186 256.807 112.288 260.786 115.949C264.766 119.609 280.294 133.716 310.406 132.275L297.534 123.613L325.977 108.628L298.971 96.3249C303.256 93.2024 309.974 86.6667 309.974 86.6667C276.893 91.9111 259.707 107.715 258.1 108.885Z" fill="url(#paint0_linear_2067_281)"/>
<path d="M208.267 142.558C206.296 142.825 206.118 141.511 203.881 139.808L201.61 142.791C203.042 143.489 205.512 144.937 207.275 150.049C209.038 155.161 216 174.95 243.182 187.987L235.97 174.251L268.117 174.576L250.198 150.92C255.452 150.208 264.468 147.649 264.468 147.649C232.867 136.549 210.237 142.291 208.267 142.558Z" fill="url(#paint1_linear_2067_281)"/>
<path d="M309.994 50.8668C308.631 52.3147 307.666 51.4063 304.855 51.4915L304.969 55.2389C306.521 54.8793 309.352 54.4499 313.94 57.3114C318.527 60.1729 336.396 71.1644 365.722 64.1796L351.471 58.048L376.651 38.0611L347.836 30.9646C351.47 27.1036 356.863 19.4383 356.863 19.4383C325.323 30.7099 311.356 49.4189 309.994 50.8668Z" fill="url(#paint2_linear_2067_281)"/>
<path d="M167.694 147.623C168.984 149.136 167.975 149.996 167.752 152.799L171.489 153.097C171.302 151.515 171.185 148.654 174.532 144.407C177.879 140.16 190.762 123.603 187.033 93.6884L179.376 107.182L162.269 79.9635L152.058 107.828C148.618 103.793 141.59 97.592 141.59 97.592C149.338 130.177 166.404 146.11 167.694 147.623Z" fill="url(#paint3_linear_2067_281)"/>
<path d="M229.27 119.229C230.642 120.668 229.683 121.583 229.616 124.394L233.364 124.482C233.089 122.913 232.813 120.063 235.918 115.637C239.023 111.21 250.963 93.9603 245.571 64.3001L238.679 78.2L220.08 51.9771L211.439 80.3675C207.78 76.5307 200.417 70.7311 200.417 70.7311C209.969 102.834 227.897 117.79 229.27 119.229Z" fill="url(#paint4_linear_2067_281)"/>
<path d="M279.561 76.4907C280.995 77.868 280.077 78.824 280.134 81.6352L283.882 81.5597C283.538 80.0042 283.138 77.1689 286.046 72.6104C288.954 68.052 300.126 50.2957 293.44 20.9002L287.164 35.0888L267.434 9.70606L260.045 38.4478C256.221 34.7751 248.611 29.3036 248.611 29.3036C259.561 60.9569 278.127 75.1134 279.561 76.4907Z" fill="url(#paint5_linear_2067_281)"/>
<path d="M79.1192 158.651C80.1987 160.321 79.0855 161.04 78.4953 163.79L82.1609 164.577C82.1833 162.984 82.4444 160.132 86.3212 156.363C90.1981 152.594 105.149 137.877 105.389 107.732L96.0235 120.1L82.6478 90.8661L68.8577 117.144C65.9791 112.691 59.8284 105.619 59.8284 105.619C63.2195 138.941 78.0397 156.981 79.1192 158.651Z" fill="url(#paint6_linear_2067_281)"/>
<path d="M74.737 162.312C76.6433 161.747 77.02 163.018 79.4913 164.36L81.2797 161.065C79.7577 160.594 77.0955 159.54 74.5721 154.758C72.0488 149.975 62.1433 131.482 33.2885 122.753L42.5152 135.226L10.696 139.818L32.0205 160.457C26.937 161.963 18.4176 165.871 18.4176 165.871C51.3438 172.011 72.8307 162.877 74.737 162.312Z" fill="url(#paint7_linear_2067_281)"/>
<path d="M77.2718 168.244C77.403 166.26 78.7256 166.348 80.8408 164.495L78.3705 161.675C77.4013 162.939 75.4891 165.07 70.1286 165.778C64.7681 166.486 43.9875 169.363 25.7923 193.399L40.6911 189.071L33.962 220.508L60.7156 207.665C60.3656 212.956 61.0758 222.302 61.0758 222.302C78.2546 193.549 77.1405 170.228 77.2718 168.244Z" fill="url(#paint8_linear_2067_281)"/>
<path d="M83.9107 167.394C82.031 166.746 82.4632 165.493 81.2318 162.965L77.8613 164.607C78.8263 165.875 80.3799 168.28 79.6537 173.638C78.9275 178.996 76.2394 199.802 94.6461 223.677L94.3875 208.164L122.949 222.922L117.592 193.733C122.604 195.461 131.808 197.233 131.808 197.233C108.584 173.099 85.7903 168.043 83.9107 167.394Z" fill="url(#paint9_linear_2067_281)"/>
<path d="M85.097 160.661C83.7839 162.154 82.7886 161.278 79.9825 161.458L80.2222 165.2C81.7612 164.788 84.5761 164.264 89.2576 166.969C93.9391 169.675 112.168 180.059 141.242 172.091L126.792 166.443L151.286 145.62L122.248 139.497C125.75 135.516 130.883 127.673 130.883 127.673C99.7398 140 86.4102 159.168 85.097 160.661Z" fill="url(#paint10_linear_2067_281)"/>
</g>
<defs>
<linearGradient id="paint0_linear_2067_281" x1="316.219" y1="95.2369" x2="266.405" y2="131.536" gradientUnits="userSpaceOnUse">
<stop stop-color="#D9D9D9"/>
<stop offset="1" stop-color="#737373"/>
</linearGradient>
<linearGradient id="paint1_linear_2067_281" x1="265.892" y1="158.157" x2="204.814" y2="166.434" gradientUnits="userSpaceOnUse">
<stop stop-color="#D9D9D9"/>
<stop offset="1" stop-color="#737373"/>
</linearGradient>
<linearGradient id="paint2_linear_2067_281" x1="364.586" y1="26.7057" x2="322.344" y2="71.5907" gradientUnits="userSpaceOnUse">
<stop stop-color="#D9D9D9"/>
<stop offset="1" stop-color="#737373"/>
</linearGradient>
<linearGradient id="paint3_linear_2067_281" x1="149.66" y1="90.7126" x2="189.646" y2="137.618" gradientUnits="userSpaceOnUse">
<stop stop-color="#D9D9D9"/>
<stop offset="1" stop-color="#737373"/>
</linearGradient>
<linearGradient id="paint4_linear_2067_281" x1="208.09" y1="63.4125" x2="250.63" y2="108.016" gradientUnits="userSpaceOnUse">
<stop stop-color="#D9D9D9"/>
<stop offset="1" stop-color="#737373"/>
</linearGradient>
<linearGradient id="paint5_linear_2067_281" x1="255.957" y1="21.6558" x2="300.41" y2="64.3521" gradientUnits="userSpaceOnUse">
<stop stop-color="#D9D9D9"/>
<stop offset="1" stop-color="#737373"/>
</linearGradient>
<linearGradient id="paint6_linear_2067_281" x1="68.7335" y1="99.8618" x2="102.197" y2="151.623" gradientUnits="userSpaceOnUse">
<stop stop-color="#D9D9D9"/>
<stop offset="1" stop-color="#737373"/>
</linearGradient>
<linearGradient id="paint7_linear_2067_281" x1="15.4043" y1="155.704" x2="74.4998" y2="138.189" gradientUnits="userSpaceOnUse">
<stop stop-color="#D9D9D9"/>
<stop offset="1" stop-color="#737373"/>
</linearGradient>
<linearGradient id="paint8_linear_2067_281" x1="50.4948" y1="221.602" x2="54.5633" y2="160.1" gradientUnits="userSpaceOnUse">
<stop stop-color="#D9D9D9"/>
<stop offset="1" stop-color="#737373"/>
</linearGradient>
<linearGradient id="paint9_linear_2067_281" x1="128.351" y1="207.258" x2="70.0825" y2="187.163" gradientUnits="userSpaceOnUse">
<stop stop-color="#D9D9D9"/>
<stop offset="1" stop-color="#737373"/>
</linearGradient>
<linearGradient id="paint10_linear_2067_281" x1="138.845" y1="134.677" x2="98.1374" y2="180.958" gradientUnits="userSpaceOnUse">
<stop stop-color="#D9D9D9"/>
<stop offset="1" stop-color="#737373"/>
</linearGradient>
<clipPath id="clip0_2067_281">
<rect width="412.49" height="253.37" fill="white"/>
</clipPath>
</defs>
</svg>
