<svg width="287" height="336" viewBox="0 0 287 336" fill="none" xmlns="http://www.w3.org/2000/svg">
<g clip-path="url(#clip0_2067_256)">
<path d="M100.601 307.098C94.1741 261.9 100.74 215.806 119.531 174.2C138.323 132.594 168.565 97.1937 206.725 72.1336" stroke="black" stroke-width="1.32551"/>
<path d="M162.305 61.0319C167.623 57.3136 163.942 13.9627 168.349 12.8604C172.756 11.7581 174.453 62.2901 178.981 61.6117C183.508 60.9332 200.159 15.7493 189.946 70.5381C186.947 86.6304 158.943 87.6528 153.796 73.0297C134.926 19.4182 156.988 64.7503 162.305 61.0319Z" fill="url(#paint0_linear_2067_256)"/>
<path d="M187.348 59.034C193.836 58.9586 215.223 21.0718 219.485 22.6447C223.747 24.2176 196.674 66.9188 200.797 68.9097C204.919 70.9005 244.136 42.9565 204.825 82.4632C193.279 94.0669 169.569 79.131 173.557 64.1503C188.179 9.22778 180.86 59.1094 187.348 59.034Z" fill="url(#paint1_linear_2067_256)"/>
<path d="M205.711 73.7692C211.028 77.487 250.482 59.1487 253.03 62.9097C255.578 66.6708 208.699 85.6108 210.89 89.6303C213.082 93.6499 261.236 93.7784 206.271 102.994C190.126 105.701 179.553 79.7492 191.521 69.8952C235.397 33.7684 200.393 70.0514 205.711 73.7692Z" fill="url(#paint2_linear_2067_256)"/>
<path d="M211.175 96.8663C212.914 103.117 255.023 114.057 254.598 118.58C254.172 123.104 205.95 107.905 205.085 112.401C204.219 116.896 241.298 147.621 193.021 119.775C178.841 111.596 187.186 84.8451 202.689 84.8522C259.524 84.8781 209.436 90.6153 211.175 96.8663Z" fill="url(#paint3_linear_2067_256)"/>
<path d="M164.364 150.612C161.057 156.195 182.317 194.154 178.759 196.978C175.2 199.803 152.781 154.485 148.938 156.973C145.095 159.461 148.596 207.488 135.264 153.373C131.349 137.479 156.429 124.98 167.157 136.171C206.488 177.2 167.67 145.03 164.364 150.612Z" fill="url(#paint4_linear_2067_256)"/>
<path d="M129.385 249.546C127.237 255.669 155.525 288.723 152.59 292.19C149.654 295.658 118.786 255.614 115.505 258.807C112.225 262 125.073 308.409 101.391 257.958C94.4356 243.139 116.579 225.966 129.293 234.837C175.904 267.36 131.533 243.423 129.385 249.546Z" fill="url(#paint5_linear_2067_256)"/>
<path d="M81.315 303.592C75.0649 301.849 43.9325 332.24 40.2806 329.538C36.6288 326.836 74.5666 293.413 71.1655 290.348C67.7645 287.283 22.2963 303.141 71.0891 276.209C85.4203 268.298 104.006 289.27 95.9862 302.537C66.5842 351.177 87.565 305.334 81.315 303.592Z" fill="url(#paint6_linear_2067_256)"/>
<path d="M88.1279 204.587C83.5194 200.02 41.5237 211.387 39.6517 207.248C37.7797 203.108 87.1954 192.41 85.7189 188.076C84.2424 183.743 36.8106 175.433 92.5425 175.692C108.912 175.768 114.921 203.139 101.453 210.816C52.0758 238.961 92.7365 209.154 88.1279 204.587Z" fill="url(#paint7_linear_2067_256)"/>
</g>
<defs>
<linearGradient id="paint0_linear_2067_256" x1="171.54" y1="83.2446" x2="173.981" y2="13.0348" gradientUnits="userSpaceOnUse">
<stop stop-color="#737373"/>
<stop offset="1" stop-color="#D9D9D9"/>
</linearGradient>
<linearGradient id="paint1_linear_2067_256" x1="182.459" y1="82.5878" x2="224.039" y2="25.9623" gradientUnits="userSpaceOnUse">
<stop stop-color="#737373"/>
<stop offset="1" stop-color="#D9D9D9"/>
</linearGradient>
<linearGradient id="paint2_linear_2067_256" x1="188.018" y1="90.0674" x2="254.799" y2="68.259" gradientUnits="userSpaceOnUse">
<stop stop-color="#737373"/>
<stop offset="1" stop-color="#D9D9D9"/>
</linearGradient>
<linearGradient id="paint3_linear_2067_256" x1="187.156" y1="98.191" x2="252.561" y2="123.834" gradientUnits="userSpaceOnUse">
<stop stop-color="#737373"/>
<stop offset="1" stop-color="#D9D9D9"/>
</linearGradient>
<linearGradient id="paint4_linear_2067_256" x1="146.778" y1="134.198" x2="173.558" y2="199.146" gradientUnits="userSpaceOnUse">
<stop stop-color="#737373"/>
<stop offset="1" stop-color="#D9D9D9"/>
</linearGradient>
<linearGradient id="paint5_linear_2067_256" x1="108.923" y1="236.897" x2="147.915" y2="295.335" gradientUnits="userSpaceOnUse">
<stop stop-color="#737373"/>
<stop offset="1" stop-color="#D9D9D9"/>
</linearGradient>
<linearGradient id="paint6_linear_2067_256" x1="92.5972" y1="282.346" x2="36.8365" y2="325.079" gradientUnits="userSpaceOnUse">
<stop stop-color="#737373"/>
<stop offset="1" stop-color="#D9D9D9"/>
</linearGradient>
<linearGradient id="paint7_linear_2067_256" x1="108.333" y1="191.532" x2="38.8171" y2="201.675" gradientUnits="userSpaceOnUse">
<stop stop-color="#737373"/>
<stop offset="1" stop-color="#D9D9D9"/>
</linearGradient>
<clipPath id="clip0_2067_256">
<rect width="286.35" height="335.5" fill="white"/>
</clipPath>
</defs>
</svg>
