<svg width="108" height="79" viewBox="0 0 108 79" fill="none" xmlns="http://www.w3.org/2000/svg">
<path d="M33.1592 54.1534C33.5646 50.1337 11.612 34.2603 12.8822 31.7327C14.1524 29.2051 38.6878 48.932 40.2068 46.5198C41.7259 44.1077 27.1676 17.8952 48.8738 44.9713C55.2492 52.924 44.3557 66.5544 35.3641 63.0429C2.39923 50.1691 32.7538 58.1732 33.1592 54.1534Z" fill="url(#paint0_linear_1559_285)"/>
<path d="M42.3867 41.5236C44.9867 38.4313 35.7963 12.9476 38.27 11.5753C40.7436 10.203 49.8962 40.3255 52.5104 39.1888C55.1246 38.0521 57.8689 8.19402 60.5428 42.7935C61.3282 52.9559 44.6481 58.0774 39.1988 50.1098C19.2208 20.8985 39.7866 44.6159 42.3867 41.5236Z" fill="url(#paint1_linear_1559_285)"/>
<path d="M56.8011 38.8441C60.7157 37.845 68.0889 11.7775 70.8989 12.1028C73.7089 12.4282 63.603 42.2444 66.3901 42.8431C69.1771 43.4419 88.7994 20.7702 70.8196 50.4519C65.5386 59.1699 48.997 53.6171 49.2086 43.9666C49.9843 8.58553 52.8864 39.8432 56.8011 38.8441Z" fill="url(#paint2_linear_1559_285)"/>
<path d="M69.9181 45.6478C73.5744 47.3664 95.843 31.9395 97.8045 33.9777C99.7661 36.0159 73.0046 52.5978 74.7746 54.8323C76.5445 57.0669 106.106 52.0508 73.3537 63.5211C63.7339 66.8901 54.5003 52.0848 60.8012 44.7721C83.9017 17.9619 66.2617 43.9292 69.9181 45.6478Z" fill="url(#paint3_linear_1559_285)"/>
<defs>
<linearGradient id="paint0_linear_1559_285" x1="47.3926" y1="58.8192" x2="15.2522" y2="29.146" gradientUnits="userSpaceOnUse">
<stop stop-color="#737373"/>
<stop offset="1" stop-color="#D9D9D9"/>
</linearGradient>
<linearGradient id="paint1_linear_1559_285" x1="51.5158" y1="53.3987" x2="41.6855" y2="10.774" gradientUnits="userSpaceOnUse">
<stop stop-color="#737373"/>
<stop offset="1" stop-color="#D9D9D9"/>
</linearGradient>
<linearGradient id="paint2_linear_1559_285" x1="57.3047" y1="53.8143" x2="74.142" y2="13.4409" gradientUnits="userSpaceOnUse">
<stop stop-color="#737373"/>
<stop offset="1" stop-color="#D9D9D9"/>
</linearGradient>
<linearGradient id="paint3_linear_1559_285" x1="60.7859" y1="57.5206" x2="99.4562" y2="37.0729" gradientUnits="userSpaceOnUse">
<stop stop-color="#737373"/>
<stop offset="1" stop-color="#D9D9D9"/>
</linearGradient>
</defs>
</svg>
