<svg width="103" height="103" viewBox="0 0 103 103" fill="none" xmlns="http://www.w3.org/2000/svg">
<path d="M57.8715 48.8032C53.1829 47.9348 53.4058 48.9852 53.4058 48.9852L52.0031 48.3871C52.0031 48.3871 52.7171 47.5802 51.0834 46.6301C36.6446 35.521 51.0266 20.6648 60.9425 16.3533C68.8752 12.904 68.1716 10.7303 68.5266 10.5015C68.8817 10.2727 68.4856 14.1105 69.8578 17.3862C81.1882 43.5962 60.9523 49.3738 57.8715 48.8032Z" fill="url(#paint0_linear_1559_279)"/>
<path d="M54.4797 43.8999C52.2049 48.0907 53.2729 48.2032 53.2729 48.2032L52.2705 49.3524C52.2705 49.3524 51.7237 48.4241 50.3153 49.6842C35.2881 59.9834 25.6034 41.7145 24.567 30.9516C23.7379 22.3413 21.4532 22.3387 21.3453 21.9304C21.2373 21.522 24.7649 23.0847 28.3044 22.7919C56.7329 20.1154 55.9744 41.1462 54.4797 43.8999Z" fill="url(#paint1_linear_1559_279)"/>
<path d="M48.7975 46.3644C52.0802 49.8228 52.5172 48.842 52.5172 48.842L53.3005 50.1503C53.3005 50.1503 52.2486 50.3835 53.0118 52.1124C58.1633 69.5867 37.7958 73.1521 27.2394 70.8118C18.7943 68.9396 18.0858 71.1117 17.6641 71.0881C17.2424 71.0646 19.8186 68.1926 20.6339 64.7359C26.8733 36.8717 46.6404 44.0919 48.7975 46.3644Z" fill="url(#paint2_linear_1559_279)"/>
<path d="M48.7956 51.6255C53.0992 49.5722 52.3014 48.8535 52.3014 48.8535L53.7878 48.5129C53.7878 48.5129 53.6845 49.5853 55.5646 49.3937C73.7755 49.8942 70.8725 70.3666 65.3847 79.6832C60.9944 87.1364 62.8413 88.4814 62.6885 88.8752C62.5358 89.269 60.6005 85.9314 57.5649 84.0878C32.9926 69.5433 45.9677 52.9748 48.7956 51.6255Z" fill="url(#paint3_linear_1559_279)"/>
<path d="M54.6651 54.1917C54.0422 49.4643 53.1121 50.0009 53.1121 50.0009L53.2475 48.482C53.2475 48.482 54.2355 48.9117 54.6342 47.0644C60.7378 29.8994 79.3111 38.9867 86.4758 47.0849C92.2076 53.5634 94.0575 52.2226 94.3848 52.4895C94.7122 52.7565 90.9398 53.5657 88.2484 55.883C66.8225 74.7582 55.0745 57.2981 54.6651 54.1917Z" fill="url(#paint4_linear_1559_279)"/>
<defs>
<linearGradient id="paint0_linear_1559_279" x1="59.3878" y1="10.3874" x2="58.9477" y2="49.0483" gradientUnits="userSpaceOnUse">
<stop stop-color="#D9D9D9"/>
<stop offset="1" stop-color="#737373"/>
</linearGradient>
<linearGradient id="paint1_linear_1559_279" x1="18.4127" y1="30.5867" x2="55.0454" y2="42.9521" gradientUnits="userSpaceOnUse">
<stop stop-color="#D9D9D9"/>
<stop offset="1" stop-color="#737373"/>
</linearGradient>
<linearGradient id="paint2_linear_1559_279" x1="24.9905" y1="76.5521" x2="48.0708" y2="45.5335" gradientUnits="userSpaceOnUse">
<stop stop-color="#D9D9D9"/>
<stop offset="1" stop-color="#737373"/>
</linearGradient>
<linearGradient id="paint3_linear_1559_279" x1="70.1491" y1="83.5959" x2="47.7808" y2="52.0598" gradientUnits="userSpaceOnUse">
<stop stop-color="#D9D9D9"/>
<stop offset="1" stop-color="#737373"/>
</linearGradient>
<linearGradient id="paint4_linear_1559_279" x1="91.6693" y1="43.7627" x2="54.7646" y2="55.291" gradientUnits="userSpaceOnUse">
<stop stop-color="#D9D9D9"/>
<stop offset="1" stop-color="#737373"/>
</linearGradient>
</defs>
</svg>
