<svg width="256" height="376" viewBox="0 0 256 376" fill="none" xmlns="http://www.w3.org/2000/svg">
<g clip-path="url(#clip0_2093_4)">
<path d="M126.187 227.018C121.015 221.37 120.285 222.933 120.285 222.933L119.065 220.809C119.065 220.809 120.761 220.465 119.585 217.667C111.813 189.46 144.62 184.318 161.504 188.379C175.011 191.627 176.211 188.159 176.888 188.209C177.564 188.259 173.345 192.797 171.937 198.324C161.12 242.888 129.586 230.728 126.187 227.018Z" fill="url(#paint0_linear_2093_4)"/>
<path d="M72.112 71.5565C64.6363 69.8963 64.9344 71.5949 64.9344 71.5949L62.7171 70.5552C62.7171 70.5552 63.9088 69.3007 61.3407 67.683C38.7978 49.0326 62.7249 26.0057 78.8848 19.6491C91.8127 14.5638 90.8071 11.0351 91.3899 10.688C91.9727 10.3409 91.1189 16.478 93.1352 21.8136C109.831 64.5243 77.0244 72.6474 72.112 71.5565Z" fill="url(#paint1_linear_2093_4)"/>
<path d="M112.309 170.266C112.615 177.917 114.181 177.195 114.181 177.195L113.743 179.604C113.743 179.604 112.226 178.773 111.318 181.669C99.0524 208.232 70.6728 190.988 60.3953 176.991C52.1733 165.793 49.0191 167.668 48.5345 167.193C48.0499 166.718 54.2013 165.975 58.8438 162.661C95.8653 135.599 112.107 165.238 112.309 170.266Z" fill="url(#paint2_linear_2093_4)"/>
<path d="M80.7768 96.3828C83.4117 103.573 84.6812 102.406 84.6812 102.406L85.0019 104.834C85.0019 104.834 83.3027 104.507 83.3259 107.542C79.7829 136.584 47.4864 128.859 33.4164 118.682C22.1605 110.539 19.7318 113.29 19.1252 112.986C18.5185 112.683 24.1466 110.091 27.5515 105.515C54.5079 68.4164 79.0454 91.658 80.7768 96.3828Z" fill="url(#paint3_linear_2093_4)"/>
<path d="M113.393 145.056C106.696 141.344 106.5 143.057 106.5 143.057L104.668 141.431C104.668 141.431 106.167 140.566 104.163 138.286C87.8364 114.008 117.312 98.7136 134.612 97.2018C148.451 95.9923 148.487 92.3233 149.145 92.1558C149.802 91.9882 147.243 97.6311 147.663 103.319C151.558 149.012 117.795 147.496 113.393 145.056Z" fill="url(#paint4_linear_2093_4)"/>
<path d="M46.9754 53.7574C79.5556 85.7375 102.364 126.327 112.737 170.786C123.109 215.245 120.618 261.738 105.553 304.834" stroke="black" stroke-width="1.32551"/>
<path d="M113.341 304.029C105.755 302.98 106.19 304.649 106.19 304.649L103.896 303.792C103.896 303.792 104.982 302.445 102.291 301.041C78.3101 284.28 100.291 259.389 115.883 251.743C128.356 245.626 127.067 242.191 127.62 241.797C128.173 241.404 127.819 247.59 130.262 252.745C150.366 293.961 118.325 304.718 113.341 304.029Z" fill="url(#paint5_linear_2093_4)"/>
<path d="M107.544 296.412C104.202 303.302 105.924 303.404 105.924 303.404L104.4 305.321C104.4 305.321 103.455 303.872 101.288 305.997C77.9365 323.625 61.0563 295.028 58.6025 277.837C56.6394 264.084 52.9739 264.248 52.7707 263.601C52.5676 262.954 58.3417 265.201 63.9987 264.471C109.41 258.088 109.739 291.884 107.544 296.412Z" fill="url(#paint6_linear_2093_4)"/>
<path d="M98.6088 300.783C104.129 306.09 104.759 304.485 104.759 304.485L106.111 306.526C106.111 306.526 104.441 306.977 105.792 309.695C115.341 337.351 82.9276 344.568 65.8198 341.589C52.1336 339.206 51.1566 342.743 50.4783 342.736C49.8 342.729 53.722 337.932 54.7759 332.327C62.7378 287.165 94.9812 297.296 98.6088 300.783Z" fill="url(#paint7_linear_2093_4)"/>
<path d="M98.9923 309.223C105.746 305.613 104.413 304.518 104.413 304.518L106.772 303.863C106.772 303.863 106.686 305.591 109.688 305.145C138.941 304.61 135.788 337.667 127.669 353.017C121.173 365.297 124.235 367.319 124.019 367.963C123.803 368.606 120.453 363.393 115.447 360.659C74.9562 339.131 94.5547 311.596 98.9923 309.223Z" fill="url(#paint8_linear_2093_4)"/>
<path d="M108.599 312.91C107.252 305.371 105.8 306.3 105.8 306.3L105.905 303.854C105.905 303.854 107.522 304.47 108.026 301.478C116.556 273.491 147.022 286.704 159.111 299.17C168.783 309.142 171.652 306.855 172.197 307.259C172.742 307.664 166.749 309.239 162.602 313.155C129.615 345.011 109.484 317.863 108.599 312.91Z" fill="url(#paint9_linear_2093_4)"/>
</g>
<defs>
<linearGradient id="paint0_linear_2093_4" x1="165.28" y1="179.226" x2="127.33" y2="228.373" gradientUnits="userSpaceOnUse">
<stop stop-color="#D9D9D9"/>
<stop offset="1" stop-color="#737373"/>
</linearGradient>
<linearGradient id="paint1_linear_2093_4" x1="76.7286" y1="9.98556" x2="73.8255" y2="72.011" gradientUnits="userSpaceOnUse">
<stop stop-color="#D9D9D9"/>
<stop offset="1" stop-color="#737373"/>
</linearGradient>
<linearGradient id="paint2_linear_2093_4" x1="51.6044" y1="181.547" x2="112.31" y2="168.493" gradientUnits="userSpaceOnUse">
<stop stop-color="#D9D9D9"/>
<stop offset="1" stop-color="#737373"/>
</linearGradient>
<linearGradient id="paint3_linear_2093_4" x1="26.4428" y1="125.71" x2="80.2352" y2="94.6948" gradientUnits="userSpaceOnUse">
<stop stop-color="#D9D9D9"/>
<stop offset="1" stop-color="#737373"/>
</linearGradient>
<linearGradient id="paint4_linear_2093_4" x1="135.285" y1="87.3235" x2="114.908" y2="145.978" gradientUnits="userSpaceOnUse">
<stop stop-color="#D9D9D9"/>
<stop offset="1" stop-color="#737373"/>
</linearGradient>
<linearGradient id="paint5_linear_2093_4" x1="112.95" y1="242.286" x2="115.086" y2="304.343" gradientUnits="userSpaceOnUse">
<stop stop-color="#D9D9D9"/>
<stop offset="1" stop-color="#737373"/>
</linearGradient>
<linearGradient id="paint6_linear_2093_4" x1="48.7022" y1="277.704" x2="108.382" y2="294.849" gradientUnits="userSpaceOnUse">
<stop stop-color="#D9D9D9"/>
<stop offset="1" stop-color="#737373"/>
</linearGradient>
<linearGradient id="paint7_linear_2093_4" x1="62.6338" y1="350.964" x2="97.382" y2="299.504" gradientUnits="userSpaceOnUse">
<stop stop-color="#D9D9D9"/>
<stop offset="1" stop-color="#737373"/>
</linearGradient>
<linearGradient id="paint8_linear_2093_4" x1="135.6" y1="358.944" x2="97.3962" y2="309.995" gradientUnits="userSpaceOnUse">
<stop stop-color="#D9D9D9"/>
<stop offset="1" stop-color="#737373"/>
</linearGradient>
<linearGradient id="paint9_linear_2093_4" x1="167.199" y1="293.458" x2="108.84" y2="314.666" gradientUnits="userSpaceOnUse">
<stop stop-color="#D9D9D9"/>
<stop offset="1" stop-color="#737373"/>
</linearGradient>
<clipPath id="clip0_2093_4">
<rect width="255.6" height="375.48" fill="white"/>
</clipPath>
</defs>
</svg>
