<svg width="97" height="69" viewBox="0 0 97 69" fill="none" xmlns="http://www.w3.org/2000/svg">
<path d="M8.242 33.3859C9.665 36.3933 12.7145 43.5578 46.7022 54.7149L48.1201 52.685C34.1924 19.2968 21.9811 12.2764 17.996 16.5401C15.398 19.3197 18.6079 19.9879 17.8989 21.0028C17.2304 21.9597 13.2969 16.7814 11.6103 20.6371C9.88362 24.5844 15.3366 28.274 11.5829 27.162C7.82912 26.05 6.39924 29.4915 8.242 33.3859Z" fill="url(#paint0_linear_1559_274)"/>
<path d="M27.6603 15.8813C27.101 19.161 25.4897 26.7789 46.9312 55.4127L49.257 54.5633C56.9988 19.2246 51.0226 6.46979 45.3126 7.67663C41.5902 8.4634 43.8363 10.8519 42.6734 11.2766C41.577 11.677 41.325 5.17902 37.7319 7.37003C34.0534 9.6131 36.4039 15.7631 33.9669 12.6992C31.5298 9.63523 28.3846 11.6341 27.6603 15.8813Z" fill="url(#paint1_linear_1559_274)"/>
<path d="M50.7219 9.82054C48.5976 12.3812 43.3932 18.1728 47.6453 53.6913L50.0842 54.1185C74.4581 27.3852 75.66 13.3511 70.1116 11.5413C66.4945 10.3614 67.2454 13.5529 66.026 13.3393C64.8762 13.1379 67.907 7.38447 63.6997 7.48537C59.3925 7.58867 58.3532 14.09 57.7746 10.218C57.196 6.34604 53.4727 6.50455 50.7219 9.82054Z" fill="url(#paint2_linear_1559_274)"/>
<path d="M74.9364 18.3923C71.7276 19.2715 64.1424 21.0306 47.2529 52.5645L49.0057 54.3134C84.3053 46.3951 93.3394 35.5883 89.8325 30.9234C87.5463 27.8822 86.3309 30.9273 85.4545 30.0528C84.6282 29.2284 90.4109 26.2538 86.9066 23.9233C83.3191 21.5374 78.7387 26.2668 80.4856 22.7632C82.2325 19.2596 79.0917 17.2538 74.9364 18.3923Z" fill="url(#paint3_linear_1559_274)"/>
<defs>
<linearGradient id="paint0_linear_1559_274" x1="10.4465" y1="22.1708" x2="50.0907" y2="49.864" gradientUnits="userSpaceOnUse">
<stop stop-color="#D9D9D9"/>
<stop offset="1" stop-color="#737373"/>
</linearGradient>
<linearGradient id="paint1_linear_1559_274" x1="35.8988" y1="7.95887" x2="52.4893" y2="53.3827" gradientUnits="userSpaceOnUse">
<stop stop-color="#D9D9D9"/>
<stop offset="1" stop-color="#737373"/>
</linearGradient>
<linearGradient id="paint2_linear_1559_274" x1="61.8179" y1="7.0788" x2="53.4737" y2="54.7123" gradientUnits="userSpaceOnUse">
<stop stop-color="#D9D9D9"/>
<stop offset="1" stop-color="#737373"/>
</linearGradient>
<linearGradient id="paint3_linear_1559_274" x1="85.5983" y1="22.5108" x2="51.4417" y2="56.7439" gradientUnits="userSpaceOnUse">
<stop stop-color="#D9D9D9"/>
<stop offset="1" stop-color="#737373"/>
</linearGradient>
</defs>
</svg>
