<svg width="304" height="333" viewBox="0 0 304 333" fill="none" xmlns="http://www.w3.org/2000/svg">
<g clip-path="url(#clip0_2067_268)">
<path d="M269.33 242.351C224.745 232.536 183.873 210.237 151.487 178.059C119.102 145.881 96.5413 105.153 86.4393 60.6322" stroke="black" stroke-width="1.32551"/>
<path d="M179.497 106.257C174.36 104.786 162.483 100.872 112.998 130.055L113.944 133.918C168.991 152.501 190.405 145.209 189.484 135.881C188.884 129.8 184.676 132.965 184.203 131.034C183.756 129.213 194.174 129.956 191.309 123.834C188.376 117.567 178.145 120.235 183.465 116.885C188.786 113.534 186.149 108.161 179.497 106.257Z" fill="url(#paint0_linear_2067_268)"/>
<path d="M247.537 175.615C242.344 174.358 230.316 170.937 182.077 202.137L183.181 205.957C238.949 222.254 260.043 214.083 258.739 204.802C257.888 198.751 253.814 202.087 253.261 200.177C252.741 198.376 263.179 198.688 260.065 192.69C256.876 186.549 246.763 189.638 251.941 186.07C257.119 182.503 254.262 177.244 247.537 175.615Z" fill="url(#paint1_linear_2067_268)"/>
<path d="M283.556 293.818C283.817 288.481 284.92 276.024 245.222 234.496L241.677 236.298C236.135 294.133 248.118 313.32 256.99 310.297C262.774 308.326 258.733 304.95 260.505 304.049C262.176 303.199 263.829 313.511 269.136 309.326C274.57 305.042 269.638 295.689 274.114 300.105C278.589 304.521 283.219 300.729 283.556 293.818Z" fill="url(#paint2_linear_2067_268)"/>
<path d="M161.845 242.879C163.984 237.983 169.439 226.73 147.078 173.811L143.125 174.236C117.403 226.332 121.791 248.524 131.158 248.849C137.265 249.061 134.687 244.47 136.663 244.257C138.527 244.056 136.409 254.283 142.857 252.256C149.458 250.18 148.17 239.685 150.785 245.403C153.4 251.121 159.075 249.22 161.845 242.879Z" fill="url(#paint3_linear_2067_268)"/>
<path d="M29.2352 76.0783C32.6224 80.2107 40.1614 90.1876 97.4604 94.3493L98.8801 90.6349C64.1887 44.0291 42.4302 37.8411 37.8796 46.035C34.9129 51.3768 40.1743 51.1691 39.4645 53.0264C38.7952 54.7774 30.6516 48.2391 29.5236 54.9031C28.3688 61.7255 38.3009 65.3529 32.0193 65.0806C25.7378 64.8084 24.8487 70.727 29.2352 76.0783Z" fill="url(#paint4_linear_2067_268)"/>
<path d="M52.682 41.2477C53.0865 46.5756 53.5395 59.0725 98.089 95.3468L101.383 93.1184C99.697 35.0431 85.4227 17.494 76.9952 21.5959C71.5011 24.27 75.9302 27.1178 74.2834 28.232C72.7309 29.2825 69.8102 19.2556 65.0639 24.0675C60.2048 28.9937 66.2601 37.6619 61.2707 33.8359C56.2813 30.0099 52.1582 34.3482 52.682 41.2477Z" fill="url(#paint5_linear_2067_268)"/>
<path d="M86.256 22.8279C83.9424 27.6442 78.0863 38.6933 98.5301 92.3826L102.497 92.0995C130.075 40.9619 126.487 18.6269 117.138 17.9655C111.043 17.5343 113.455 22.215 111.471 22.3566C109.601 22.4901 112.086 12.3462 105.569 14.1402C98.898 15.9769 99.8079 26.5114 97.4 20.7034C94.992 14.8953 89.2522 16.5908 86.256 22.8279Z" fill="url(#paint6_linear_2067_268)"/>
<path d="M127.318 26.7645C122.66 29.3827 111.526 35.0747 97.4775 90.7805L100.889 92.8236C152.811 66.7523 162.683 46.3989 155.404 40.4945C150.658 36.6453 149.949 41.8629 148.244 40.8413C146.635 39.8782 154.488 32.9936 148.122 30.7256C141.603 28.4037 136.306 37.5549 137.665 31.4161C139.024 25.2772 133.35 23.3739 127.318 26.7645Z" fill="url(#paint7_linear_2067_268)"/>
</g>
<defs>
<linearGradient id="paint0_linear_2067_268" x1="190.692" y1="120.804" x2="115.259" y2="139.285" gradientUnits="userSpaceOnUse">
<stop stop-color="#D9D9D9"/>
<stop offset="1" stop-color="#737373"/>
</linearGradient>
<linearGradient id="paint1_linear_2067_268" x1="259.323" y1="189.688" x2="184.717" y2="211.266" gradientUnits="userSpaceOnUse">
<stop stop-color="#D9D9D9"/>
<stop offset="1" stop-color="#737373"/>
</linearGradient>
<linearGradient id="paint2_linear_2067_268" x1="271.945" y1="308.035" x2="236.751" y2="238.803" gradientUnits="userSpaceOnUse">
<stop stop-color="#D9D9D9"/>
<stop offset="1" stop-color="#737373"/>
</linearGradient>
<linearGradient id="paint3_linear_2067_268" x1="145.942" y1="252.046" x2="137.63" y2="174.828" gradientUnits="userSpaceOnUse">
<stop stop-color="#D9D9D9"/>
<stop offset="1" stop-color="#737373"/>
</linearGradient>
<linearGradient id="paint4_linear_2067_268" x1="28.3069" y1="57.7457" x2="100.853" y2="85.4726" gradientUnits="userSpaceOnUse">
<stop stop-color="#D9D9D9"/>
<stop offset="1" stop-color="#737373"/>
</linearGradient>
<linearGradient id="paint5_linear_2067_268" x1="62.4368" y1="25.6981" x2="105.96" y2="90.0214" gradientUnits="userSpaceOnUse">
<stop stop-color="#D9D9D9"/>
<stop offset="1" stop-color="#737373"/>
</linearGradient>
<linearGradient id="paint6_linear_2067_268" x1="102.479" y1="14.2389" x2="108.009" y2="91.7059" gradientUnits="userSpaceOnUse">
<stop stop-color="#D9D9D9"/>
<stop offset="1" stop-color="#737373"/>
</linearGradient>
<linearGradient id="paint7_linear_2067_268" x1="145.533" y1="29.0338" x2="105.63" y2="95.663" gradientUnits="userSpaceOnUse">
<stop stop-color="#D9D9D9"/>
<stop offset="1" stop-color="#737373"/>
</linearGradient>
<clipPath id="clip0_2067_268">
<rect width="303.55" height="332.23" fill="white"/>
</clipPath>
</defs>
</svg>
