<svg width="77" height="77" viewBox="0 0 77 77" fill="none" xmlns="http://www.w3.org/2000/svg">
<path d="M25.2783 20.8829L38.3679 38.2356L21.8353 29.6954L8.27344 13.2979L25.2783 20.8829Z" fill="url(#paint0_linear_1514_127)"/>
<path d="M16.8447 41.0767L38.4174 38.417L22.755 48.4646L1.77344 52.0107L16.8447 41.0767Z" fill="url(#paint1_linear_1514_127)"/>
<path d="M20.882 51.5069L38.2346 38.4173L29.6944 54.9498L13.2969 68.5117L20.882 51.5069Z" fill="url(#paint2_linear_1514_127)"/>
<path d="M41.0776 59.9893L38.418 38.4166L48.4655 54.079L52.0117 75.0605L41.0776 59.9893Z" fill="url(#paint3_linear_1514_127)"/>
<path d="M29.9336 58.4291L38.4166 38.4168L39.2869 57.0046L31.8672 76.9482L29.9336 58.4291Z" fill="url(#paint4_linear_1514_127)"/>
<path d="M51.5069 55.4745L38.4173 38.1219L54.9498 46.6621L68.5117 63.0596L51.5069 55.4745Z" fill="url(#paint5_linear_1514_127)"/>
<path d="M18.5192 29.9336L38.5314 38.4166L19.9437 39.2869L0 31.8672L18.5192 29.9336Z" fill="url(#paint6_linear_1514_127)"/>
<path d="M58.4301 46.8515L38.4178 38.3685L57.0055 37.4983L76.9492 44.918L58.4301 46.8515Z" fill="url(#paint7_linear_1514_127)"/>
<path d="M59.3975 35.7573L37.8248 38.417L53.4872 28.3694L74.4688 24.8232L59.3975 35.7573Z" fill="url(#paint8_linear_1514_127)"/>
<path d="M55.4735 25.2792L38.1209 38.3689L46.6611 21.8363L63.0586 8.27441L55.4735 25.2792Z" fill="url(#paint9_linear_1514_127)"/>
<path d="M46.8515 18.5192L38.3685 38.5314L37.4983 19.9437L44.918 0L46.8515 18.5192Z" fill="url(#paint10_linear_1514_127)"/>
<path d="M35.7583 16.8447L38.4179 38.4174L28.3704 22.755L24.8242 1.77344L35.7583 16.8447Z" fill="url(#paint11_linear_1514_127)"/>
<defs>
<linearGradient id="paint0_linear_1514_127" x1="14.1597" y1="9.89942" x2="32.4816" y2="41.634" gradientUnits="userSpaceOnUse">
<stop stop-color="#D9D9D9"/>
<stop offset="1" stop-color="#737373"/>
</linearGradient>
<linearGradient id="paint1_linear_1514_127" x1="1.77344" y1="45.2139" x2="38.4174" y2="45.2139" gradientUnits="userSpaceOnUse">
<stop stop-color="#D9D9D9"/>
<stop offset="1" stop-color="#737373"/>
</linearGradient>
<linearGradient id="paint2_linear_1514_127" x1="9.89845" y1="62.6255" x2="41.633" y2="44.3035" gradientUnits="userSpaceOnUse">
<stop stop-color="#D9D9D9"/>
<stop offset="1" stop-color="#737373"/>
</linearGradient>
<linearGradient id="paint3_linear_1514_127" x1="45.2149" y1="75.0605" x2="45.2149" y2="38.4166" gradientUnits="userSpaceOnUse">
<stop stop-color="#D9D9D9"/>
<stop offset="1" stop-color="#737373"/>
</linearGradient>
<linearGradient id="paint4_linear_1514_127" x1="25.9809" y1="73.5498" x2="44.3029" y2="41.8153" gradientUnits="userSpaceOnUse">
<stop stop-color="#D9D9D9"/>
<stop offset="1" stop-color="#737373"/>
</linearGradient>
<linearGradient id="paint5_linear_1514_127" x1="62.6255" y1="66.458" x2="44.3035" y2="34.7234" gradientUnits="userSpaceOnUse">
<stop stop-color="#D9D9D9"/>
<stop offset="1" stop-color="#737373"/>
</linearGradient>
<linearGradient id="paint6_linear_1514_127" x1="3.39843" y1="25.9809" x2="35.133" y2="44.3029" gradientUnits="userSpaceOnUse">
<stop stop-color="#D9D9D9"/>
<stop offset="1" stop-color="#737373"/>
</linearGradient>
<linearGradient id="paint7_linear_1514_127" x1="73.5508" y1="50.8042" x2="41.8162" y2="32.4823" gradientUnits="userSpaceOnUse">
<stop stop-color="#D9D9D9"/>
<stop offset="1" stop-color="#737373"/>
</linearGradient>
<linearGradient id="paint8_linear_1514_127" x1="74.4687" y1="31.6201" x2="37.8248" y2="31.6201" gradientUnits="userSpaceOnUse">
<stop stop-color="#D9D9D9"/>
<stop offset="1" stop-color="#737373"/>
</linearGradient>
<linearGradient id="paint9_linear_1514_127" x1="66.457" y1="14.1607" x2="34.7225" y2="32.4826" gradientUnits="userSpaceOnUse">
<stop stop-color="#D9D9D9"/>
<stop offset="1" stop-color="#737373"/>
</linearGradient>
<linearGradient id="paint10_linear_1514_127" x1="50.8042" y1="3.39843" x2="32.4823" y2="35.133" gradientUnits="userSpaceOnUse">
<stop stop-color="#D9D9D9"/>
<stop offset="1" stop-color="#737373"/>
</linearGradient>
<linearGradient id="paint11_linear_1514_127" x1="31.6211" y1="1.77344" x2="31.6211" y2="38.4174" gradientUnits="userSpaceOnUse">
<stop stop-color="#D9D9D9"/>
<stop offset="1" stop-color="#737373"/>
</linearGradient>
</defs>
</svg>
