<svg width="502" height="210" viewBox="0 0 502 210" fill="none" xmlns="http://www.w3.org/2000/svg">
<g clip-path="url(#clip0_2049_173)">
<path d="M82.2927 106.527C121.746 83.5574 166.921 72.2874 212.54 74.0336C258.16 75.7798 302.341 90.47 339.923 116.389" stroke="black" stroke-width="1.32551"/>
<path d="M77.1773 124.861L113.077 91.8827L97.5946 130.637L63.9297 164.463L77.1773 124.861Z" fill="url(#paint0_linear_2049_173)"/>
<path d="M255.8 37.4177L269.173 84.2952L241.48 53.075L226.348 7.81445L255.8 37.4177Z" fill="url(#paint1_linear_2049_173)"/>
<path d="M122.14 105.325L160.947 77.3524L143.314 118.845L106.816 148.555L122.14 105.325Z" fill="url(#paint2_linear_2049_173)"/>
<path d="M169.165 102.945L208.271 73.8417L188.878 110.795L151.906 140.971L169.165 102.945Z" fill="url(#paint3_linear_2049_173)"/>
<path d="M210.99 110.424L246.805 77.3542L231.422 116.148L197.844 150.06L210.99 110.424Z" fill="url(#paint4_linear_2049_173)"/>
<path d="M52.9356 77.6597L96.3507 99.8284L54.6305 98.8104L11.1992 79.0312L52.9356 77.6597Z" fill="url(#paint5_linear_2049_173)"/>
<path d="M102.834 49.6702L140.473 80.6479L99.9457 70.6913L61.7773 42.0439L102.834 49.6702Z" fill="url(#paint6_linear_2049_173)"/>
<path d="M153.691 39.1087L186.603 75.0686L147.877 59.5152L114.113 25.7881L153.691 39.1087Z" fill="url(#paint7_linear_2049_173)"/>
<path d="M207.309 35.1162L234.343 75.6809L198.447 54.3954L170.23 15.9072L207.309 35.1162Z" fill="url(#paint8_linear_2049_173)"/>
<path d="M343.336 165.974L341.624 117.256L361 154.218L364.809 201.789L343.336 165.974Z" fill="url(#paint9_linear_2049_173)"/>
<path d="M384.813 139.738L341.767 116.862L383.465 118.563L426.566 139.05L384.813 139.738Z" fill="url(#paint10_linear_2049_173)"/>
<path d="M390.814 115.384L342.096 117.096L379.058 97.7195L426.629 93.9111L390.814 115.384Z" fill="url(#paint11_linear_2049_173)"/>
<path d="M364.642 73.8158L341.765 116.862L343.466 75.1643L363.953 32.0625L364.642 73.8158Z" fill="url(#paint12_linear_2049_173)"/>
<path d="M383.102 91.0202L341.768 116.861L364.089 81.6002L403.383 54.5166L383.102 91.0202Z" fill="url(#paint13_linear_2049_173)"/>
<path d="M339.676 68.6882L341.388 117.406L322.012 80.4439L318.203 32.873L339.676 68.6882Z" fill="url(#paint14_linear_2049_173)"/>
<path d="M367.395 158.049L341.554 116.714L376.815 139.036L403.898 178.329L367.395 158.049Z" fill="url(#paint15_linear_2049_173)"/>
<path d="M315.863 75.6154L341.704 116.95L306.443 94.6284L279.359 55.335L315.863 75.6154Z" fill="url(#paint16_linear_2049_173)"/>
<path d="M299.804 94.7462L342.851 117.622L301.153 115.922L258.051 95.4346L299.804 94.7462Z" fill="url(#paint17_linear_2049_173)"/>
<path d="M293.53 119.042L342.248 117.33L305.286 136.706L257.715 140.515L293.53 119.042Z" fill="url(#paint18_linear_2049_173)"/>
<path d="M300.667 142.555L342.002 116.714L319.68 151.975L280.387 179.059L300.667 142.555Z" fill="url(#paint19_linear_2049_173)"/>
<path d="M318.89 159.909L341.766 116.862L340.065 158.56L319.578 201.662L318.89 159.909Z" fill="url(#paint20_linear_2049_173)"/>
</g>
<defs>
<linearGradient id="paint0_linear_2049_173" x1="55.0684" y1="152.06" x2="121.938" y2="104.286" gradientUnits="userSpaceOnUse">
<stop stop-color="#D9D9D9"/>
<stop offset="1" stop-color="#737373"/>
</linearGradient>
<linearGradient id="paint1_linear_2049_173" x1="241.408" y1="5.45791" x2="254.113" y2="86.6518" gradientUnits="userSpaceOnUse">
<stop stop-color="#D9D9D9"/>
<stop offset="1" stop-color="#737373"/>
</linearGradient>
<linearGradient id="paint2_linear_2049_173" x1="97.9886" y1="130.815" x2="169.775" y2="95.0919" gradientUnits="userSpaceOnUse">
<stop stop-color="#D9D9D9"/>
<stop offset="1" stop-color="#737373"/>
</linearGradient>
<linearGradient id="paint3_linear_2049_173" x1="144.37" y1="127.72" x2="215.807" y2="87.0921" gradientUnits="userSpaceOnUse">
<stop stop-color="#D9D9D9"/>
<stop offset="1" stop-color="#737373"/>
</linearGradient>
<linearGradient id="paint4_linear_2049_173" x1="188.951" y1="137.679" x2="255.698" y2="89.7347" gradientUnits="userSpaceOnUse">
<stop stop-color="#D9D9D9"/>
<stop offset="1" stop-color="#737373"/>
</linearGradient>
<linearGradient id="paint5_linear_2049_173" x1="19.7405" y1="66.4056" x2="87.8095" y2="112.454" gradientUnits="userSpaceOnUse">
<stop stop-color="#D9D9D9"/>
<stop offset="1" stop-color="#737373"/>
</linearGradient>
<linearGradient id="paint6_linear_2049_173" x1="72.8315" y1="31.5479" x2="129.419" y2="91.144" gradientUnits="userSpaceOnUse">
<stop stop-color="#D9D9D9"/>
<stop offset="1" stop-color="#737373"/>
</linearGradient>
<linearGradient id="paint7_linear_2049_173" x1="126.533" y1="16.9497" x2="174.183" y2="83.907" gradientUnits="userSpaceOnUse">
<stop stop-color="#D9D9D9"/>
<stop offset="1" stop-color="#737373"/>
</linearGradient>
<linearGradient id="paint8_linear_2049_173" x1="183.854" y1="9.06934" x2="220.719" y2="82.5188" gradientUnits="userSpaceOnUse">
<stop stop-color="#D9D9D9"/>
<stop offset="1" stop-color="#737373"/>
</linearGradient>
<linearGradient id="paint9_linear_2049_173" x1="349.624" y1="200.456" x2="356.809" y2="118.589" gradientUnits="userSpaceOnUse">
<stop stop-color="#D9D9D9"/>
<stop offset="1" stop-color="#737373"/>
</linearGradient>
<linearGradient id="paint10_linear_2049_173" x1="417.82" y1="151.534" x2="350.513" y2="104.378" gradientUnits="userSpaceOnUse">
<stop stop-color="#D9D9D9"/>
<stop offset="1" stop-color="#737373"/>
</linearGradient>
<linearGradient id="paint11_linear_2049_173" x1="425.296" y1="109.096" x2="343.429" y2="101.911" gradientUnits="userSpaceOnUse">
<stop stop-color="#D9D9D9"/>
<stop offset="1" stop-color="#737373"/>
</linearGradient>
<linearGradient id="paint12_linear_2049_173" x1="376.437" y1="40.8092" x2="329.281" y2="108.116" gradientUnits="userSpaceOnUse">
<stop stop-color="#D9D9D9"/>
<stop offset="1" stop-color="#737373"/>
</linearGradient>
<linearGradient id="paint13_linear_2049_173" x1="409.821" y1="68.3336" x2="335.329" y2="103.044" gradientUnits="userSpaceOnUse">
<stop stop-color="#D9D9D9"/>
<stop offset="1" stop-color="#737373"/>
</linearGradient>
<linearGradient id="paint14_linear_2049_173" x1="333.388" y1="34.2058" x2="326.203" y2="116.073" gradientUnits="userSpaceOnUse">
<stop stop-color="#D9D9D9"/>
<stop offset="1" stop-color="#737373"/>
</linearGradient>
<linearGradient id="paint15_linear_2049_173" x1="390.081" y1="184.767" x2="355.371" y2="110.276" gradientUnits="userSpaceOnUse">
<stop stop-color="#D9D9D9"/>
<stop offset="1" stop-color="#737373"/>
</linearGradient>
<linearGradient id="paint16_linear_2049_173" x1="293.176" y1="48.8967" x2="327.887" y2="123.388" gradientUnits="userSpaceOnUse">
<stop stop-color="#D9D9D9"/>
<stop offset="1" stop-color="#737373"/>
</linearGradient>
<linearGradient id="paint17_linear_2049_173" x1="266.798" y1="82.9503" x2="334.104" y2="130.107" gradientUnits="userSpaceOnUse">
<stop stop-color="#D9D9D9"/>
<stop offset="1" stop-color="#737373"/>
</linearGradient>
<linearGradient id="paint18_linear_2049_173" x1="259.048" y1="125.33" x2="340.915" y2="132.515" gradientUnits="userSpaceOnUse">
<stop stop-color="#D9D9D9"/>
<stop offset="1" stop-color="#737373"/>
</linearGradient>
<linearGradient id="paint19_linear_2049_173" x1="273.948" y1="165.242" x2="348.44" y2="130.531" gradientUnits="userSpaceOnUse">
<stop stop-color="#D9D9D9"/>
<stop offset="1" stop-color="#737373"/>
</linearGradient>
<linearGradient id="paint20_linear_2049_173" x1="307.094" y1="192.915" x2="354.25" y2="125.609" gradientUnits="userSpaceOnUse">
<stop stop-color="#D9D9D9"/>
<stop offset="1" stop-color="#737373"/>
</linearGradient>
<clipPath id="clip0_2049_173">
<rect width="502" height="209.73" fill="white"/>
</clipPath>
</defs>
</svg>
